<svg width="600" height="500" viewBox="0 0 600 500" fill="none" xmlns="http://www.w3.org/2000/svg">
<g clip-path="url(#clip0)">
<rect x="-118" y="91" width="837" height="327" fill="#F9FBFF"/>
<g filter="url(#filter0_di)">
<rect x="186" y="137" width="92" height="234" rx="22" fill="#7BA371"/>
<rect x="186.5" y="137.5" width="91" height="233" rx="21.5" stroke="#686868"/>
</g>
<path d="M212.36 128.144C211.896 128.144 211.52 128 211.232 127.712C210.96 127.424 210.824 127.048 210.824 126.584V112.544C210.824 112.08 210.952 111.72 211.208 111.464C211.48 111.208 211.848 111.08 212.312 111.08H220.736C221.712 111.08 222.2 111.496 222.2 112.328C222.2 113.144 221.712 113.552 220.736 113.552H213.872V118.16H220.256C221.232 118.16 221.72 118.576 221.72 119.408C221.72 120.224 221.232 120.632 220.256 120.632H213.872V126.584C213.872 127.048 213.736 127.424 213.464 127.712C213.192 128 212.824 128.144 212.36 128.144ZM228.89 115.976C230.522 115.976 231.73 116.384 232.514 117.2C233.314 118 233.714 119.224 233.714 120.872V126.728C233.714 127.16 233.586 127.504 233.33 127.76C233.074 128 232.722 128.12 232.274 128.12C231.858 128.12 231.514 127.992 231.242 127.736C230.986 127.48 230.858 127.144 230.858 126.728V126.2C230.586 126.824 230.154 127.312 229.562 127.664C228.986 128.016 228.314 128.192 227.546 128.192C226.762 128.192 226.05 128.032 225.41 127.712C224.77 127.392 224.266 126.952 223.898 126.392C223.53 125.832 223.346 125.208 223.346 124.52C223.346 123.656 223.562 122.976 223.994 122.48C224.442 121.984 225.162 121.624 226.154 121.4C227.146 121.176 228.514 121.064 230.258 121.064H230.858V120.512C230.858 119.728 230.69 119.16 230.354 118.808C230.018 118.44 229.474 118.256 228.722 118.256C228.258 118.256 227.786 118.328 227.306 118.472C226.826 118.6 226.258 118.792 225.602 119.048C225.186 119.256 224.882 119.36 224.69 119.36C224.402 119.36 224.162 119.256 223.97 119.048C223.794 118.84 223.706 118.568 223.706 118.232C223.706 117.96 223.77 117.728 223.898 117.536C224.042 117.328 224.274 117.136 224.594 116.96C225.154 116.656 225.818 116.416 226.586 116.24C227.37 116.064 228.138 115.976 228.89 115.976ZM228.146 126.032C228.946 126.032 229.594 125.768 230.09 125.24C230.602 124.696 230.858 124 230.858 123.152V122.648H230.426C229.354 122.648 228.522 122.696 227.93 122.792C227.338 122.888 226.914 123.056 226.658 123.296C226.402 123.536 226.274 123.864 226.274 124.28C226.274 124.792 226.45 125.216 226.802 125.552C227.17 125.872 227.618 126.032 228.146 126.032ZM252.051 110.96C252.499 110.96 252.859 111.104 253.131 111.392C253.403 111.664 253.539 112.032 253.539 112.496V126.704C253.539 127.152 253.411 127.504 253.155 127.76C252.899 128.016 252.563 128.144 252.147 128.144C251.731 128.144 251.403 128.016 251.163 127.76C250.923 127.504 250.803 127.152 250.803 126.704V116.816L246.723 124.544C246.531 124.896 246.323 125.16 246.099 125.336C245.875 125.496 245.611 125.576 245.307 125.576C245.003 125.576 244.739 125.496 244.515 125.336C244.291 125.176 244.083 124.912 243.891 124.544L239.787 116.936V126.704C239.787 127.136 239.659 127.488 239.403 127.76C239.163 128.016 238.835 128.144 238.419 128.144C238.003 128.144 237.675 128.016 237.435 127.76C237.195 127.504 237.075 127.152 237.075 126.704V112.496C237.075 112.032 237.203 111.664 237.459 111.392C237.731 111.104 238.091 110.96 238.539 110.96C239.163 110.96 239.651 111.304 240.003 111.992L245.331 122.144L250.635 111.992C250.987 111.304 251.459 110.96 252.051 110.96Z" fill="black"/>
<path d="M351.68 128.216C350.448 128.216 349.28 128.056 348.176 127.736C347.088 127.4 346.2 126.952 345.512 126.392C345.144 126.12 344.96 125.736 344.96 125.24C344.96 124.904 345.056 124.616 345.248 124.376C345.456 124.12 345.696 123.992 345.968 123.992C346.256 123.992 346.584 124.104 346.952 124.328C347.64 124.824 348.36 125.184 349.112 125.408C349.864 125.632 350.696 125.744 351.608 125.744C352.776 125.744 353.672 125.544 354.296 125.144C354.92 124.728 355.232 124.128 355.232 123.344C355.232 122.736 354.936 122.272 354.344 121.952C353.768 121.616 352.8 121.296 351.44 120.992C350.032 120.688 348.888 120.336 348.008 119.936C347.128 119.536 346.464 119.024 346.016 118.4C345.568 117.776 345.344 116.984 345.344 116.024C345.344 115.032 345.624 114.144 346.184 113.36C346.744 112.576 347.52 111.968 348.512 111.536C349.52 111.088 350.648 110.864 351.896 110.864C354.184 110.864 356.048 111.472 357.488 112.688C357.696 112.864 357.84 113.04 357.92 113.216C358.016 113.376 358.064 113.584 358.064 113.84C358.064 114.176 357.96 114.472 357.752 114.728C357.56 114.968 357.328 115.088 357.056 115.088C356.896 115.088 356.744 115.064 356.6 115.016C356.472 114.968 356.296 114.88 356.072 114.752C355.416 114.272 354.776 113.92 354.152 113.696C353.544 113.456 352.792 113.336 351.896 113.336C350.808 113.336 349.944 113.56 349.304 114.008C348.68 114.44 348.368 115.048 348.368 115.832C348.368 116.488 348.648 116.992 349.208 117.344C349.768 117.696 350.72 118.024 352.064 118.328C353.488 118.648 354.64 119.008 355.52 119.408C356.416 119.792 357.096 120.288 357.56 120.896C358.04 121.504 358.28 122.264 358.28 123.176C358.28 124.168 358 125.048 357.44 125.816C356.896 126.568 356.12 127.16 355.112 127.592C354.12 128.008 352.976 128.216 351.68 128.216ZM366.217 128.192C365.017 128.192 363.961 127.944 363.049 127.448C362.153 126.952 361.457 126.24 360.961 125.312C360.465 124.384 360.217 123.304 360.217 122.072C360.217 120.84 360.465 119.768 360.961 118.856C361.457 117.928 362.153 117.216 363.049 116.72C363.961 116.224 365.017 115.976 366.217 115.976C367.417 115.976 368.465 116.224 369.361 116.72C370.273 117.216 370.969 117.928 371.449 118.856C371.945 119.768 372.193 120.84 372.193 122.072C372.193 123.304 371.945 124.384 371.449 125.312C370.969 126.24 370.273 126.952 369.361 127.448C368.465 127.944 367.417 128.192 366.217 128.192ZM366.193 125.864C367.169 125.864 367.913 125.544 368.425 124.904C368.937 124.264 369.193 123.32 369.193 122.072C369.193 120.84 368.937 119.904 368.425 119.264C367.913 118.608 367.177 118.28 366.217 118.28C365.257 118.28 364.513 118.608 363.985 119.264C363.473 119.904 363.217 120.84 363.217 122.072C363.217 123.32 363.473 124.264 363.985 124.904C364.497 125.544 365.233 125.864 366.193 125.864ZM376.157 128.144C375.725 128.144 375.365 128.024 375.077 127.784C374.805 127.528 374.669 127.168 374.669 126.704V112.376C374.669 111.912 374.805 111.56 375.077 111.32C375.365 111.08 375.725 110.96 376.157 110.96C376.589 110.96 376.949 111.08 377.237 111.32C377.525 111.56 377.669 111.912 377.669 112.376V126.704C377.669 127.168 377.525 127.528 377.237 127.784C376.949 128.024 376.589 128.144 376.157 128.144ZM396.051 110.96C396.499 110.96 396.859 111.104 397.131 111.392C397.403 111.664 397.539 112.032 397.539 112.496V126.704C397.539 127.152 397.411 127.504 397.155 127.76C396.899 128.016 396.563 128.144 396.147 128.144C395.731 128.144 395.403 128.016 395.163 127.76C394.923 127.504 394.803 127.152 394.803 126.704V116.816L390.723 124.544C390.531 124.896 390.323 125.16 390.099 125.336C389.875 125.496 389.611 125.576 389.307 125.576C389.003 125.576 388.739 125.496 388.515 125.336C388.291 125.176 388.083 124.912 387.891 124.544L383.787 116.936V126.704C383.787 127.136 383.659 127.488 383.403 127.76C383.163 128.016 382.835 128.144 382.419 128.144C382.003 128.144 381.675 128.016 381.435 127.76C381.195 127.504 381.075 127.152 381.075 126.704V112.496C381.075 112.032 381.203 111.664 381.459 111.392C381.731 111.104 382.091 110.96 382.539 110.96C383.163 110.96 383.651 111.304 384.003 111.992L389.331 122.144L394.635 111.992C394.987 111.304 395.459 110.96 396.051 110.96Z" fill="black"/>
<path d="M68.312 128C67.848 128 67.48 127.872 67.208 127.616C66.952 127.36 66.824 127 66.824 126.536V112.544C66.824 112.08 66.952 111.72 67.208 111.464C67.48 111.208 67.848 111.08 68.312 111.08H73.064C75.832 111.08 77.976 111.824 79.496 113.312C81.032 114.784 81.8 116.856 81.8 119.528C81.8 122.216 81.032 124.304 79.496 125.792C77.976 127.264 75.832 128 73.064 128H68.312ZM72.872 125.48C76.76 125.48 78.704 123.496 78.704 119.528C78.704 115.576 76.76 113.6 72.872 113.6H69.92V125.48H72.872ZM90.0058 128.192C88.8058 128.192 87.7498 127.944 86.8378 127.448C85.9418 126.952 85.2458 126.24 84.7498 125.312C84.2538 124.384 84.0058 123.304 84.0058 122.072C84.0058 120.84 84.2538 119.768 84.7498 118.856C85.2458 117.928 85.9418 117.216 86.8378 116.72C87.7498 116.224 88.8058 115.976 90.0058 115.976C91.2058 115.976 92.2538 116.224 93.1498 116.72C94.0618 117.216 94.7578 117.928 95.2378 118.856C95.7338 119.768 95.9818 120.84 95.9818 122.072C95.9818 123.304 95.7338 124.384 95.2378 125.312C94.7578 126.24 94.0618 126.952 93.1498 127.448C92.2538 127.944 91.2058 128.192 90.0058 128.192ZM89.9818 125.864C90.9578 125.864 91.7018 125.544 92.2138 124.904C92.7258 124.264 92.9818 123.32 92.9818 122.072C92.9818 120.84 92.7258 119.904 92.2138 119.264C91.7018 118.608 90.9658 118.28 90.0058 118.28C89.0458 118.28 88.3018 118.608 87.7738 119.264C87.2618 119.904 87.0058 120.84 87.0058 122.072C87.0058 123.32 87.2618 124.264 87.7738 124.904C88.2858 125.544 89.0218 125.864 89.9818 125.864ZM113.746 110.96C114.194 110.96 114.554 111.104 114.826 111.392C115.098 111.664 115.234 112.032 115.234 112.496V126.704C115.234 127.152 115.106 127.504 114.85 127.76C114.594 128.016 114.258 128.144 113.842 128.144C113.426 128.144 113.098 128.016 112.858 127.76C112.618 127.504 112.498 127.152 112.498 126.704V116.816L108.418 124.544C108.226 124.896 108.018 125.16 107.794 125.336C107.57 125.496 107.306 125.576 107.002 125.576C106.698 125.576 106.434 125.496 106.21 125.336C105.986 125.176 105.778 124.912 105.586 124.544L101.482 116.936V126.704C101.482 127.136 101.354 127.488 101.098 127.76C100.858 128.016 100.53 128.144 100.114 128.144C99.6984 128.144 99.3704 128.016 99.1304 127.76C98.8904 127.504 98.7704 127.152 98.7704 126.704V112.496C98.7704 112.032 98.8984 111.664 99.1544 111.392C99.4264 111.104 99.7864 110.96 100.234 110.96C100.858 110.96 101.346 111.304 101.698 111.992L107.026 122.144L112.33 111.992C112.682 111.304 113.154 110.96 113.746 110.96Z" fill="black"/>
<path d="M489.312 128C488.848 128 488.48 127.872 488.208 127.616C487.952 127.36 487.824 127 487.824 126.536V112.544C487.824 112.08 487.952 111.72 488.208 111.464C488.48 111.208 488.848 111.08 489.312 111.08H494.064C496.832 111.08 498.976 111.824 500.496 113.312C502.032 114.784 502.8 116.856 502.8 119.528C502.8 122.216 502.032 124.304 500.496 125.792C498.976 127.264 496.832 128 494.064 128H489.312ZM493.872 125.48C497.76 125.48 499.704 123.496 499.704 119.528C499.704 115.576 497.76 113.6 493.872 113.6H490.92V125.48H493.872ZM511.006 128.192C509.806 128.192 508.75 127.944 507.838 127.448C506.942 126.952 506.246 126.24 505.75 125.312C505.254 124.384 505.006 123.304 505.006 122.072C505.006 120.84 505.254 119.768 505.75 118.856C506.246 117.928 506.942 117.216 507.838 116.72C508.75 116.224 509.806 115.976 511.006 115.976C512.206 115.976 513.254 116.224 514.15 116.72C515.062 117.216 515.758 117.928 516.238 118.856C516.734 119.768 516.982 120.84 516.982 122.072C516.982 123.304 516.734 124.384 516.238 125.312C515.758 126.24 515.062 126.952 514.15 127.448C513.254 127.944 512.206 128.192 511.006 128.192ZM510.982 125.864C511.958 125.864 512.702 125.544 513.214 124.904C513.726 124.264 513.982 123.32 513.982 122.072C513.982 120.84 513.726 119.904 513.214 119.264C512.702 118.608 511.966 118.28 511.006 118.28C510.046 118.28 509.302 118.608 508.774 119.264C508.262 119.904 508.006 120.84 508.006 122.072C508.006 123.32 508.262 124.264 508.774 124.904C509.286 125.544 510.022 125.864 510.982 125.864ZM534.746 110.96C535.194 110.96 535.554 111.104 535.826 111.392C536.098 111.664 536.234 112.032 536.234 112.496V126.704C536.234 127.152 536.106 127.504 535.85 127.76C535.594 128.016 535.258 128.144 534.842 128.144C534.426 128.144 534.098 128.016 533.858 127.76C533.618 127.504 533.498 127.152 533.498 126.704V116.816L529.418 124.544C529.226 124.896 529.018 125.16 528.794 125.336C528.57 125.496 528.306 125.576 528.002 125.576C527.698 125.576 527.434 125.496 527.21 125.336C526.986 125.176 526.778 124.912 526.586 124.544L522.482 116.936V126.704C522.482 127.136 522.354 127.488 522.098 127.76C521.858 128.016 521.53 128.144 521.114 128.144C520.698 128.144 520.37 128.016 520.13 127.76C519.89 127.504 519.77 127.152 519.77 126.704V112.496C519.77 112.032 519.898 111.664 520.154 111.392C520.426 111.104 520.786 110.96 521.234 110.96C521.858 110.96 522.346 111.304 522.698 111.992L528.026 122.144L533.33 111.992C533.682 111.304 534.154 110.96 534.746 110.96Z" fill="black"/>
<g filter="url(#filter1_di)">
<rect x="326" y="137" width="93" height="234" rx="22" fill="#DA6E6E"/>
<rect x="326.5" y="137.5" width="92" height="233" rx="21.5" stroke="#686868"/>
</g>
<g filter="url(#filter2_di)">
<rect x="46" y="137" width="92" height="234" rx="22" fill="#5D94E7"/>
<rect x="46.5" y="137.5" width="91" height="233" rx="21.5" stroke="#686868"/>
</g>
<g filter="url(#filter3_di)">
<rect x="467" y="137" width="92" height="234" rx="22" fill="#5D94E7"/>
<rect x="467.5" y="137.5" width="91" height="233" rx="21.5" stroke="#686868"/>
</g>
<path d="M229.447 377L210.937 407.196L223.034 404.226L229.083 402.74C229.27 411.65 230.334 451.198 266.764 474.941L281.701 450.572C272.367 452.564 251.196 445.192 241.179 399.77L247.228 398.285L259.325 395.314L229.447 377Z" fill="#7BA371" stroke="black"/>
<path d="M290.096 442C289.792 442 289.544 441.912 289.352 441.736C289.176 441.56 289.088 441.328 289.088 441.04V426.04C289.088 425.752 289.176 425.52 289.352 425.344C289.544 425.168 289.792 425.08 290.096 425.08H299.072C299.36 425.08 299.584 425.152 299.744 425.296C299.904 425.44 299.984 425.64 299.984 425.896C299.984 426.152 299.904 426.352 299.744 426.496C299.584 426.64 299.36 426.712 299.072 426.712H291.032V432.592H298.592C298.88 432.592 299.104 432.664 299.264 432.808C299.424 432.952 299.504 433.152 299.504 433.408C299.504 433.664 299.424 433.864 299.264 434.008C299.104 434.152 298.88 434.224 298.592 434.224H291.032V440.368H299.072C299.36 440.368 299.584 440.44 299.744 440.584C299.904 440.712 299.984 440.912 299.984 441.184C299.984 441.44 299.904 441.64 299.744 441.784C299.584 441.928 299.36 442 299.072 442H290.096ZM306.705 442.168C305.969 442.168 305.265 442.08 304.593 441.904C303.937 441.728 303.353 441.48 302.841 441.16C302.553 440.968 302.345 440.792 302.217 440.632C302.105 440.456 302.049 440.248 302.049 440.008C302.049 439.8 302.105 439.632 302.217 439.504C302.345 439.36 302.505 439.288 302.697 439.288C302.889 439.288 303.169 439.408 303.537 439.648C304.017 439.936 304.489 440.168 304.953 440.344C305.433 440.504 306.025 440.584 306.729 440.584C307.593 440.584 308.265 440.432 308.745 440.128C309.225 439.824 309.465 439.384 309.465 438.808C309.465 438.456 309.377 438.176 309.201 437.968C309.025 437.744 308.721 437.552 308.289 437.392C307.857 437.216 307.225 437.04 306.393 436.864C304.985 436.56 303.977 436.152 303.369 435.64C302.761 435.128 302.457 434.432 302.457 433.552C302.457 432.864 302.649 432.256 303.033 431.728C303.417 431.2 303.945 430.784 304.617 430.48C305.305 430.176 306.081 430.024 306.945 430.024C307.569 430.024 308.169 430.112 308.745 430.288C309.337 430.448 309.857 430.68 310.305 430.984C310.849 431.368 311.121 431.768 311.121 432.184C311.121 432.392 311.057 432.568 310.929 432.712C310.801 432.856 310.649 432.928 310.473 432.928C310.281 432.928 309.993 432.792 309.609 432.52C309.161 432.232 308.737 432.008 308.337 431.848C307.937 431.688 307.441 431.608 306.849 431.608C306.097 431.608 305.489 431.776 305.025 432.112C304.577 432.448 304.353 432.896 304.353 433.456C304.353 433.808 304.433 434.096 304.593 434.32C304.769 434.528 305.049 434.72 305.433 434.896C305.833 435.056 306.401 435.216 307.137 435.376C308.225 435.616 309.065 435.88 309.657 436.168C310.265 436.456 310.697 436.808 310.953 437.224C311.209 437.64 311.337 438.168 311.337 438.808C311.337 439.816 310.913 440.632 310.065 441.256C309.217 441.864 308.097 442.168 306.705 442.168ZM319.583 440.584C320.143 440.632 320.423 440.888 320.423 441.352C320.423 441.624 320.319 441.832 320.111 441.976C319.919 442.104 319.623 442.152 319.223 442.12L318.575 442.072C317.295 441.976 316.351 441.592 315.743 440.92C315.135 440.248 314.831 439.232 314.831 437.872V431.848H313.223C312.951 431.848 312.735 431.784 312.575 431.656C312.431 431.512 312.359 431.328 312.359 431.104C312.359 430.864 312.431 430.672 312.575 430.528C312.735 430.384 312.951 430.312 313.223 430.312H314.831V427.6C314.831 427.296 314.919 427.064 315.095 426.904C315.271 426.728 315.511 426.64 315.815 426.64C316.103 426.64 316.335 426.728 316.511 426.904C316.687 427.064 316.775 427.296 316.775 427.6V430.312H319.439C319.695 430.312 319.895 430.384 320.039 430.528C320.199 430.672 320.279 430.864 320.279 431.104C320.279 431.328 320.199 431.512 320.039 431.656C319.895 431.784 319.695 431.848 319.439 431.848H316.775V437.968C316.775 438.848 316.951 439.488 317.303 439.888C317.671 440.272 318.215 440.488 318.935 440.536L319.583 440.584ZM331.387 439.288C331.563 439.288 331.715 439.36 331.843 439.504C331.971 439.648 332.035 439.832 332.035 440.056C332.035 440.456 331.755 440.824 331.195 441.16C330.619 441.496 330.011 441.752 329.371 441.928C328.731 442.088 328.107 442.168 327.499 442.168C325.691 442.168 324.259 441.632 323.203 440.56C322.163 439.488 321.643 438.008 321.643 436.12C321.643 434.92 321.875 433.864 322.339 432.952C322.803 432.024 323.451 431.304 324.283 430.792C325.131 430.28 326.091 430.024 327.163 430.024C328.683 430.024 329.891 430.52 330.787 431.512C331.683 432.504 332.131 433.848 332.131 435.544C332.131 435.864 332.067 436.096 331.939 436.24C331.811 436.384 331.603 436.456 331.315 436.456H323.587C323.731 439.208 325.035 440.584 327.499 440.584C328.123 440.584 328.659 440.504 329.107 440.344C329.555 440.168 330.035 439.936 330.547 439.648C330.963 439.408 331.243 439.288 331.387 439.288ZM327.187 431.536C326.163 431.536 325.339 431.856 324.715 432.496C324.107 433.136 323.747 434.04 323.635 435.208H330.427C330.395 434.024 330.099 433.12 329.539 432.496C328.979 431.856 328.195 431.536 327.187 431.536ZM345.959 430.024C348.887 430.024 350.351 431.56 350.351 434.632V441.16C350.351 441.448 350.263 441.68 350.087 441.856C349.927 442.032 349.703 442.12 349.415 442.12C349.127 442.12 348.895 442.032 348.719 441.856C348.543 441.68 348.455 441.448 348.455 441.16V440.008C348.151 440.696 347.687 441.232 347.063 441.616C346.439 441.984 345.719 442.168 344.903 442.168C344.151 442.168 343.455 442.016 342.815 441.712C342.191 441.408 341.695 440.984 341.327 440.44C340.959 439.896 340.775 439.296 340.775 438.64C340.775 437.76 340.999 437.08 341.447 436.6C341.895 436.104 342.631 435.752 343.655 435.544C344.679 435.32 346.103 435.208 347.927 435.208H348.455V434.416C348.455 433.456 348.255 432.752 347.855 432.304C347.471 431.856 346.839 431.632 345.959 431.632C344.871 431.632 343.767 431.928 342.647 432.52C342.215 432.792 341.911 432.928 341.735 432.928C341.543 432.928 341.383 432.856 341.255 432.712C341.127 432.568 341.063 432.384 341.063 432.16C341.063 431.936 341.127 431.744 341.255 431.584C341.399 431.408 341.623 431.232 341.927 431.056C342.487 430.736 343.119 430.488 343.823 430.312C344.543 430.12 345.255 430.024 345.959 430.024ZM345.167 440.632C346.127 440.632 346.911 440.312 347.519 439.672C348.143 439.016 348.455 438.176 348.455 437.152V436.456H348.023C346.615 436.456 345.543 436.52 344.807 436.648C344.071 436.76 343.543 436.96 343.223 437.248C342.919 437.52 342.767 437.928 342.767 438.472C342.767 439.096 342.991 439.616 343.439 440.032C343.903 440.432 344.479 440.632 345.167 440.632ZM358.733 442.168C357.645 442.168 356.677 441.92 355.829 441.424C354.997 440.928 354.349 440.224 353.885 439.312C353.437 438.4 353.213 437.344 353.213 436.144C353.213 434.944 353.445 433.88 353.909 432.952C354.389 432.024 355.053 431.304 355.901 430.792C356.749 430.28 357.725 430.024 358.829 430.024C359.437 430.024 360.037 430.112 360.629 430.288C361.237 430.448 361.765 430.688 362.213 431.008C362.501 431.2 362.701 431.392 362.813 431.584C362.941 431.76 363.005 431.96 363.005 432.184C363.005 432.408 362.941 432.592 362.813 432.736C362.701 432.88 362.549 432.952 362.357 432.952C362.245 432.952 362.125 432.92 361.997 432.856C361.869 432.792 361.757 432.728 361.661 432.664C361.581 432.6 361.525 432.56 361.493 432.544C361.077 432.272 360.677 432.056 360.293 431.896C359.925 431.736 359.469 431.656 358.925 431.656C357.757 431.656 356.845 432.056 356.189 432.856C355.549 433.64 355.229 434.736 355.229 436.144C355.229 437.552 355.549 438.64 356.189 439.408C356.845 440.176 357.757 440.56 358.925 440.56C359.469 440.56 359.933 440.48 360.317 440.32C360.717 440.16 361.117 439.944 361.517 439.672C361.693 439.56 361.861 439.464 362.021 439.384C362.181 439.304 362.317 439.264 362.429 439.264C362.605 439.264 362.749 439.336 362.861 439.48C362.989 439.624 363.053 439.808 363.053 440.032C363.053 440.24 362.997 440.432 362.885 440.608C362.773 440.768 362.565 440.952 362.261 441.16C361.813 441.464 361.269 441.712 360.629 441.904C360.005 442.08 359.373 442.168 358.733 442.168ZM370.242 442.168C369.138 442.168 368.162 441.92 367.314 441.424C366.482 440.928 365.834 440.224 365.37 439.312C364.922 438.384 364.698 437.312 364.698 436.096C364.698 434.88 364.922 433.816 365.37 432.904C365.834 431.976 366.482 431.264 367.314 430.768C368.162 430.272 369.138 430.024 370.242 430.024C371.346 430.024 372.322 430.272 373.17 430.768C374.018 431.264 374.666 431.976 375.114 432.904C375.578 433.816 375.81 434.88 375.81 436.096C375.81 437.312 375.578 438.384 375.114 439.312C374.666 440.224 374.018 440.928 373.17 441.424C372.322 441.92 371.346 442.168 370.242 442.168ZM370.242 440.56C371.394 440.56 372.274 440.184 372.882 439.432C373.506 438.664 373.818 437.552 373.818 436.096C373.818 434.672 373.506 433.576 372.882 432.808C372.258 432.024 371.378 431.632 370.242 431.632C369.106 431.632 368.226 432.024 367.602 432.808C366.978 433.576 366.666 434.672 366.666 436.096C366.666 437.536 366.97 438.64 367.578 439.408C368.202 440.176 369.09 440.56 370.242 440.56ZM384.49 430.072C385.162 430.024 385.498 430.296 385.498 430.888C385.498 431.144 385.426 431.352 385.282 431.512C385.138 431.656 384.89 431.744 384.538 431.776L383.818 431.848C382.746 431.944 381.946 432.328 381.418 433C380.906 433.656 380.65 434.432 380.65 435.328V441.16C380.65 441.48 380.562 441.72 380.386 441.88C380.21 442.04 379.978 442.12 379.69 442.12C379.402 442.12 379.162 442.04 378.97 441.88C378.794 441.704 378.706 441.464 378.706 441.16V431.032C378.706 430.728 378.802 430.496 378.994 430.336C379.186 430.16 379.418 430.072 379.69 430.072C379.946 430.072 380.162 430.16 380.338 430.336C380.514 430.496 380.602 430.72 380.602 431.008V432.352C380.938 431.648 381.41 431.112 382.018 430.744C382.642 430.376 383.354 430.16 384.154 430.096L384.49 430.072ZM396.317 424.96C396.621 424.96 396.861 425.048 397.037 425.224C397.213 425.4 397.301 425.624 397.301 425.896V441.16C397.301 441.448 397.213 441.68 397.037 441.856C396.861 442.032 396.621 442.12 396.317 442.12C396.013 442.12 395.773 442.032 395.597 441.856C395.437 441.68 395.357 441.448 395.357 441.16V439.864C395.005 440.6 394.485 441.168 393.797 441.568C393.125 441.968 392.333 442.168 391.421 442.168C390.397 442.168 389.493 441.912 388.709 441.4C387.925 440.888 387.317 440.176 386.885 439.264C386.453 438.336 386.237 437.264 386.237 436.048C386.237 434.848 386.453 433.792 386.885 432.88C387.317 431.968 387.925 431.264 388.709 430.768C389.493 430.272 390.397 430.024 391.421 430.024C392.333 430.024 393.125 430.224 393.797 430.624C394.485 431.024 395.005 431.592 395.357 432.328V425.896C395.357 425.608 395.437 425.384 395.597 425.224C395.773 425.048 396.013 424.96 396.317 424.96ZM391.805 440.56C392.941 440.56 393.813 440.176 394.421 439.408C395.045 438.624 395.357 437.52 395.357 436.096C395.357 434.672 395.045 433.576 394.421 432.808C393.813 432.04 392.941 431.656 391.805 431.656C390.669 431.656 389.781 432.04 389.141 432.808C388.517 433.576 388.205 434.656 388.205 436.048C388.205 437.472 388.517 438.584 389.141 439.384C389.781 440.168 390.669 440.56 391.805 440.56ZM409.95 439.288C410.126 439.288 410.278 439.36 410.406 439.504C410.534 439.648 410.598 439.832 410.598 440.056C410.598 440.456 410.318 440.824 409.758 441.16C409.182 441.496 408.574 441.752 407.934 441.928C407.294 442.088 406.67 442.168 406.062 442.168C404.254 442.168 402.822 441.632 401.766 440.56C400.726 439.488 400.206 438.008 400.206 436.12C400.206 434.92 400.438 433.864 400.902 432.952C401.366 432.024 402.014 431.304 402.846 430.792C403.694 430.28 404.654 430.024 405.726 430.024C407.246 430.024 408.454 430.52 409.35 431.512C410.246 432.504 410.694 433.848 410.694 435.544C410.694 435.864 410.63 436.096 410.502 436.24C410.374 436.384 410.166 436.456 409.878 436.456H402.15C402.294 439.208 403.598 440.584 406.062 440.584C406.686 440.584 407.222 440.504 407.67 440.344C408.118 440.168 408.598 439.936 409.11 439.648C409.526 439.408 409.806 439.288 409.95 439.288ZM405.75 431.536C404.726 431.536 403.902 431.856 403.278 432.496C402.67 433.136 402.31 434.04 402.198 435.208H408.99C408.958 434.024 408.662 433.12 408.102 432.496C407.542 431.856 406.758 431.536 405.75 431.536ZM425.145 440.584C425.705 440.632 425.985 440.888 425.985 441.352C425.985 441.624 425.881 441.832 425.673 441.976C425.481 442.104 425.185 442.152 424.785 442.12L424.137 442.072C422.857 441.976 421.913 441.592 421.305 440.92C420.697 440.248 420.393 439.232 420.393 437.872V431.848H418.785C418.513 431.848 418.297 431.784 418.137 431.656C417.993 431.512 417.921 431.328 417.921 431.104C417.921 430.864 417.993 430.672 418.137 430.528C418.297 430.384 418.513 430.312 418.785 430.312H420.393V427.6C420.393 427.296 420.481 427.064 420.657 426.904C420.833 426.728 421.073 426.64 421.377 426.64C421.665 426.64 421.897 426.728 422.073 426.904C422.249 427.064 422.337 427.296 422.337 427.6V430.312H425.001C425.257 430.312 425.457 430.384 425.601 430.528C425.761 430.672 425.841 430.864 425.841 431.104C425.841 431.328 425.761 431.512 425.601 431.656C425.457 431.784 425.257 431.848 425.001 431.848H422.337V437.968C422.337 438.848 422.513 439.488 422.865 439.888C423.233 440.272 423.777 440.488 424.497 440.536L425.145 440.584ZM428.886 442.12C428.598 442.12 428.358 442.04 428.166 441.88C427.99 441.704 427.902 441.464 427.902 441.16V431.032C427.902 430.728 427.99 430.496 428.166 430.336C428.358 430.16 428.598 430.072 428.886 430.072C429.174 430.072 429.406 430.16 429.582 430.336C429.758 430.496 429.846 430.728 429.846 431.032V441.16C429.846 441.48 429.758 441.72 429.582 441.88C429.406 442.04 429.174 442.12 428.886 442.12ZM428.886 427.552C428.502 427.552 428.19 427.44 427.95 427.216C427.71 426.992 427.59 426.696 427.59 426.328C427.59 425.976 427.71 425.688 427.95 425.464C428.19 425.24 428.502 425.128 428.886 425.128C429.27 425.128 429.582 425.24 429.822 425.464C430.062 425.688 430.182 425.976 430.182 426.328C430.182 426.696 430.062 426.992 429.822 427.216C429.582 427.44 429.27 427.552 428.886 427.552ZM442.528 439.288C442.704 439.288 442.856 439.36 442.984 439.504C443.112 439.648 443.176 439.832 443.176 440.056C443.176 440.456 442.896 440.824 442.336 441.16C441.76 441.496 441.152 441.752 440.512 441.928C439.872 442.088 439.248 442.168 438.64 442.168C436.832 442.168 435.4 441.632 434.344 440.56C433.304 439.488 432.784 438.008 432.784 436.12C432.784 434.92 433.016 433.864 433.48 432.952C433.944 432.024 434.592 431.304 435.424 430.792C436.272 430.28 437.232 430.024 438.304 430.024C439.824 430.024 441.032 430.52 441.928 431.512C442.824 432.504 443.272 433.848 443.272 435.544C443.272 435.864 443.208 436.096 443.08 436.24C442.952 436.384 442.744 436.456 442.456 436.456H434.728C434.872 439.208 436.176 440.584 438.64 440.584C439.264 440.584 439.8 440.504 440.248 440.344C440.696 440.168 441.176 439.936 441.688 439.648C442.104 439.408 442.384 439.288 442.528 439.288ZM438.328 431.536C437.304 431.536 436.48 431.856 435.856 432.496C435.248 433.136 434.888 434.04 434.776 435.208H441.568C441.536 434.024 441.24 433.12 440.68 432.496C440.12 431.856 439.336 431.536 438.328 431.536ZM452.016 430.024C454.816 430.024 456.216 431.568 456.216 434.656V441.16C456.216 441.464 456.128 441.704 455.952 441.88C455.792 442.04 455.56 442.12 455.256 442.12C454.952 442.12 454.712 442.04 454.536 441.88C454.36 441.704 454.272 441.464 454.272 441.16V434.776C454.272 433.688 454.056 432.896 453.624 432.4C453.208 431.904 452.536 431.656 451.608 431.656C450.536 431.656 449.68 431.984 449.04 432.64C448.4 433.296 448.08 434.184 448.08 435.304V441.16C448.08 441.464 447.992 441.704 447.816 441.88C447.656 442.04 447.424 442.12 447.12 442.12C446.816 442.12 446.576 442.04 446.4 441.88C446.224 441.704 446.136 441.464 446.136 441.16V431.032C446.136 430.744 446.224 430.512 446.4 430.336C446.576 430.16 446.816 430.072 447.12 430.072C447.408 430.072 447.632 430.16 447.792 430.336C447.968 430.512 448.056 430.736 448.056 431.008V432.232C448.44 431.512 448.976 430.968 449.664 430.6C450.352 430.216 451.136 430.024 452.016 430.024ZM468.825 439.288C469.001 439.288 469.153 439.36 469.281 439.504C469.409 439.648 469.473 439.832 469.473 440.056C469.473 440.456 469.193 440.824 468.633 441.16C468.057 441.496 467.449 441.752 466.809 441.928C466.169 442.088 465.545 442.168 464.937 442.168C463.129 442.168 461.697 441.632 460.641 440.56C459.601 439.488 459.081 438.008 459.081 436.12C459.081 434.92 459.313 433.864 459.777 432.952C460.241 432.024 460.889 431.304 461.721 430.792C462.569 430.28 463.529 430.024 464.601 430.024C466.121 430.024 467.329 430.52 468.225 431.512C469.121 432.504 469.569 433.848 469.569 435.544C469.569 435.864 469.505 436.096 469.377 436.24C469.249 436.384 469.041 436.456 468.753 436.456H461.025C461.169 439.208 462.473 440.584 464.937 440.584C465.561 440.584 466.097 440.504 466.545 440.344C466.993 440.168 467.473 439.936 467.985 439.648C468.401 439.408 468.681 439.288 468.825 439.288ZM464.625 431.536C463.601 431.536 462.777 431.856 462.153 432.496C461.545 433.136 461.185 434.04 461.073 435.208H467.865C467.833 434.024 467.537 433.12 466.977 432.496C466.417 431.856 465.633 431.536 464.625 431.536ZM479.604 442.12C479.316 442.12 479.076 442.04 478.884 441.88C478.708 441.704 478.62 441.464 478.62 441.16V425.92C478.62 425.616 478.708 425.384 478.884 425.224C479.076 425.048 479.316 424.96 479.604 424.96C479.876 424.96 480.1 425.048 480.276 425.224C480.468 425.384 480.564 425.616 480.564 425.92V441.16C480.564 441.464 480.468 441.704 480.276 441.88C480.1 442.04 479.876 442.12 479.604 442.12ZM488.974 430.024C491.902 430.024 493.366 431.56 493.366 434.632V441.16C493.366 441.448 493.278 441.68 493.102 441.856C492.942 442.032 492.718 442.12 492.43 442.12C492.142 442.12 491.91 442.032 491.734 441.856C491.558 441.68 491.47 441.448 491.47 441.16V440.008C491.166 440.696 490.702 441.232 490.078 441.616C489.454 441.984 488.734 442.168 487.918 442.168C487.166 442.168 486.47 442.016 485.83 441.712C485.206 441.408 484.71 440.984 484.342 440.44C483.974 439.896 483.79 439.296 483.79 438.64C483.79 437.76 484.014 437.08 484.462 436.6C484.91 436.104 485.646 435.752 486.67 435.544C487.694 435.32 489.118 435.208 490.942 435.208H491.47V434.416C491.47 433.456 491.27 432.752 490.87 432.304C490.486 431.856 489.854 431.632 488.974 431.632C487.886 431.632 486.782 431.928 485.662 432.52C485.23 432.792 484.926 432.928 484.75 432.928C484.558 432.928 484.398 432.856 484.27 432.712C484.142 432.568 484.078 432.384 484.078 432.16C484.078 431.936 484.142 431.744 484.27 431.584C484.414 431.408 484.638 431.232 484.942 431.056C485.502 430.736 486.134 430.488 486.838 430.312C487.558 430.12 488.27 430.024 488.974 430.024ZM488.182 440.632C489.142 440.632 489.926 440.312 490.534 439.672C491.158 439.016 491.47 438.176 491.47 437.152V436.456H491.038C489.63 436.456 488.558 436.52 487.822 436.648C487.086 436.76 486.558 436.96 486.238 437.248C485.934 437.52 485.782 437.928 485.782 438.472C485.782 439.096 486.006 439.616 486.454 440.032C486.918 440.432 487.494 440.632 488.182 440.632ZM508.273 426.616C507.425 426.68 506.785 426.952 506.353 427.432C505.921 427.896 505.705 428.6 505.705 429.544V430.312H508.368C508.641 430.312 508.849 430.384 508.993 430.528C509.137 430.672 509.209 430.864 509.209 431.104C509.209 431.344 509.137 431.528 508.993 431.656C508.849 431.784 508.641 431.848 508.368 431.848H505.705V441.16C505.705 441.464 505.609 441.704 505.417 441.88C505.241 442.04 505.017 442.12 504.745 442.12C504.457 442.12 504.217 442.04 504.025 441.88C503.849 441.704 503.761 441.464 503.761 441.16V431.848H502.153C501.881 431.848 501.665 431.784 501.505 431.656C501.361 431.512 501.288 431.328 501.288 431.104C501.288 430.864 501.361 430.672 501.505 430.528C501.665 430.384 501.881 430.312 502.153 430.312H503.761V429.88C503.761 428.44 504.121 427.312 504.84 426.496C505.561 425.664 506.593 425.2 507.937 425.104L508.561 425.056C508.977 425.024 509.273 425.064 509.449 425.176C509.641 425.288 509.737 425.488 509.737 425.776C509.737 426.24 509.457 426.504 508.897 426.568L508.273 426.616ZM519.868 430.072C520.172 430.072 520.404 430.16 520.564 430.336C520.74 430.512 520.828 430.744 520.828 431.032V441.184C520.828 441.456 520.74 441.68 520.564 441.856C520.404 442.032 520.172 442.12 519.868 442.12C519.58 442.12 519.348 442.04 519.172 441.88C519.012 441.704 518.932 441.48 518.932 441.208V440.008C518.564 440.712 518.044 441.248 517.372 441.616C516.716 441.984 515.972 442.168 515.14 442.168C513.748 442.168 512.7 441.784 511.996 441.016C511.292 440.232 510.94 439.08 510.94 437.56V431.032C510.94 430.744 511.028 430.512 511.204 430.336C511.38 430.16 511.62 430.072 511.924 430.072C512.228 430.072 512.46 430.16 512.62 430.336C512.796 430.512 512.884 430.744 512.884 431.032V437.512C512.884 438.552 513.092 439.32 513.508 439.816C513.924 440.296 514.58 440.536 515.476 440.536C516.5 440.536 517.324 440.208 517.948 439.552C518.572 438.88 518.884 438 518.884 436.912V431.032C518.884 430.744 518.972 430.512 519.148 430.336C519.324 430.16 519.564 430.072 519.868 430.072ZM530.321 430.024C533.121 430.024 534.521 431.568 534.521 434.656V441.16C534.521 441.464 534.433 441.704 534.257 441.88C534.097 442.04 533.865 442.12 533.561 442.12C533.257 442.12 533.017 442.04 532.841 441.88C532.665 441.704 532.577 441.464 532.577 441.16V434.776C532.577 433.688 532.361 432.896 531.929 432.4C531.513 431.904 530.841 431.656 529.913 431.656C528.841 431.656 527.985 431.984 527.345 432.64C526.705 433.296 526.385 434.184 526.385 435.304V441.16C526.385 441.464 526.297 441.704 526.121 441.88C525.961 442.04 525.729 442.12 525.425 442.12C525.121 442.12 524.881 442.04 524.705 441.88C524.529 441.704 524.441 441.464 524.441 441.16V431.032C524.441 430.744 524.529 430.512 524.705 430.336C524.881 430.16 525.121 430.072 525.425 430.072C525.713 430.072 525.937 430.16 526.097 430.336C526.273 430.512 526.361 430.736 526.361 431.008V432.232C526.745 431.512 527.281 430.968 527.969 430.6C528.657 430.216 529.441 430.024 530.321 430.024ZM542.905 442.168C541.817 442.168 540.849 441.92 540.001 441.424C539.169 440.928 538.521 440.224 538.057 439.312C537.609 438.4 537.385 437.344 537.385 436.144C537.385 434.944 537.617 433.88 538.081 432.952C538.561 432.024 539.225 431.304 540.073 430.792C540.921 430.28 541.897 430.024 543.001 430.024C543.609 430.024 544.209 430.112 544.801 430.288C545.409 430.448 545.937 430.688 546.385 431.008C546.673 431.2 546.873 431.392 546.985 431.584C547.113 431.76 547.177 431.96 547.177 432.184C547.177 432.408 547.113 432.592 546.985 432.736C546.873 432.88 546.721 432.952 546.529 432.952C546.417 432.952 546.297 432.92 546.169 432.856C546.041 432.792 545.929 432.728 545.833 432.664C545.753 432.6 545.697 432.56 545.665 432.544C545.249 432.272 544.849 432.056 544.465 431.896C544.097 431.736 543.641 431.656 543.097 431.656C541.929 431.656 541.017 432.056 540.361 432.856C539.721 433.64 539.401 434.736 539.401 436.144C539.401 437.552 539.721 438.64 540.361 439.408C541.017 440.176 541.929 440.56 543.097 440.56C543.641 440.56 544.105 440.48 544.489 440.32C544.889 440.16 545.289 439.944 545.689 439.672C545.865 439.56 546.033 439.464 546.193 439.384C546.353 439.304 546.489 439.264 546.601 439.264C546.777 439.264 546.921 439.336 547.033 439.48C547.161 439.624 547.225 439.808 547.225 440.032C547.225 440.24 547.169 440.432 547.057 440.608C546.945 440.768 546.737 440.952 546.433 441.16C545.985 441.464 545.441 441.712 544.801 441.904C544.177 442.08 543.545 442.168 542.905 442.168ZM550.55 442.12C550.262 442.12 550.022 442.04 549.83 441.88C549.654 441.704 549.566 441.464 549.566 441.16V431.032C549.566 430.728 549.654 430.496 549.83 430.336C550.022 430.16 550.262 430.072 550.55 430.072C550.838 430.072 551.07 430.16 551.246 430.336C551.422 430.496 551.51 430.728 551.51 431.032V441.16C551.51 441.48 551.422 441.72 551.246 441.88C551.07 442.04 550.838 442.12 550.55 442.12ZM550.55 427.552C550.166 427.552 549.854 427.44 549.614 427.216C549.374 426.992 549.254 426.696 549.254 426.328C549.254 425.976 549.374 425.688 549.614 425.464C549.854 425.24 550.166 425.128 550.55 425.128C550.934 425.128 551.246 425.24 551.486 425.464C551.726 425.688 551.846 425.976 551.846 426.328C551.846 426.696 551.726 426.992 551.486 427.216C551.246 427.44 550.934 427.552 550.55 427.552ZM559.992 442.168C558.888 442.168 557.912 441.92 557.064 441.424C556.232 440.928 555.584 440.224 555.12 439.312C554.672 438.384 554.448 437.312 554.448 436.096C554.448 434.88 554.672 433.816 555.12 432.904C555.584 431.976 556.232 431.264 557.064 430.768C557.912 430.272 558.888 430.024 559.992 430.024C561.096 430.024 562.072 430.272 562.92 430.768C563.768 431.264 564.416 431.976 564.864 432.904C565.328 433.816 565.56 434.88 565.56 436.096C565.56 437.312 565.328 438.384 564.864 439.312C564.416 440.224 563.768 440.928 562.92 441.424C562.072 441.92 561.096 442.168 559.992 442.168ZM559.992 440.56C561.144 440.56 562.024 440.184 562.632 439.432C563.256 438.664 563.568 437.552 563.568 436.096C563.568 434.672 563.256 433.576 562.632 432.808C562.008 432.024 561.128 431.632 559.992 431.632C558.856 431.632 557.976 432.024 557.352 432.808C556.728 433.576 556.416 434.672 556.416 436.096C556.416 437.536 556.72 438.64 557.328 439.408C557.952 440.176 558.84 440.56 559.992 440.56ZM560.424 428.752C560.296 428.848 560.168 428.896 560.04 428.896C559.88 428.896 559.744 428.848 559.632 428.752C559.52 428.64 559.464 428.512 559.464 428.368C559.464 428.24 559.512 428.12 559.608 428.008L562.392 424.36C562.68 423.992 563.008 423.808 563.376 423.808C563.632 423.808 563.848 423.896 564.024 424.072C564.2 424.232 564.288 424.44 564.288 424.696C564.288 425.032 564.128 425.336 563.808 425.608L560.424 428.752ZM574.336 430.024C577.136 430.024 578.536 431.568 578.536 434.656V441.16C578.536 441.464 578.448 441.704 578.272 441.88C578.112 442.04 577.88 442.12 577.576 442.12C577.272 442.12 577.032 442.04 576.856 441.88C576.68 441.704 576.592 441.464 576.592 441.16V434.776C576.592 433.688 576.376 432.896 575.944 432.4C575.528 431.904 574.856 431.656 573.928 431.656C572.856 431.656 572 431.984 571.36 432.64C570.72 433.296 570.4 434.184 570.4 435.304V441.16C570.4 441.464 570.312 441.704 570.136 441.88C569.976 442.04 569.744 442.12 569.44 442.12C569.136 442.12 568.896 442.04 568.72 441.88C568.544 441.704 568.456 441.464 568.456 441.16V431.032C568.456 430.744 568.544 430.512 568.72 430.336C568.896 430.16 569.136 430.072 569.44 430.072C569.728 430.072 569.952 430.16 570.112 430.336C570.288 430.512 570.376 430.736 570.376 431.008V432.232C570.76 431.512 571.296 430.968 571.984 430.6C572.672 430.216 573.456 430.024 574.336 430.024ZM298.184 457.96C298.488 457.96 298.728 458.048 298.904 458.224C299.08 458.4 299.168 458.624 299.168 458.896V474.16C299.168 474.448 299.08 474.68 298.904 474.856C298.728 475.032 298.488 475.12 298.184 475.12C297.88 475.12 297.64 475.032 297.464 474.856C297.304 474.68 297.224 474.448 297.224 474.16V472.864C296.872 473.6 296.352 474.168 295.664 474.568C294.992 474.968 294.2 475.168 293.288 475.168C292.264 475.168 291.36 474.912 290.576 474.4C289.792 473.888 289.184 473.176 288.752 472.264C288.32 471.336 288.104 470.264 288.104 469.048C288.104 467.848 288.32 466.792 288.752 465.88C289.184 464.968 289.792 464.264 290.576 463.768C291.36 463.272 292.264 463.024 293.288 463.024C294.2 463.024 294.992 463.224 295.664 463.624C296.352 464.024 296.872 464.592 297.224 465.328V458.896C297.224 458.608 297.304 458.384 297.464 458.224C297.64 458.048 297.88 457.96 298.184 457.96ZM293.672 473.56C294.808 473.56 295.68 473.176 296.288 472.408C296.912 471.624 297.224 470.52 297.224 469.096C297.224 467.672 296.912 466.576 296.288 465.808C295.68 465.04 294.808 464.656 293.672 464.656C292.536 464.656 291.648 465.04 291.008 465.808C290.384 466.576 290.072 467.656 290.072 469.048C290.072 470.472 290.384 471.584 291.008 472.384C291.648 473.168 292.536 473.56 293.672 473.56ZM311.817 472.288C311.993 472.288 312.145 472.36 312.273 472.504C312.401 472.648 312.465 472.832 312.465 473.056C312.465 473.456 312.185 473.824 311.625 474.16C311.049 474.496 310.441 474.752 309.801 474.928C309.161 475.088 308.537 475.168 307.929 475.168C306.121 475.168 304.689 474.632 303.633 473.56C302.593 472.488 302.073 471.008 302.073 469.12C302.073 467.92 302.305 466.864 302.769 465.952C303.233 465.024 303.881 464.304 304.713 463.792C305.561 463.28 306.521 463.024 307.593 463.024C309.113 463.024 310.321 463.52 311.217 464.512C312.113 465.504 312.561 466.848 312.561 468.544C312.561 468.864 312.497 469.096 312.369 469.24C312.241 469.384 312.033 469.456 311.745 469.456H304.017C304.161 472.208 305.465 473.584 307.929 473.584C308.553 473.584 309.089 473.504 309.537 473.344C309.985 473.168 310.465 472.936 310.977 472.648C311.393 472.408 311.673 472.288 311.817 472.288ZM307.617 464.536C306.593 464.536 305.769 464.856 305.145 465.496C304.537 466.136 304.177 467.04 304.065 468.208H310.857C310.825 467.024 310.529 466.12 309.969 465.496C309.409 464.856 308.625 464.536 307.617 464.536ZM327.493 475.216C326.261 475.216 325.093 475.056 323.989 474.736C322.901 474.4 322.013 473.952 321.325 473.392C320.957 473.12 320.773 472.736 320.773 472.24C320.773 471.904 320.869 471.616 321.061 471.376C321.269 471.12 321.509 470.992 321.781 470.992C322.069 470.992 322.397 471.104 322.765 471.328C323.453 471.824 324.173 472.184 324.925 472.408C325.677 472.632 326.509 472.744 327.421 472.744C328.589 472.744 329.485 472.544 330.109 472.144C330.733 471.728 331.045 471.128 331.045 470.344C331.045 469.736 330.749 469.272 330.157 468.952C329.581 468.616 328.613 468.296 327.253 467.992C325.845 467.688 324.701 467.336 323.821 466.936C322.941 466.536 322.277 466.024 321.829 465.4C321.381 464.776 321.157 463.984 321.157 463.024C321.157 462.032 321.437 461.144 321.997 460.36C322.557 459.576 323.333 458.968 324.325 458.536C325.333 458.088 326.461 457.864 327.709 457.864C329.997 457.864 331.861 458.472 333.301 459.688C333.509 459.864 333.653 460.04 333.733 460.216C333.829 460.376 333.877 460.584 333.877 460.84C333.877 461.176 333.773 461.472 333.565 461.728C333.373 461.968 333.141 462.088 332.869 462.088C332.709 462.088 332.557 462.064 332.413 462.016C332.285 461.968 332.109 461.88 331.885 461.752C331.229 461.272 330.589 460.92 329.965 460.696C329.357 460.456 328.605 460.336 327.709 460.336C326.621 460.336 325.757 460.56 325.117 461.008C324.493 461.44 324.181 462.048 324.181 462.832C324.181 463.488 324.461 463.992 325.021 464.344C325.581 464.696 326.533 465.024 327.877 465.328C329.301 465.648 330.453 466.008 331.333 466.408C332.229 466.792 332.909 467.288 333.372 467.896C333.853 468.504 334.093 469.264 334.093 470.176C334.093 471.168 333.813 472.048 333.253 472.816C332.709 473.568 331.933 474.16 330.925 474.592C329.933 475.008 328.789 475.216 327.493 475.216ZM345.941 463.024C346.405 463.024 346.773 463.152 347.045 463.408C347.317 463.664 347.453 464.008 347.453 464.44V473.752C347.453 474.168 347.309 474.504 347.021 474.76C346.749 475.016 346.389 475.144 345.941 475.144C345.509 475.144 345.165 475.024 344.909 474.784C344.653 474.544 344.525 474.216 344.525 473.8V473.2C344.157 473.84 343.661 474.336 343.037 474.688C342.413 475.024 341.709 475.192 340.925 475.192C338.045 475.192 336.605 473.576 336.605 470.344V464.44C336.605 464.008 336.741 463.664 337.013 463.408C337.285 463.152 337.645 463.024 338.093 463.024C338.557 463.024 338.925 463.152 339.197 463.408C339.469 463.664 339.605 464.008 339.605 464.44V470.368C339.605 471.2 339.773 471.816 340.109 472.216C340.445 472.616 340.973 472.816 341.693 472.816C342.525 472.816 343.189 472.544 343.685 472C344.197 471.44 344.453 470.704 344.453 469.792V464.44C344.453 464.008 344.589 463.664 344.861 463.408C345.133 463.152 345.493 463.024 345.941 463.024ZM357.32 462.976C358.344 462.976 359.248 463.224 360.032 463.72C360.816 464.216 361.424 464.92 361.856 465.832C362.304 466.744 362.528 467.808 362.528 469.024C362.528 470.24 362.304 471.32 361.856 472.264C361.424 473.192 360.808 473.912 360.008 474.424C359.224 474.936 358.328 475.192 357.32 475.192C356.472 475.192 355.712 475.008 355.04 474.64C354.384 474.272 353.88 473.76 353.528 473.104V473.704C353.528 474.136 353.392 474.48 353.12 474.736C352.848 474.992 352.488 475.12 352.04 475.12C351.592 475.12 351.232 474.992 350.96 474.736C350.704 474.48 350.576 474.136 350.576 473.704V459.352C350.576 458.936 350.712 458.6 350.984 458.344C351.272 458.088 351.64 457.96 352.088 457.96C352.536 457.96 352.896 458.08 353.168 458.32C353.44 458.56 353.576 458.888 353.576 459.304V464.968C353.928 464.328 354.432 463.84 355.088 463.504C355.744 463.152 356.488 462.976 357.32 462.976ZM356.528 472.864C357.472 472.864 358.208 472.528 358.736 471.856C359.264 471.184 359.528 470.24 359.528 469.024C359.528 467.824 359.264 466.904 358.736 466.264C358.224 465.624 357.488 465.304 356.528 465.304C355.568 465.304 354.824 465.632 354.296 466.288C353.784 466.928 353.528 467.856 353.528 469.072C353.528 470.288 353.784 471.224 354.296 471.88C354.824 472.536 355.568 472.864 356.528 472.864ZM366.517 469.768C366.053 469.768 365.701 469.664 365.461 469.456C365.237 469.248 365.125 468.96 365.125 468.592C365.125 468.224 365.237 467.936 365.461 467.728C365.701 467.504 366.053 467.392 366.517 467.392H371.461C371.925 467.392 372.269 467.504 372.493 467.728C372.733 467.936 372.853 468.224 372.853 468.592C372.853 468.96 372.733 469.248 372.493 469.456C372.269 469.664 371.925 469.768 371.461 469.768H366.517ZM377.5 475C377.036 475 376.668 474.872 376.396 474.616C376.14 474.36 376.012 474 376.012 473.536V459.544C376.012 459.08 376.14 458.72 376.396 458.464C376.668 458.208 377.036 458.08 377.5 458.08H382.252C385.02 458.08 387.164 458.824 388.684 460.312C390.22 461.784 390.988 463.856 390.988 466.528C390.988 469.216 390.22 471.304 388.684 472.792C387.164 474.264 385.02 475 382.252 475H377.5ZM382.06 472.48C385.948 472.48 387.892 470.496 387.892 466.528C387.892 462.576 385.948 460.6 382.06 460.6H379.108V472.48H382.06ZM399.193 475.192C397.993 475.192 396.937 474.944 396.025 474.448C395.129 473.952 394.433 473.24 393.937 472.312C393.441 471.384 393.193 470.304 393.193 469.072C393.193 467.84 393.441 466.768 393.937 465.856C394.433 464.928 395.129 464.216 396.025 463.72C396.937 463.224 397.993 462.976 399.193 462.976C400.393 462.976 401.441 463.224 402.337 463.72C403.249 464.216 403.945 464.928 404.425 465.856C404.921 466.768 405.169 467.84 405.169 469.072C405.169 470.304 404.921 471.384 404.425 472.312C403.945 473.24 403.249 473.952 402.337 474.448C401.441 474.944 400.393 475.192 399.193 475.192ZM399.169 472.864C400.145 472.864 400.889 472.544 401.401 471.904C401.913 471.264 402.169 470.32 402.169 469.072C402.169 467.84 401.913 466.904 401.401 466.264C400.889 465.608 400.153 465.28 399.193 465.28C398.233 465.28 397.489 465.608 396.961 466.264C396.449 466.904 396.193 467.84 396.193 469.072C396.193 470.32 396.449 471.264 396.961 471.904C397.473 472.544 398.209 472.864 399.169 472.864ZM421.59 462.976C422.87 462.976 423.846 463.36 424.518 464.128C425.206 464.88 425.55 466.104 425.55 467.8V473.704C425.55 474.168 425.406 474.528 425.118 474.784C424.846 475.024 424.486 475.144 424.038 475.144C423.606 475.144 423.246 475.024 422.958 474.784C422.686 474.528 422.55 474.168 422.55 473.704V467.8C422.55 466.92 422.39 466.296 422.07 465.928C421.766 465.544 421.294 465.352 420.654 465.352C419.87 465.352 419.246 465.624 418.782 466.168C418.318 466.696 418.086 467.424 418.086 468.352V473.704C418.086 474.168 417.942 474.528 417.654 474.784C417.382 475.024 417.03 475.144 416.598 475.144C416.166 475.144 415.806 475.024 415.518 474.784C415.23 474.528 415.086 474.168 415.086 473.704V467.8C415.086 466.92 414.926 466.296 414.606 465.928C414.302 465.544 413.83 465.352 413.19 465.352C412.406 465.352 411.782 465.624 411.318 466.168C410.87 466.696 410.646 467.424 410.646 468.352V473.704C410.646 474.168 410.502 474.528 410.214 474.784C409.926 475.024 409.566 475.144 409.134 475.144C408.702 475.144 408.342 475.024 408.054 474.784C407.782 474.528 407.646 474.168 407.646 473.704V464.416C407.646 463.968 407.79 463.624 408.078 463.384C408.366 463.144 408.726 463.024 409.158 463.024C409.574 463.024 409.91 463.144 410.166 463.384C410.438 463.608 410.574 463.936 410.574 464.368V464.944C410.942 464.304 411.43 463.816 412.038 463.48C412.662 463.144 413.374 462.976 414.174 462.976C415.934 462.976 417.11 463.712 417.702 465.184C418.054 464.512 418.574 463.976 419.262 463.576C419.95 463.176 420.726 462.976 421.59 462.976ZM430.087 475.144C429.655 475.144 429.295 475.024 429.007 474.784C428.735 474.528 428.599 474.168 428.599 473.704V464.44C428.599 463.976 428.735 463.624 429.007 463.384C429.295 463.144 429.655 463.024 430.087 463.024C430.519 463.024 430.879 463.144 431.167 463.384C431.455 463.624 431.599 463.976 431.599 464.44V473.704C431.599 474.168 431.455 474.528 431.167 474.784C430.879 475.024 430.519 475.144 430.087 475.144ZM430.087 460.888C429.543 460.888 429.111 460.744 428.791 460.456C428.471 460.152 428.311 459.76 428.311 459.28C428.311 458.8 428.471 458.416 428.791 458.128C429.111 457.84 429.543 457.696 430.087 457.696C430.615 457.696 431.039 457.84 431.359 458.128C431.695 458.416 431.863 458.8 431.863 459.28C431.863 459.76 431.703 460.152 431.383 460.456C431.063 460.744 430.631 460.888 430.087 460.888ZM441.509 462.976C442.917 462.976 443.965 463.376 444.653 464.176C445.341 464.976 445.685 466.184 445.685 467.8V473.704C445.685 474.152 445.549 474.504 445.277 474.76C445.021 475.016 444.661 475.144 444.197 475.144C443.733 475.144 443.365 475.016 443.093 474.76C442.821 474.504 442.685 474.152 442.685 473.704V467.968C442.685 467.056 442.509 466.392 442.157 465.976C441.821 465.56 441.285 465.352 440.549 465.352C439.685 465.352 438.989 465.624 438.461 466.168C437.949 466.712 437.693 467.44 437.693 468.352V473.704C437.693 474.152 437.557 474.504 437.285 474.76C437.013 475.016 436.645 475.144 436.181 475.144C435.717 475.144 435.349 475.016 435.077 474.76C434.821 474.504 434.693 474.152 434.693 473.704V464.416C434.693 464 434.829 463.664 435.101 463.408C435.373 463.152 435.741 463.024 436.205 463.024C436.621 463.024 436.957 463.152 437.213 463.408C437.485 463.648 437.621 463.968 437.621 464.368V465.016C438.021 464.36 438.557 463.856 439.229 463.504C439.901 463.152 440.661 462.976 441.509 462.976ZM453.82 462.976C455.452 462.976 456.66 463.384 457.444 464.2C458.244 465 458.644 466.224 458.644 467.872V473.728C458.644 474.16 458.516 474.504 458.26 474.76C458.004 475 457.652 475.12 457.204 475.12C456.788 475.12 456.444 474.992 456.172 474.736C455.916 474.48 455.788 474.144 455.788 473.728V473.2C455.516 473.824 455.084 474.312 454.492 474.664C453.916 475.016 453.244 475.192 452.476 475.192C451.692 475.192 450.98 475.032 450.34 474.712C449.7 474.392 449.196 473.952 448.828 473.392C448.46 472.832 448.276 472.208 448.276 471.52C448.276 470.656 448.492 469.976 448.924 469.48C449.372 468.984 450.092 468.624 451.084 468.4C452.076 468.176 453.444 468.064 455.188 468.064H455.788V467.512C455.788 466.728 455.62 466.16 455.284 465.808C454.948 465.44 454.404 465.256 453.652 465.256C453.188 465.256 452.716 465.328 452.236 465.472C451.756 465.6 451.188 465.792 450.532 466.048C450.116 466.256 449.812 466.36 449.62 466.36C449.332 466.36 449.092 466.256 448.9 466.048C448.724 465.84 448.636 465.568 448.636 465.232C448.636 464.96 448.7 464.728 448.828 464.536C448.972 464.328 449.204 464.136 449.524 463.96C450.084 463.656 450.748 463.416 451.516 463.24C452.3 463.064 453.068 462.976 453.82 462.976ZM453.076 473.032C453.876 473.032 454.524 472.768 455.02 472.24C455.532 471.696 455.788 471 455.788 470.152V469.648H455.356C454.284 469.648 453.452 469.696 452.86 469.792C452.268 469.888 451.844 470.056 451.588 470.296C451.332 470.536 451.204 470.864 451.204 471.28C451.204 471.792 451.38 472.216 451.732 472.552C452.1 472.872 452.548 473.032 453.076 473.032ZM468.509 462.976C469.917 462.976 470.965 463.376 471.653 464.176C472.341 464.976 472.685 466.184 472.685 467.8V473.704C472.685 474.152 472.549 474.504 472.277 474.76C472.021 475.016 471.661 475.144 471.197 475.144C470.733 475.144 470.365 475.016 470.093 474.76C469.821 474.504 469.685 474.152 469.685 473.704V467.968C469.685 467.056 469.509 466.392 469.157 465.976C468.821 465.56 468.285 465.352 467.549 465.352C466.685 465.352 465.989 465.624 465.461 466.168C464.949 466.712 464.693 467.44 464.693 468.352V473.704C464.693 474.152 464.557 474.504 464.285 474.76C464.013 475.016 463.645 475.144 463.181 475.144C462.717 475.144 462.349 475.016 462.077 474.76C461.821 474.504 461.693 474.152 461.693 473.704V464.416C461.693 464 461.829 463.664 462.101 463.408C462.373 463.152 462.741 463.024 463.205 463.024C463.621 463.024 463.957 463.152 464.213 463.408C464.485 463.648 464.621 463.968 464.621 464.368V465.016C465.021 464.36 465.557 463.856 466.229 463.504C466.901 463.152 467.661 462.976 468.509 462.976ZM481.828 472.912C482.628 472.96 483.028 473.32 483.028 473.992C483.028 474.376 482.868 474.672 482.548 474.88C482.244 475.072 481.804 475.152 481.228 475.12L480.58 475.072C477.892 474.88 476.548 473.44 476.548 470.752V465.52H475.348C474.916 465.52 474.58 465.424 474.34 465.232C474.116 465.04 474.004 464.76 474.004 464.392C474.004 464.024 474.116 463.744 474.34 463.552C474.58 463.36 474.916 463.264 475.348 463.264H476.548V461.056C476.548 460.624 476.684 460.28 476.956 460.024C477.228 459.768 477.596 459.64 478.06 459.64C478.508 459.64 478.868 459.768 479.14 460.024C479.412 460.28 479.548 460.624 479.548 461.056V463.264H481.588C482.02 463.264 482.348 463.36 482.572 463.552C482.812 463.744 482.932 464.024 482.932 464.392C482.932 464.76 482.812 465.04 482.572 465.232C482.348 465.424 482.02 465.52 481.588 465.52H479.548V470.968C479.548 472.152 480.092 472.784 481.18 472.864L481.828 472.912ZM493.879 471.784C494.151 471.784 494.367 471.888 494.527 472.096C494.703 472.304 494.791 472.584 494.791 472.936C494.791 473.432 494.495 473.848 493.903 474.184C493.359 474.488 492.743 474.736 492.055 474.928C491.367 475.104 490.711 475.192 490.087 475.192C488.199 475.192 486.703 474.648 485.599 473.56C484.495 472.472 483.943 470.984 483.943 469.096C483.943 467.896 484.183 466.832 484.663 465.904C485.143 464.976 485.815 464.256 486.679 463.744C487.559 463.232 488.551 462.976 489.655 462.976C490.711 462.976 491.631 463.208 492.415 463.672C493.199 464.136 493.807 464.792 494.239 465.64C494.671 466.488 494.887 467.488 494.887 468.64C494.887 469.328 494.583 469.672 493.975 469.672H486.895C486.991 470.776 487.303 471.592 487.831 472.12C488.359 472.632 489.127 472.888 490.135 472.888C490.647 472.888 491.095 472.824 491.479 472.696C491.879 472.568 492.327 472.392 492.823 472.168C493.303 471.912 493.655 471.784 493.879 471.784ZM489.727 465.088C488.911 465.088 488.255 465.344 487.759 465.856C487.279 466.368 486.991 467.104 486.895 468.064H492.319C492.287 467.088 492.047 466.352 491.599 465.856C491.151 465.344 490.527 465.088 489.727 465.088Z" fill="black"/>
<path d="M22.176 50.12C21.872 50.12 21.624 50.032 21.432 49.856C21.256 49.664 21.168 49.416 21.168 49.112V34.76H16.008C15.72 34.76 15.496 34.688 15.336 34.544C15.176 34.4 15.096 34.192 15.096 33.92C15.096 33.648 15.176 33.44 15.336 33.296C15.496 33.152 15.72 33.08 16.008 33.08H28.32C28.608 33.08 28.832 33.152 28.992 33.296C29.152 33.44 29.232 33.648 29.232 33.92C29.232 34.192 29.152 34.4 28.992 34.544C28.832 34.688 28.608 34.76 28.32 34.76H23.16V49.112C23.16 49.416 23.072 49.664 22.896 49.856C22.72 50.032 22.48 50.12 22.176 50.12ZM34.1636 50.168C33.0596 50.168 32.0836 49.92 31.2356 49.424C30.4036 48.928 29.7556 48.224 29.2916 47.312C28.8436 46.384 28.6196 45.312 28.6196 44.096C28.6196 42.88 28.8436 41.816 29.2916 40.904C29.7556 39.976 30.4036 39.264 31.2356 38.768C32.0836 38.272 33.0596 38.024 34.1636 38.024C35.2676 38.024 36.2436 38.272 37.0916 38.768C37.9396 39.264 38.5876 39.976 39.0356 40.904C39.4996 41.816 39.7316 42.88 39.7316 44.096C39.7316 45.312 39.4996 46.384 39.0356 47.312C38.5876 48.224 37.9396 48.928 37.0916 49.424C36.2436 49.92 35.2676 50.168 34.1636 50.168ZM34.1636 48.56C35.3156 48.56 36.1956 48.184 36.8036 47.432C37.4276 46.664 37.7396 45.552 37.7396 44.096C37.7396 42.672 37.4276 41.576 36.8036 40.808C36.1796 40.024 35.2996 39.632 34.1636 39.632C33.0276 39.632 32.1476 40.024 31.5236 40.808C30.8996 41.576 30.5876 42.672 30.5876 44.096C30.5876 45.536 30.8916 46.64 31.4996 47.408C32.1236 48.176 33.0116 48.56 34.1636 48.56ZM48.5081 38.024C51.3081 38.024 52.7081 39.568 52.7081 42.656V49.16C52.7081 49.464 52.6201 49.704 52.4441 49.88C52.2841 50.04 52.0521 50.12 51.7481 50.12C51.4441 50.12 51.2041 50.04 51.0281 49.88C50.8521 49.704 50.7641 49.464 50.7641 49.16V42.776C50.7641 41.688 50.5481 40.896 50.1161 40.4C49.7001 39.904 49.0281 39.656 48.1001 39.656C47.0281 39.656 46.1721 39.984 45.5321 40.64C44.8921 41.296 44.5721 42.184 44.5721 43.304V49.16C44.5721 49.464 44.4841 49.704 44.3081 49.88C44.1481 50.04 43.9161 50.12 43.6121 50.12C43.3081 50.12 43.0681 50.04 42.8921 49.88C42.7161 49.704 42.6281 49.464 42.6281 49.16V39.032C42.6281 38.744 42.7161 38.512 42.8921 38.336C43.0681 38.16 43.3081 38.072 43.6121 38.072C43.9001 38.072 44.1241 38.16 44.2841 38.336C44.4601 38.512 44.5481 38.736 44.5481 39.008V40.232C44.9321 39.512 45.4681 38.968 46.1561 38.6C46.8441 38.216 47.6281 38.024 48.5081 38.024ZM61.0448 38.024C63.9728 38.024 65.4368 39.56 65.4368 42.632V49.16C65.4368 49.448 65.3488 49.68 65.1728 49.856C65.0128 50.032 64.7888 50.12 64.5008 50.12C64.2128 50.12 63.9808 50.032 63.8048 49.856C63.6288 49.68 63.5408 49.448 63.5408 49.16V48.008C63.2368 48.696 62.7728 49.232 62.1488 49.616C61.5248 49.984 60.8048 50.168 59.9888 50.168C59.2368 50.168 58.5408 50.016 57.9008 49.712C57.2768 49.408 56.7808 48.984 56.4128 48.44C56.0448 47.896 55.8608 47.296 55.8608 46.64C55.8608 45.76 56.0848 45.08 56.5328 44.6C56.9808 44.104 57.7168 43.752 58.7408 43.544C59.7648 43.32 61.1888 43.208 63.0128 43.208H63.5408V42.416C63.5408 41.456 63.3408 40.752 62.9408 40.304C62.5568 39.856 61.9248 39.632 61.0448 39.632C59.9568 39.632 58.8528 39.928 57.7328 40.52C57.3008 40.792 56.9968 40.928 56.8208 40.928C56.6288 40.928 56.4688 40.856 56.3408 40.712C56.2128 40.568 56.1488 40.384 56.1488 40.16C56.1488 39.936 56.2128 39.744 56.3408 39.584C56.4848 39.408 56.7088 39.232 57.0128 39.056C57.5728 38.736 58.2048 38.488 58.9088 38.312C59.6288 38.12 60.3408 38.024 61.0448 38.024ZM60.2528 48.632C61.2128 48.632 61.9968 48.312 62.6048 47.672C63.2288 47.016 63.5408 46.176 63.5408 45.152V44.456H63.1088C61.7008 44.456 60.6288 44.52 59.8928 44.648C59.1568 44.76 58.6288 44.96 58.3088 45.248C58.0048 45.52 57.8528 45.928 57.8528 46.472C57.8528 47.096 58.0768 47.616 58.5248 48.032C58.9888 48.432 59.5648 48.632 60.2528 48.632ZM69.9793 50.12C69.6913 50.12 69.4513 50.04 69.2593 49.88C69.0833 49.704 68.9953 49.464 68.9953 49.16V33.92C68.9953 33.616 69.0833 33.384 69.2593 33.224C69.4513 33.048 69.6913 32.96 69.9793 32.96C70.2513 32.96 70.4753 33.048 70.6513 33.224C70.8433 33.384 70.9393 33.616 70.9393 33.92V49.16C70.9393 49.464 70.8433 49.704 70.6513 49.88C70.4753 50.04 70.2513 50.12 69.9793 50.12ZM75.5574 50.12C75.2694 50.12 75.0294 50.04 74.8374 49.88C74.6614 49.704 74.5734 49.464 74.5734 49.16V39.032C74.5734 38.728 74.6614 38.496 74.8374 38.336C75.0294 38.16 75.2694 38.072 75.5574 38.072C75.8454 38.072 76.0774 38.16 76.2534 38.336C76.4294 38.496 76.5174 38.728 76.5174 39.032V49.16C76.5174 49.48 76.4294 49.72 76.2534 49.88C76.0774 50.04 75.8454 50.12 75.5574 50.12ZM75.5574 35.552C75.1734 35.552 74.8614 35.44 74.6214 35.216C74.3814 34.992 74.2614 34.696 74.2614 34.328C74.2614 33.976 74.3814 33.688 74.6214 33.464C74.8614 33.24 75.1734 33.128 75.5574 33.128C75.9414 33.128 76.2534 33.24 76.4934 33.464C76.7334 33.688 76.8534 33.976 76.8534 34.328C76.8534 34.696 76.7334 34.992 76.4934 35.216C76.2534 35.44 75.9414 35.552 75.5574 35.552ZM89.5356 32.96C89.8396 32.96 90.0796 33.048 90.2556 33.224C90.4316 33.4 90.5196 33.624 90.5196 33.896V49.16C90.5196 49.448 90.4316 49.68 90.2556 49.856C90.0796 50.032 89.8396 50.12 89.5356 50.12C89.2316 50.12 88.9916 50.032 88.8156 49.856C88.6556 49.68 88.5756 49.448 88.5756 49.16V47.864C88.2236 48.6 87.7036 49.168 87.0156 49.568C86.3436 49.968 85.5516 50.168 84.6396 50.168C83.6156 50.168 82.7116 49.912 81.9276 49.4C81.1436 48.888 80.5356 48.176 80.1036 47.264C79.6716 46.336 79.4556 45.264 79.4556 44.048C79.4556 42.848 79.6716 41.792 80.1036 40.88C80.5356 39.968 81.1436 39.264 81.9276 38.768C82.7116 38.272 83.6156 38.024 84.6396 38.024C85.5516 38.024 86.3436 38.224 87.0156 38.624C87.7036 39.024 88.2236 39.592 88.5756 40.328V33.896C88.5756 33.608 88.6556 33.384 88.8156 33.224C88.9916 33.048 89.2316 32.96 89.5356 32.96ZM85.0236 48.56C86.1596 48.56 87.0316 48.176 87.6396 47.408C88.2636 46.624 88.5756 45.52 88.5756 44.096C88.5756 42.672 88.2636 41.576 87.6396 40.808C87.0316 40.04 86.1596 39.656 85.0236 39.656C83.8876 39.656 82.9996 40.04 82.3596 40.808C81.7356 41.576 81.4236 42.656 81.4236 44.048C81.4236 45.472 81.7356 46.584 82.3596 47.384C82.9996 48.168 83.8876 48.56 85.0236 48.56ZM98.8963 38.024C101.824 38.024 103.288 39.56 103.288 42.632V49.16C103.288 49.448 103.2 49.68 103.024 49.856C102.864 50.032 102.64 50.12 102.352 50.12C102.064 50.12 101.832 50.032 101.656 49.856C101.48 49.68 101.392 49.448 101.392 49.16V48.008C101.088 48.696 100.624 49.232 100 49.616C99.3763 49.984 98.6563 50.168 97.8403 50.168C97.0883 50.168 96.3923 50.016 95.7523 49.712C95.1283 49.408 94.6323 48.984 94.2643 48.44C93.8963 47.896 93.7123 47.296 93.7123 46.64C93.7123 45.76 93.9363 45.08 94.3843 44.6C94.8323 44.104 95.5683 43.752 96.5923 43.544C97.6163 43.32 99.0403 43.208 100.864 43.208H101.392V42.416C101.392 41.456 101.192 40.752 100.792 40.304C100.408 39.856 99.7763 39.632 98.8963 39.632C97.8083 39.632 96.7043 39.928 95.5843 40.52C95.1523 40.792 94.8483 40.928 94.6723 40.928C94.4803 40.928 94.3203 40.856 94.1923 40.712C94.0643 40.568 94.0003 40.384 94.0003 40.16C94.0003 39.936 94.0643 39.744 94.1923 39.584C94.3363 39.408 94.5603 39.232 94.8643 39.056C95.4243 38.736 96.0563 38.488 96.7603 38.312C97.4803 38.12 98.1923 38.024 98.8963 38.024ZM98.1043 48.632C99.0643 48.632 99.8483 48.312 100.456 47.672C101.08 47.016 101.392 46.176 101.392 45.152V44.456H100.96C99.5523 44.456 98.4803 44.52 97.7443 44.648C97.0083 44.76 96.4803 44.96 96.1603 45.248C95.8563 45.52 95.7043 45.928 95.7043 46.472C95.7043 47.096 95.9283 47.616 96.3763 48.032C96.8403 48.432 97.4163 48.632 98.1043 48.632ZM116.231 32.96C116.535 32.96 116.775 33.048 116.951 33.224C117.127 33.4 117.215 33.624 117.215 33.896V49.16C117.215 49.448 117.127 49.68 116.951 49.856C116.775 50.032 116.535 50.12 116.231 50.12C115.927 50.12 115.687 50.032 115.511 49.856C115.351 49.68 115.271 49.448 115.271 49.16V47.864C114.919 48.6 114.399 49.168 113.711 49.568C113.039 49.968 112.247 50.168 111.335 50.168C110.311 50.168 109.407 49.912 108.623 49.4C107.839 48.888 107.231 48.176 106.799 47.264C106.367 46.336 106.151 45.264 106.151 44.048C106.151 42.848 106.367 41.792 106.799 40.88C107.231 39.968 107.839 39.264 108.623 38.768C109.407 38.272 110.311 38.024 111.335 38.024C112.247 38.024 113.039 38.224 113.711 38.624C114.399 39.024 114.919 39.592 115.271 40.328V33.896C115.271 33.608 115.351 33.384 115.511 33.224C115.687 33.048 115.927 32.96 116.231 32.96ZM111.719 48.56C112.855 48.56 113.727 48.176 114.335 47.408C114.959 46.624 115.271 45.52 115.271 44.096C115.271 42.672 114.959 41.576 114.335 40.808C113.727 40.04 112.855 39.656 111.719 39.656C110.583 39.656 109.695 40.04 109.055 40.808C108.431 41.576 108.119 42.656 108.119 44.048C108.119 45.472 108.431 46.584 109.055 47.384C109.695 48.168 110.583 48.56 111.719 48.56ZM136.387 32.96C136.691 32.96 136.931 33.048 137.107 33.224C137.283 33.4 137.371 33.624 137.371 33.896V49.16C137.371 49.448 137.283 49.68 137.107 49.856C136.931 50.032 136.691 50.12 136.387 50.12C136.083 50.12 135.843 50.032 135.667 49.856C135.507 49.68 135.427 49.448 135.427 49.16V47.864C135.075 48.6 134.555 49.168 133.867 49.568C133.195 49.968 132.403 50.168 131.491 50.168C130.467 50.168 129.563 49.912 128.779 49.4C127.995 48.888 127.387 48.176 126.955 47.264C126.523 46.336 126.307 45.264 126.307 44.048C126.307 42.848 126.523 41.792 126.955 40.88C127.387 39.968 127.995 39.264 128.779 38.768C129.563 38.272 130.467 38.024 131.491 38.024C132.403 38.024 133.195 38.224 133.867 38.624C134.555 39.024 135.075 39.592 135.427 40.328V33.896C135.427 33.608 135.507 33.384 135.667 33.224C135.843 33.048 136.083 32.96 136.387 32.96ZM131.875 48.56C133.011 48.56 133.883 48.176 134.491 47.408C135.115 46.624 135.427 45.52 135.427 44.096C135.427 42.672 135.115 41.576 134.491 40.808C133.883 40.04 133.011 39.656 131.875 39.656C130.739 39.656 129.851 40.04 129.211 40.808C128.587 41.576 128.275 42.656 128.275 44.048C128.275 45.472 128.587 46.584 129.211 47.384C129.851 48.168 130.739 48.56 131.875 48.56ZM150.02 47.288C150.196 47.288 150.348 47.36 150.476 47.504C150.604 47.648 150.668 47.832 150.668 48.056C150.668 48.456 150.388 48.824 149.828 49.16C149.252 49.496 148.644 49.752 148.004 49.928C147.364 50.088 146.74 50.168 146.132 50.168C144.324 50.168 142.892 49.632 141.836 48.56C140.796 47.488 140.276 46.008 140.276 44.12C140.276 42.92 140.508 41.864 140.972 40.952C141.436 40.024 142.084 39.304 142.916 38.792C143.764 38.28 144.724 38.024 145.796 38.024C147.316 38.024 148.524 38.52 149.42 39.512C150.316 40.504 150.764 41.848 150.764 43.544C150.764 43.864 150.7 44.096 150.572 44.24C150.444 44.384 150.236 44.456 149.948 44.456H142.22C142.364 47.208 143.668 48.584 146.132 48.584C146.756 48.584 147.292 48.504 147.74 48.344C148.188 48.168 148.668 47.936 149.18 47.648C149.596 47.408 149.876 47.288 150.02 47.288ZM145.82 39.536C144.796 39.536 143.972 39.856 143.348 40.496C142.74 41.136 142.38 42.04 142.268 43.208H149.06C149.028 42.024 148.732 41.12 148.172 40.496C147.612 39.856 146.828 39.536 145.82 39.536ZM161.328 50C160.864 50 160.496 49.872 160.224 49.616C159.968 49.36 159.84 49 159.84 48.536V34.544C159.84 34.08 159.968 33.72 160.224 33.464C160.496 33.208 160.864 33.08 161.328 33.08H166.08C168.848 33.08 170.992 33.824 172.512 35.312C174.048 36.784 174.816 38.856 174.816 41.528C174.816 44.216 174.048 46.304 172.512 47.792C170.992 49.264 168.848 50 166.08 50H161.328ZM165.888 47.48C169.776 47.48 171.72 45.496 171.72 41.528C171.72 37.576 169.776 35.6 165.888 35.6H162.936V47.48H165.888ZM183.021 50.192C181.821 50.192 180.765 49.944 179.853 49.448C178.957 48.952 178.261 48.24 177.765 47.312C177.269 46.384 177.021 45.304 177.021 44.072C177.021 42.84 177.269 41.768 177.765 40.856C178.261 39.928 178.957 39.216 179.853 38.72C180.765 38.224 181.821 37.976 183.021 37.976C184.221 37.976 185.269 38.224 186.165 38.72C187.077 39.216 187.773 39.928 188.253 40.856C188.749 41.768 188.997 42.84 188.997 44.072C188.997 45.304 188.749 46.384 188.253 47.312C187.773 48.24 187.077 48.952 186.165 49.448C185.269 49.944 184.221 50.192 183.021 50.192ZM182.997 47.864C183.973 47.864 184.717 47.544 185.229 46.904C185.741 46.264 185.997 45.32 185.997 44.072C185.997 42.84 185.741 41.904 185.229 41.264C184.717 40.608 183.981 40.28 183.021 40.28C182.061 40.28 181.317 40.608 180.789 41.264C180.277 41.904 180.021 42.84 180.021 44.072C180.021 45.32 180.277 46.264 180.789 46.904C181.301 47.544 182.037 47.864 182.997 47.864ZM213.278 32.96C213.726 32.96 214.086 33.104 214.358 33.392C214.63 33.664 214.766 34.032 214.766 34.496V48.704C214.766 49.152 214.638 49.504 214.382 49.76C214.126 50.016 213.79 50.144 213.374 50.144C212.958 50.144 212.63 50.016 212.39 49.76C212.15 49.504 212.03 49.152 212.03 48.704V38.816L207.95 46.544C207.758 46.896 207.55 47.16 207.326 47.336C207.102 47.496 206.838 47.576 206.534 47.576C206.23 47.576 205.966 47.496 205.742 47.336C205.518 47.176 205.31 46.912 205.118 46.544L201.014 38.936V48.704C201.014 49.136 200.886 49.488 200.63 49.76C200.39 50.016 200.062 50.144 199.646 50.144C199.23 50.144 198.902 50.016 198.662 49.76C198.422 49.504 198.302 49.152 198.302 48.704V34.496C198.302 34.032 198.43 33.664 198.686 33.392C198.958 33.104 199.318 32.96 199.766 32.96C200.39 32.96 200.878 33.304 201.23 33.992L206.558 44.144L211.862 33.992C212.214 33.304 212.686 32.96 213.278 32.96ZM223.257 37.976C224.889 37.976 226.097 38.384 226.881 39.2C227.681 40 228.081 41.224 228.081 42.872V48.728C228.081 49.16 227.953 49.504 227.697 49.76C227.441 50 227.089 50.12 226.641 50.12C226.225 50.12 225.881 49.992 225.609 49.736C225.353 49.48 225.225 49.144 225.225 48.728V48.2C224.953 48.824 224.521 49.312 223.929 49.664C223.353 50.016 222.681 50.192 221.913 50.192C221.129 50.192 220.417 50.032 219.777 49.712C219.137 49.392 218.633 48.952 218.265 48.392C217.897 47.832 217.713 47.208 217.713 46.52C217.713 45.656 217.929 44.976 218.361 44.48C218.809 43.984 219.529 43.624 220.521 43.4C221.513 43.176 222.881 43.064 224.625 43.064H225.225V42.512C225.225 41.728 225.057 41.16 224.721 40.808C224.385 40.44 223.841 40.256 223.089 40.256C222.625 40.256 222.153 40.328 221.673 40.472C221.193 40.6 220.625 40.792 219.969 41.048C219.553 41.256 219.249 41.36 219.057 41.36C218.769 41.36 218.529 41.256 218.337 41.048C218.161 40.84 218.073 40.568 218.073 40.232C218.073 39.96 218.137 39.728 218.265 39.536C218.409 39.328 218.641 39.136 218.961 38.96C219.521 38.656 220.185 38.416 220.953 38.24C221.737 38.064 222.505 37.976 223.257 37.976ZM222.513 48.032C223.313 48.032 223.961 47.768 224.457 47.24C224.969 46.696 225.225 46 225.225 45.152V44.648H224.793C223.721 44.648 222.889 44.696 222.297 44.792C221.705 44.888 221.281 45.056 221.025 45.296C220.769 45.536 220.641 45.864 220.641 46.28C220.641 46.792 220.817 47.216 221.169 47.552C221.537 47.872 221.985 48.032 222.513 48.032ZM239.314 38.888C239.442 38.6 239.61 38.392 239.818 38.264C240.042 38.12 240.282 38.048 240.538 38.048C240.906 38.048 241.234 38.176 241.522 38.432C241.826 38.672 241.978 38.976 241.978 39.344C241.978 39.52 241.93 39.704 241.834 39.896L235.282 53.624C235.01 54.168 234.586 54.44 234.01 54.44C233.642 54.44 233.314 54.32 233.026 54.08C232.754 53.856 232.618 53.568 232.618 53.216C232.618 53.04 232.666 52.84 232.762 52.616L234.394 49.184L229.93 39.896C229.85 39.736 229.81 39.552 229.81 39.344C229.81 38.976 229.962 38.664 230.266 38.408C230.586 38.152 230.946 38.024 231.346 38.024C231.618 38.024 231.866 38.096 232.09 38.24C232.314 38.368 232.49 38.576 232.618 38.864L235.978 46.28L239.314 38.888ZM248.928 50.192C247.728 50.192 246.672 49.944 245.76 49.448C244.864 48.952 244.168 48.24 243.672 47.312C243.176 46.384 242.928 45.304 242.928 44.072C242.928 42.84 243.176 41.768 243.672 40.856C244.168 39.928 244.864 39.216 245.76 38.72C246.672 38.224 247.728 37.976 248.928 37.976C250.128 37.976 251.176 38.224 252.072 38.72C252.984 39.216 253.68 39.928 254.16 40.856C254.656 41.768 254.904 42.84 254.904 44.072C254.904 45.304 254.656 46.384 254.16 47.312C253.68 48.24 252.984 48.952 252.072 49.448C251.176 49.944 250.128 50.192 248.928 50.192ZM248.904 47.864C249.88 47.864 250.624 47.544 251.136 46.904C251.648 46.264 251.904 45.32 251.904 44.072C251.904 42.84 251.648 41.904 251.136 41.264C250.624 40.608 249.888 40.28 248.928 40.28C247.968 40.28 247.224 40.608 246.696 41.264C246.184 41.904 245.928 42.84 245.928 44.072C245.928 45.32 246.184 46.264 246.696 46.904C247.208 47.544 247.944 47.864 248.904 47.864ZM263.932 38.024C264.348 37.992 264.676 38.08 264.916 38.288C265.156 38.496 265.276 38.808 265.276 39.224C265.276 39.656 265.172 39.976 264.964 40.184C264.756 40.392 264.38 40.528 263.836 40.592L263.116 40.664C262.172 40.76 261.476 41.08 261.028 41.624C260.596 42.168 260.38 42.848 260.38 43.664V48.704C260.38 49.168 260.236 49.528 259.948 49.784C259.66 50.024 259.3 50.144 258.868 50.144C258.436 50.144 258.076 50.024 257.788 49.784C257.516 49.528 257.38 49.168 257.38 48.704V39.416C257.38 38.968 257.516 38.624 257.788 38.384C258.076 38.144 258.428 38.024 258.844 38.024C259.26 38.024 259.596 38.144 259.852 38.384C260.108 38.608 260.236 38.936 260.236 39.368V40.328C260.54 39.624 260.988 39.08 261.58 38.696C262.188 38.312 262.86 38.096 263.596 38.048L263.932 38.024ZM268.382 41.6C267.87 41.6 267.446 41.432 267.11 41.096C266.774 40.744 266.606 40.312 266.606 39.8C266.606 39.288 266.774 38.864 267.11 38.528C267.446 38.192 267.87 38.024 268.382 38.024C268.894 38.024 269.318 38.192 269.654 38.528C269.99 38.864 270.158 39.288 270.158 39.8C270.158 40.312 269.99 40.744 269.654 41.096C269.318 41.432 268.894 41.6 268.382 41.6ZM268.382 50.144C267.87 50.144 267.446 49.976 267.11 49.64C266.774 49.288 266.606 48.856 266.606 48.344C266.606 47.832 266.774 47.408 267.11 47.072C267.446 46.72 267.87 46.544 268.382 46.544C268.894 46.544 269.318 46.72 269.654 47.072C269.99 47.408 270.158 47.832 270.158 48.344C270.158 48.856 269.99 49.288 269.654 49.64C269.318 49.976 268.894 50.144 268.382 50.144Z" fill="black"/>
<circle cx="233" cy="321" r="23.5" fill="#F9FBFF" stroke="#68DE3E" stroke-width="3"/>
<path d="M224.882 328.12C224.495 328.12 224.182 328 223.942 327.76C223.715 327.52 223.602 327.207 223.602 326.82V315.12C223.602 314.733 223.709 314.433 223.922 314.22C224.149 314.007 224.455 313.9 224.842 313.9H231.862C232.675 313.9 233.082 314.247 233.082 314.94C233.082 315.62 232.675 315.96 231.862 315.96H226.142V319.8H231.462C232.275 319.8 232.682 320.147 232.682 320.84C232.682 321.52 232.275 321.86 231.462 321.86H226.142V326.82C226.142 327.207 226.029 327.52 225.802 327.76C225.575 328 225.269 328.12 224.882 328.12ZM238.657 317.98C240.017 317.98 241.024 318.32 241.677 319C242.344 319.667 242.677 320.687 242.677 322.06V326.94C242.677 327.3 242.571 327.587 242.357 327.8C242.144 328 241.851 328.1 241.477 328.1C241.131 328.1 240.844 327.993 240.617 327.78C240.404 327.567 240.297 327.287 240.297 326.94V326.5C240.071 327.02 239.711 327.427 239.217 327.72C238.737 328.013 238.177 328.16 237.537 328.16C236.884 328.16 236.291 328.027 235.757 327.76C235.224 327.493 234.804 327.127 234.497 326.66C234.191 326.193 234.037 325.673 234.037 325.1C234.037 324.38 234.217 323.813 234.577 323.4C234.951 322.987 235.551 322.687 236.377 322.5C237.204 322.313 238.344 322.22 239.797 322.22H240.297V321.76C240.297 321.107 240.157 320.633 239.877 320.34C239.597 320.033 239.144 319.88 238.517 319.88C238.131 319.88 237.737 319.94 237.337 320.06C236.937 320.167 236.464 320.327 235.917 320.54C235.571 320.713 235.317 320.8 235.157 320.8C234.917 320.8 234.717 320.713 234.557 320.54C234.411 320.367 234.337 320.14 234.337 319.86C234.337 319.633 234.391 319.44 234.497 319.28C234.617 319.107 234.811 318.947 235.077 318.8C235.544 318.547 236.097 318.347 236.737 318.2C237.391 318.053 238.031 317.98 238.657 317.98ZM238.037 326.36C238.704 326.36 239.244 326.14 239.657 325.7C240.084 325.247 240.297 324.667 240.297 323.96V323.54H239.937C239.044 323.54 238.351 323.58 237.857 323.66C237.364 323.74 237.011 323.88 236.797 324.08C236.584 324.28 236.477 324.553 236.477 324.9C236.477 325.327 236.624 325.68 236.917 325.96C237.224 326.227 237.597 326.36 238.037 326.36Z" fill="black"/>
<circle cx="233" cy="251" r="23.5" fill="#F9FBFF" stroke="#68DE3E" stroke-width="3"/>
<path d="M224.793 258C224.406 258 224.106 257.893 223.893 257.68C223.679 257.467 223.573 257.173 223.573 256.8V245.08C223.573 244.693 223.686 244.387 223.913 244.16C224.153 243.92 224.466 243.8 224.853 243.8C225.253 243.8 225.566 243.92 225.793 244.16C226.033 244.387 226.153 244.693 226.153 245.08V255.88H231.773C232.573 255.88 232.973 256.233 232.973 256.94C232.973 257.647 232.573 258 231.773 258H224.793ZM238.686 247.98C240.046 247.98 241.053 248.32 241.706 249C242.373 249.667 242.706 250.687 242.706 252.06V256.94C242.706 257.3 242.6 257.587 242.386 257.8C242.173 258 241.88 258.1 241.506 258.1C241.16 258.1 240.873 257.993 240.646 257.78C240.433 257.567 240.326 257.287 240.326 256.94V256.5C240.1 257.02 239.74 257.427 239.246 257.72C238.766 258.013 238.206 258.16 237.566 258.16C236.913 258.16 236.32 258.027 235.786 257.76C235.253 257.493 234.833 257.127 234.526 256.66C234.22 256.193 234.066 255.673 234.066 255.1C234.066 254.38 234.246 253.813 234.606 253.4C234.98 252.987 235.58 252.687 236.406 252.5C237.233 252.313 238.373 252.22 239.826 252.22H240.326V251.76C240.326 251.107 240.186 250.633 239.906 250.34C239.626 250.033 239.173 249.88 238.546 249.88C238.16 249.88 237.766 249.94 237.366 250.06C236.966 250.167 236.493 250.327 235.946 250.54C235.6 250.713 235.346 250.8 235.186 250.8C234.946 250.8 234.746 250.713 234.586 250.54C234.44 250.367 234.366 250.14 234.366 249.86C234.366 249.633 234.42 249.44 234.526 249.28C234.646 249.107 234.84 248.947 235.106 248.8C235.573 248.547 236.126 248.347 236.766 248.2C237.42 248.053 238.06 247.98 238.686 247.98ZM238.066 256.36C238.733 256.36 239.273 256.14 239.686 255.7C240.113 255.247 240.326 254.667 240.326 253.96V253.54H239.966C239.073 253.54 238.38 253.58 237.886 253.66C237.393 253.74 237.04 253.88 236.826 254.08C236.613 254.28 236.506 254.553 236.506 254.9C236.506 255.327 236.653 255.68 236.946 255.96C237.253 256.227 237.626 256.36 238.066 256.36Z" fill="black"/>
<circle cx="232" cy="181" r="23.5" fill="#F9FBFF" stroke="#68DE3E" stroke-width="3"/>
<path d="M221.469 188C221.082 188 220.776 187.893 220.549 187.68C220.336 187.467 220.229 187.167 220.229 186.78V175.12C220.229 174.733 220.336 174.433 220.549 174.22C220.776 174.007 221.082 173.9 221.469 173.9H225.429C227.736 173.9 229.522 174.52 230.789 175.76C232.069 176.987 232.709 178.713 232.709 180.94C232.709 183.18 232.069 184.92 230.789 186.16C229.522 187.387 227.736 188 225.429 188H221.469ZM225.269 185.9C228.509 185.9 230.129 184.247 230.129 180.94C230.129 177.647 228.509 176 225.269 176H222.809V185.9H225.269ZM239.547 188.16C238.547 188.16 237.667 187.953 236.907 187.54C236.16 187.127 235.58 186.533 235.167 185.76C234.754 184.987 234.547 184.087 234.547 183.06C234.547 182.033 234.754 181.14 235.167 180.38C235.58 179.607 236.16 179.013 236.907 178.6C237.667 178.187 238.547 177.98 239.547 177.98C240.547 177.98 241.42 178.187 242.167 178.6C242.927 179.013 243.507 179.607 243.907 180.38C244.32 181.14 244.527 182.033 244.527 183.06C244.527 184.087 244.32 184.987 243.907 185.76C243.507 186.533 242.927 187.127 242.167 187.54C241.42 187.953 240.547 188.16 239.547 188.16ZM239.527 186.22C240.34 186.22 240.96 185.953 241.387 185.42C241.814 184.887 242.027 184.1 242.027 183.06C242.027 182.033 241.814 181.253 241.387 180.72C240.96 180.173 240.347 179.9 239.547 179.9C238.747 179.9 238.127 180.173 237.687 180.72C237.26 181.253 237.047 182.033 237.047 183.06C237.047 184.1 237.26 184.887 237.687 185.42C238.114 185.953 238.727 186.22 239.527 186.22Z" fill="black"/>
</g>
<defs>
<filter id="filter0_di" x="165" y="116" width="128" height="277" filterUnits="userSpaceOnUse" color-interpolation-filters="sRGB">
<feFlood flood-opacity="0" result="BackgroundImageFix"/>
<feColorMatrix in="SourceAlpha" type="matrix" values="0 0 0 0 0 0 0 0 0 0 0 0 0 0 0 0 0 0 127 0"/>
<feOffset dx="-9" dy="10"/>
<feGaussianBlur stdDeviation="6"/>
<feColorMatrix type="matrix" values="0 0 0 0 0 0 0 0 0 0 0 0 0 0 0 0 0 0 0.25 0"/>
<feBlend mode="normal" in2="BackgroundImageFix" result="effect1_dropShadow"/>
<feBlend mode="normal" in="SourceGraphic" in2="effect1_dropShadow" result="shape"/>
<feColorMatrix in="SourceAlpha" type="matrix" values="0 0 0 0 0 0 0 0 0 0 0 0 0 0 0 0 0 0 127 0" result="hardAlpha"/>
<feOffset dx="15" dy="-23"/>
<feGaussianBlur stdDeviation="10.5"/>
<feComposite in2="hardAlpha" operator="arithmetic" k2="-1" k3="1"/>
<feColorMatrix type="matrix" values="0 0 0 0 0 0 0 0 0 0 0 0 0 0 0 0 0 0 0.25 0"/>
<feBlend mode="normal" in2="shape" result="effect2_innerShadow"/>
</filter>
<filter id="filter1_di" x="305" y="116" width="129" height="277" filterUnits="userSpaceOnUse" color-interpolation-filters="sRGB">
<feFlood flood-opacity="0" result="BackgroundImageFix"/>
<feColorMatrix in="SourceAlpha" type="matrix" values="0 0 0 0 0 0 0 0 0 0 0 0 0 0 0 0 0 0 127 0"/>
<feOffset dx="-9" dy="10"/>
<feGaussianBlur stdDeviation="6"/>
<feColorMatrix type="matrix" values="0 0 0 0 0 0 0 0 0 0 0 0 0 0 0 0 0 0 0.25 0"/>
<feBlend mode="normal" in2="BackgroundImageFix" result="effect1_dropShadow"/>
<feBlend mode="normal" in="SourceGraphic" in2="effect1_dropShadow" result="shape"/>
<feColorMatrix in="SourceAlpha" type="matrix" values="0 0 0 0 0 0 0 0 0 0 0 0 0 0 0 0 0 0 127 0" result="hardAlpha"/>
<feOffset dx="15" dy="-23"/>
<feGaussianBlur stdDeviation="10.5"/>
<feComposite in2="hardAlpha" operator="arithmetic" k2="-1" k3="1"/>
<feColorMatrix type="matrix" values="0 0 0 0 0 0 0 0 0 0 0 0 0 0 0 0 0 0 0.25 0"/>
<feBlend mode="normal" in2="shape" result="effect2_innerShadow"/>
</filter>
<filter id="filter2_di" x="25" y="116" width="128" height="277" filterUnits="userSpaceOnUse" color-interpolation-filters="sRGB">
<feFlood flood-opacity="0" result="BackgroundImageFix"/>
<feColorMatrix in="SourceAlpha" type="matrix" values="0 0 0 0 0 0 0 0 0 0 0 0 0 0 0 0 0 0 127 0"/>
<feOffset dx="-9" dy="10"/>
<feGaussianBlur stdDeviation="6"/>
<feColorMatrix type="matrix" values="0 0 0 0 0 0 0 0 0 0 0 0 0 0 0 0 0 0 0.25 0"/>
<feBlend mode="normal" in2="BackgroundImageFix" result="effect1_dropShadow"/>
<feBlend mode="normal" in="SourceGraphic" in2="effect1_dropShadow" result="shape"/>
<feColorMatrix in="SourceAlpha" type="matrix" values="0 0 0 0 0 0 0 0 0 0 0 0 0 0 0 0 0 0 127 0" result="hardAlpha"/>
<feOffset dx="15" dy="-23"/>
<feGaussianBlur stdDeviation="10.5"/>
<feComposite in2="hardAlpha" operator="arithmetic" k2="-1" k3="1"/>
<feColorMatrix type="matrix" values="0 0 0 0 0 0 0 0 0 0 0 0 0 0 0 0 0 0 0.25 0"/>
<feBlend mode="normal" in2="shape" result="effect2_innerShadow"/>
</filter>
<filter id="filter3_di" x="446" y="116" width="128" height="277" filterUnits="userSpaceOnUse" color-interpolation-filters="sRGB">
<feFlood flood-opacity="0" result="BackgroundImageFix"/>
<feColorMatrix in="SourceAlpha" type="matrix" values="0 0 0 0 0 0 0 0 0 0 0 0 0 0 0 0 0 0 127 0"/>
<feOffset dx="-9" dy="10"/>
<feGaussianBlur stdDeviation="6"/>
<feColorMatrix type="matrix" values="0 0 0 0 0 0 0 0 0 0 0 0 0 0 0 0 0 0 0.25 0"/>
<feBlend mode="normal" in2="BackgroundImageFix" result="effect1_dropShadow"/>
<feBlend mode="normal" in="SourceGraphic" in2="effect1_dropShadow" result="shape"/>
<feColorMatrix in="SourceAlpha" type="matrix" values="0 0 0 0 0 0 0 0 0 0 0 0 0 0 0 0 0 0 127 0" result="hardAlpha"/>
<feOffset dx="15" dy="-23"/>
<feGaussianBlur stdDeviation="10.5"/>
<feComposite in2="hardAlpha" operator="arithmetic" k2="-1" k3="1"/>
<feColorMatrix type="matrix" values="0 0 0 0 0 0 0 0 0 0 0 0 0 0 0 0 0 0 0.25 0"/>
<feBlend mode="normal" in2="shape" result="effect2_innerShadow"/>
</filter>
<clipPath id="clip0">
<rect width="600" height="500" fill="white"/>
</clipPath>
</defs>
</svg>
