<svg width="600" height="500" viewBox="0 0 600 500" fill="none" xmlns="http://www.w3.org/2000/svg">
<g clip-path="url(#clip0)">
<rect width="600" height="500" fill="#576A5A"/>
<g opacity="0.1">
<rect x="452.845" y="111.294" width="175.954" height="274.349" rx="33" transform="rotate(22.6936 452.845 111.294)" fill="white"/>
<rect x="457.39" y="122.648" width="158.608" height="230.767" rx="33" transform="rotate(22.6936 457.39 122.648)" fill="#D5D8D5"/>
<circle cx="434.632" cy="382.624" r="10.7168" transform="rotate(22.6936 434.632 382.624)" fill="#D5D8D5"/>
<path d="M571.337 163.806C488.175 133.227 432.615 180.595 415.23 208.102V190.598L376.292 178.452V249.54C380.579 254.112 378.078 257.161 376.292 258.113L384.866 275.617L380.936 279.547L376.292 268.115L375.221 279.547H370.934V269.187L364.861 281.333L360.574 277.403L369.505 258.113C366.362 254.684 369.148 250.969 370.934 249.54V176.309L461.669 77L602.416 121.653L571.337 144.516V163.806Z" fill="white"/>
</g>
<g filter="url(#filter0_ii)">
<path d="M0 453H212C213.657 453 215 454.343 215 456V497C215 498.657 213.657 500 212 500H0V453Z" fill="white"/>
</g>
<path d="M0.5 453.5H212C213.381 453.5 214.5 454.619 214.5 456V497C214.5 498.381 213.381 499.5 212 499.5H0.5V453.5Z" stroke="black"/>
<g filter="url(#filter1_ii)">
<path d="M0 406H212C213.657 406 215 407.343 215 409V450C215 451.657 213.657 453 212 453H0V406Z" fill="white"/>
</g>
<path d="M0.5 406.5H212C213.381 406.5 214.5 407.619 214.5 409V450C214.5 451.381 213.381 452.5 212 452.5H0.5V406.5Z" stroke="black"/>
<g filter="url(#filter2_ii)">
<path d="M0 359H212C213.657 359 215 360.343 215 362V403C215 404.657 213.657 406 212 406H0V359Z" fill="white"/>
</g>
<path d="M0.5 359.5H212C213.381 359.5 214.5 360.619 214.5 362V403C214.5 404.381 213.381 405.5 212 405.5H0.5V359.5Z" stroke="black"/>
<g filter="url(#filter3_ii)">
<path d="M0 312H212C213.657 312 215 313.343 215 315V356C215 357.657 213.657 359 212 359H0V312Z" fill="white"/>
</g>
<path d="M0.5 312.5H212C213.381 312.5 214.5 313.619 214.5 315V356C214.5 357.381 213.381 358.5 212 358.5H0.5V312.5Z" stroke="black"/>
<g filter="url(#filter4_ii)">
<path d="M0 265H212C213.657 265 215 266.343 215 268V309C215 310.657 213.657 312 212 312H0V265Z" fill="white"/>
</g>
<path d="M0.5 265.5H212C213.381 265.5 214.5 266.619 214.5 268V309C214.5 310.381 213.381 311.5 212 311.5H0.5V265.5Z" stroke="black"/>
<g filter="url(#filter5_ii)">
<path d="M0 218H212C213.657 218 215 219.343 215 221V262C215 263.657 213.657 265 212 265H0V218Z" fill="white"/>
</g>
<path d="M0.5 218.5H212C213.381 218.5 214.5 219.619 214.5 221V262C214.5 263.381 213.381 264.5 212 264.5H0.5V218.5Z" stroke="black"/>
<g filter="url(#filter6_ii)">
<path d="M0 171H212C213.657 171 215 172.343 215 174V215C215 216.657 213.657 218 212 218H0V171Z" fill="white"/>
</g>
<path d="M0.5 171.5H212C213.381 171.5 214.5 172.619 214.5 174V215C214.5 216.381 213.381 217.5 212 217.5H0.5V171.5Z" stroke="black"/>
<g filter="url(#filter7_ii)">
<path d="M0 124H212C213.657 124 215 125.343 215 127V168C215 169.657 213.657 171 212 171H0V124Z" fill="white"/>
</g>
<path d="M0.5 124.5H212C213.381 124.5 214.5 125.619 214.5 127V168C214.5 169.381 213.381 170.5 212 170.5H0.5V124.5Z" stroke="black"/>
<g filter="url(#filter8_ii)">
<path d="M0 77H212C213.657 77 215 78.3431 215 80V121C215 122.657 213.657 124 212 124H0V77Z" fill="white"/>
</g>
<path d="M0.5 77.5H212C213.381 77.5 214.5 78.6193 214.5 80V121C214.5 122.381 213.381 123.5 212 123.5H0.5V77.5Z" stroke="black"/>
<g filter="url(#filter9_ii)">
<path d="M0 30H212C213.657 30 215 31.3431 215 33V74C215 75.6569 213.657 77 212 77H0V30Z" fill="white"/>
</g>
<path d="M0.5 30.5H212C213.381 30.5 214.5 31.6193 214.5 33V74C214.5 75.3807 213.381 76.5 212 76.5H0.5V30.5Z" stroke="black"/>
<g filter="url(#filter10_ii)">
<path d="M0 -17H212C213.657 -17 215 -15.6569 215 -14V27C215 28.6569 213.657 30 212 30H0V-17Z" fill="white"/>
</g>
<path d="M0.5 -16.5H212C213.381 -16.5 214.5 -15.3807 214.5 -14V27C214.5 28.3807 213.381 29.5 212 29.5H0.5V-16.5Z" stroke="black"/>
<g filter="url(#filter11_di)">
<rect x="300" y="251" width="92" height="234" rx="22" fill="#5D94E7"/>
<rect x="300.5" y="251.5" width="91" height="233" rx="21.5" stroke="#686868"/>
</g>
<path d="M319.312 242C318.848 242 318.48 241.872 318.208 241.616C317.952 241.36 317.824 241 317.824 240.536V226.544C317.824 226.08 317.952 225.72 318.208 225.464C318.48 225.208 318.848 225.08 319.312 225.08H324.064C326.832 225.08 328.976 225.824 330.496 227.312C332.032 228.784 332.8 230.856 332.8 233.528C332.8 236.216 332.032 238.304 330.496 239.792C328.976 241.264 326.832 242 324.064 242H319.312ZM323.872 239.48C327.76 239.48 329.704 237.496 329.704 233.528C329.704 229.576 327.76 227.6 323.872 227.6H320.92V239.48H323.872ZM341.006 242.192C339.806 242.192 338.75 241.944 337.838 241.448C336.942 240.952 336.246 240.24 335.75 239.312C335.254 238.384 335.006 237.304 335.006 236.072C335.006 234.84 335.254 233.768 335.75 232.856C336.246 231.928 336.942 231.216 337.838 230.72C338.75 230.224 339.806 229.976 341.006 229.976C342.206 229.976 343.254 230.224 344.15 230.72C345.062 231.216 345.758 231.928 346.238 232.856C346.734 233.768 346.982 234.84 346.982 236.072C346.982 237.304 346.734 238.384 346.238 239.312C345.758 240.24 345.062 240.952 344.15 241.448C343.254 241.944 342.206 242.192 341.006 242.192ZM340.982 239.864C341.958 239.864 342.702 239.544 343.214 238.904C343.726 238.264 343.982 237.32 343.982 236.072C343.982 234.84 343.726 233.904 343.214 233.264C342.702 232.608 341.966 232.28 341.006 232.28C340.046 232.28 339.302 232.608 338.774 233.264C338.262 233.904 338.006 234.84 338.006 236.072C338.006 237.32 338.262 238.264 338.774 238.904C339.286 239.544 340.022 239.864 340.982 239.864ZM364.746 224.96C365.194 224.96 365.554 225.104 365.826 225.392C366.098 225.664 366.234 226.032 366.234 226.496V240.704C366.234 241.152 366.106 241.504 365.85 241.76C365.594 242.016 365.258 242.144 364.842 242.144C364.426 242.144 364.098 242.016 363.858 241.76C363.618 241.504 363.498 241.152 363.498 240.704V230.816L359.418 238.544C359.226 238.896 359.018 239.16 358.794 239.336C358.57 239.496 358.306 239.576 358.002 239.576C357.698 239.576 357.434 239.496 357.21 239.336C356.986 239.176 356.778 238.912 356.586 238.544L352.482 230.936V240.704C352.482 241.136 352.354 241.488 352.098 241.76C351.858 242.016 351.53 242.144 351.114 242.144C350.698 242.144 350.37 242.016 350.13 241.76C349.89 241.504 349.77 241.152 349.77 240.704V226.496C349.77 226.032 349.898 225.664 350.154 225.392C350.426 225.104 350.786 224.96 351.234 224.96C351.858 224.96 352.346 225.304 352.698 225.992L358.026 236.144L363.33 225.992C363.682 225.304 364.154 224.96 364.746 224.96Z" fill="#E9C9B2"/>
<path d="M410.288 303C409.824 303 409.464 302.872 409.208 302.616C408.952 302.36 408.824 302.008 408.824 301.56V287.496C408.824 287.032 408.96 286.664 409.232 286.392C409.52 286.104 409.896 285.96 410.36 285.96C410.84 285.96 411.216 286.104 411.488 286.392C411.776 286.664 411.92 287.032 411.92 287.496V300.456H418.664C419.624 300.456 420.104 300.88 420.104 301.728C420.104 302.576 419.624 303 418.664 303H410.288ZM426.961 290.976C428.593 290.976 429.801 291.384 430.585 292.2C431.385 293 431.785 294.224 431.785 295.872V301.728C431.785 302.16 431.657 302.504 431.401 302.76C431.145 303 430.793 303.12 430.345 303.12C429.929 303.12 429.585 302.992 429.313 302.736C429.057 302.48 428.929 302.144 428.929 301.728V301.2C428.657 301.824 428.225 302.312 427.633 302.664C427.057 303.016 426.385 303.192 425.617 303.192C424.833 303.192 424.121 303.032 423.48 302.712C422.841 302.392 422.337 301.952 421.969 301.392C421.601 300.832 421.417 300.208 421.417 299.52C421.417 298.656 421.633 297.976 422.065 297.48C422.513 296.984 423.233 296.624 424.225 296.4C425.217 296.176 426.585 296.064 428.329 296.064H428.929V295.512C428.929 294.728 428.761 294.16 428.425 293.808C428.089 293.44 427.545 293.256 426.793 293.256C426.329 293.256 425.857 293.328 425.377 293.472C424.897 293.6 424.329 293.792 423.673 294.048C423.257 294.256 422.953 294.36 422.761 294.36C422.473 294.36 422.233 294.256 422.041 294.048C421.865 293.84 421.777 293.568 421.777 293.232C421.777 292.96 421.841 292.728 421.969 292.536C422.113 292.328 422.345 292.136 422.665 291.96C423.225 291.656 423.889 291.416 424.657 291.24C425.441 291.064 426.209 290.976 426.961 290.976ZM426.217 301.032C427.017 301.032 427.665 300.768 428.161 300.24C428.673 299.696 428.929 299 428.929 298.152V297.648H428.497C427.425 297.648 426.593 297.696 426.001 297.792C425.409 297.888 424.985 298.056 424.729 298.296C424.473 298.536 424.345 298.864 424.345 299.28C424.345 299.792 424.521 300.216 424.873 300.552C425.241 300.872 425.689 301.032 426.217 301.032ZM455.461 305.352C455.637 305.64 455.725 305.92 455.725 306.192C455.725 306.56 455.581 306.856 455.293 307.08C455.005 307.32 454.669 307.44 454.285 307.44C453.997 307.44 453.725 307.368 453.469 307.224C453.213 307.096 453.005 306.896 452.845 306.624L451.429 304.296C451.205 303.928 450.909 303.656 450.541 303.48C450.189 303.304 449.725 303.216 449.149 303.216C447.501 303.216 446.069 302.864 444.853 302.16C443.653 301.456 442.725 300.448 442.069 299.136C441.413 297.824 441.085 296.288 441.085 294.528C441.085 292.768 441.413 291.24 442.069 289.944C442.725 288.632 443.653 287.624 444.853 286.92C446.069 286.216 447.501 285.864 449.149 285.864C450.781 285.864 452.197 286.216 453.397 286.92C454.613 287.624 455.549 288.632 456.205 289.944C456.861 291.24 457.189 292.768 457.189 294.528C457.189 296.432 456.805 298.072 456.037 299.448C455.285 300.808 454.205 301.8 452.797 302.424C453.533 302.68 454.141 303.208 454.621 304.008L455.461 305.352ZM449.149 300.744C450.701 300.744 451.909 300.208 452.773 299.136C453.653 298.064 454.093 296.528 454.093 294.528C454.093 292.528 453.653 291 452.773 289.944C451.909 288.872 450.701 288.336 449.149 288.336C447.581 288.336 446.357 288.872 445.477 289.944C444.613 291 444.181 292.528 444.181 294.528C444.181 296.528 444.613 298.064 445.477 299.136C446.357 300.208 447.581 300.744 449.149 300.744ZM469.316 291.024C469.78 291.024 470.148 291.152 470.42 291.408C470.692 291.664 470.828 292.008 470.828 292.44V301.752C470.828 302.168 470.684 302.504 470.396 302.76C470.124 303.016 469.764 303.144 469.316 303.144C468.884 303.144 468.54 303.024 468.284 302.784C468.028 302.544 467.9 302.216 467.9 301.8V301.2C467.532 301.84 467.036 302.336 466.412 302.688C465.788 303.024 465.084 303.192 464.3 303.192C461.42 303.192 459.98 301.576 459.98 298.344V292.44C459.98 292.008 460.116 291.664 460.388 291.408C460.66 291.152 461.02 291.024 461.468 291.024C461.932 291.024 462.3 291.152 462.572 291.408C462.844 291.664 462.98 292.008 462.98 292.44V298.368C462.98 299.2 463.148 299.816 463.484 300.216C463.82 300.616 464.348 300.816 465.068 300.816C465.9 300.816 466.564 300.544 467.06 300C467.572 299.44 467.828 298.704 467.828 297.792V292.44C467.828 292.008 467.964 291.664 468.236 291.408C468.508 291.152 468.868 291.024 469.316 291.024ZM475.439 303.144C475.007 303.144 474.647 303.024 474.359 302.784C474.087 302.528 473.951 302.168 473.951 301.704V292.44C473.951 291.976 474.087 291.624 474.359 291.384C474.647 291.144 475.007 291.024 475.439 291.024C475.871 291.024 476.231 291.144 476.519 291.384C476.807 291.624 476.951 291.976 476.951 292.44V301.704C476.951 302.168 476.807 302.528 476.519 302.784C476.231 303.024 475.871 303.144 475.439 303.144ZM475.439 288.888C474.895 288.888 474.463 288.744 474.143 288.456C473.823 288.152 473.663 287.76 473.663 287.28C473.663 286.8 473.823 286.416 474.143 286.128C474.463 285.84 474.895 285.696 475.439 285.696C475.967 285.696 476.391 285.84 476.711 286.128C477.047 286.416 477.215 286.8 477.215 287.28C477.215 287.76 477.055 288.152 476.735 288.456C476.415 288.744 475.983 288.888 475.439 288.888ZM486.86 290.976C488.268 290.976 489.316 291.376 490.004 292.176C490.692 292.976 491.036 294.184 491.036 295.8V301.704C491.036 302.152 490.9 302.504 490.628 302.76C490.372 303.016 490.012 303.144 489.548 303.144C489.084 303.144 488.716 303.016 488.444 302.76C488.172 302.504 488.036 302.152 488.036 301.704V295.968C488.036 295.056 487.86 294.392 487.508 293.976C487.172 293.56 486.636 293.352 485.9 293.352C485.036 293.352 484.34 293.624 483.812 294.168C483.3 294.712 483.044 295.44 483.044 296.352V301.704C483.044 302.152 482.908 302.504 482.636 302.76C482.364 303.016 481.996 303.144 481.532 303.144C481.068 303.144 480.7 303.016 480.428 302.76C480.172 302.504 480.044 302.152 480.044 301.704V292.416C480.044 292 480.18 291.664 480.452 291.408C480.724 291.152 481.092 291.024 481.556 291.024C481.972 291.024 482.308 291.152 482.564 291.408C482.836 291.648 482.972 291.968 482.972 292.368V293.016C483.372 292.36 483.908 291.856 484.58 291.504C485.252 291.152 486.012 290.976 486.86 290.976ZM500.179 300.912C500.979 300.96 501.379 301.32 501.379 301.992C501.379 302.376 501.219 302.672 500.899 302.88C500.595 303.072 500.155 303.152 499.579 303.12L498.931 303.072C496.243 302.88 494.899 301.44 494.899 298.752V293.52H493.699C493.267 293.52 492.931 293.424 492.691 293.232C492.467 293.04 492.355 292.76 492.355 292.392C492.355 292.024 492.467 291.744 492.691 291.552C492.931 291.36 493.267 291.264 493.699 291.264H494.899V289.056C494.899 288.624 495.035 288.28 495.307 288.024C495.579 287.768 495.947 287.64 496.411 287.64C496.859 287.64 497.219 287.768 497.491 288.024C497.763 288.28 497.899 288.624 497.899 289.056V291.264H499.939C500.371 291.264 500.699 291.36 500.923 291.552C501.163 291.744 501.283 292.024 501.283 292.392C501.283 292.76 501.163 293.04 500.923 293.232C500.699 293.424 500.371 293.52 499.939 293.52H497.899V298.968C497.899 300.152 498.443 300.784 499.531 300.864L500.179 300.912ZM508.031 290.976C509.663 290.976 510.871 291.384 511.655 292.2C512.455 293 512.855 294.224 512.855 295.872V301.728C512.855 302.16 512.727 302.504 512.471 302.76C512.215 303 511.863 303.12 511.415 303.12C510.999 303.12 510.655 302.992 510.383 302.736C510.127 302.48 509.999 302.144 509.999 301.728V301.2C509.727 301.824 509.295 302.312 508.703 302.664C508.127 303.016 507.455 303.192 506.687 303.192C505.903 303.192 505.191 303.032 504.551 302.712C503.911 302.392 503.407 301.952 503.039 301.392C502.671 300.832 502.487 300.208 502.487 299.52C502.487 298.656 502.703 297.976 503.135 297.48C503.583 296.984 504.303 296.624 505.295 296.4C506.287 296.176 507.655 296.064 509.399 296.064H509.999V295.512C509.999 294.728 509.831 294.16 509.495 293.808C509.159 293.44 508.615 293.256 507.863 293.256C507.399 293.256 506.927 293.328 506.447 293.472C505.967 293.6 505.399 293.792 504.743 294.048C504.327 294.256 504.023 294.36 503.831 294.36C503.543 294.36 503.303 294.256 503.111 294.048C502.935 293.84 502.847 293.568 502.847 293.232C502.847 292.96 502.911 292.728 503.039 292.536C503.183 292.328 503.415 292.136 503.735 291.96C504.295 291.656 504.959 291.416 505.727 291.24C506.511 291.064 507.279 290.976 508.031 290.976ZM507.287 301.032C508.087 301.032 508.735 300.768 509.231 300.24C509.743 299.696 509.999 299 509.999 298.152V297.648H509.567C508.495 297.648 507.663 297.696 507.071 297.792C506.479 297.888 506.055 298.056 505.799 298.296C505.543 298.536 505.415 298.864 505.415 299.28C505.415 299.792 505.591 300.216 505.943 300.552C506.311 300.872 506.759 301.032 507.287 301.032Z" fill="#E7E2DA"/>
<path d="M254.27 55.67H261.17V59H250.07V38.06H254.27V55.67ZM262.76 50.63C262.76 48.95 263.09 47.46 263.75 46.16C264.43 44.86 265.34 43.86 266.48 43.16C267.64 42.46 268.93 42.11 270.35 42.11C271.59 42.11 272.67 42.36 273.59 42.86C274.53 43.36 275.28 43.99 275.84 44.75V42.38H280.07V59H275.84V56.57C275.3 57.35 274.55 58 273.59 58.52C272.65 59.02 271.56 59.27 270.32 59.27C268.92 59.27 267.64 58.91 266.48 58.19C265.34 57.47 264.43 56.46 263.75 55.16C263.09 53.84 262.76 52.33 262.76 50.63ZM275.84 50.69C275.84 49.67 275.64 48.8 275.24 48.08C274.84 47.34 274.3 46.78 273.62 46.4C272.94 46 272.21 45.8 271.43 45.8C270.65 45.8 269.93 45.99 269.27 46.37C268.61 46.75 268.07 47.31 267.65 48.05C267.25 48.77 267.05 49.63 267.05 50.63C267.05 51.63 267.25 52.51 267.65 53.27C268.07 54.01 268.61 54.58 269.27 54.98C269.95 55.38 270.67 55.58 271.43 55.58C272.21 55.58 272.94 55.39 273.62 55.01C274.3 54.61 274.84 54.05 275.24 53.33C275.64 52.59 275.84 51.71 275.84 50.69ZM304.25 38.06V41.45H295.52V46.82H302.21V50.15H295.52V59H291.32V38.06H304.25ZM322.918 42.38V59H318.688V56.9C318.148 57.62 317.438 58.19 316.558 58.61C315.698 59.01 314.758 59.21 313.738 59.21C312.438 59.21 311.288 58.94 310.288 58.4C309.288 57.84 308.498 57.03 307.918 55.97C307.358 54.89 307.078 53.61 307.078 52.13V42.38H311.278V51.53C311.278 52.85 311.608 53.87 312.268 54.59C312.928 55.29 313.828 55.64 314.968 55.64C316.128 55.64 317.038 55.29 317.698 54.59C318.358 53.87 318.688 52.85 318.688 51.53V42.38H322.918ZM336.272 42.14C338.252 42.14 339.852 42.77 341.072 44.03C342.292 45.27 342.902 47.01 342.902 49.25V59H338.702V49.82C338.702 48.5 338.372 47.49 337.712 46.79C337.052 46.07 336.152 45.71 335.012 45.71C333.852 45.71 332.932 46.07 332.252 46.79C331.592 47.49 331.262 48.5 331.262 49.82V59H327.062V42.38H331.262V44.45C331.822 43.73 332.532 43.17 333.392 42.77C334.272 42.35 335.232 42.14 336.272 42.14ZM345.816 50.63C345.816 48.95 346.146 47.46 346.806 46.16C347.486 44.86 348.406 43.86 349.566 43.16C350.726 42.46 352.016 42.11 353.436 42.11C354.516 42.11 355.546 42.35 356.526 42.83C357.506 43.29 358.286 43.91 358.866 44.69V36.8H363.126V59H358.866V56.54C358.346 57.36 357.616 58.02 356.676 58.52C355.736 59.02 354.646 59.27 353.406 59.27C352.006 59.27 350.726 58.91 349.566 58.19C348.406 57.47 347.486 56.46 346.806 55.16C346.146 53.84 345.816 52.33 345.816 50.63ZM358.896 50.69C358.896 49.67 358.696 48.8 358.296 48.08C357.896 47.34 357.356 46.78 356.676 46.4C355.996 46 355.266 45.8 354.486 45.8C353.706 45.8 352.986 45.99 352.326 46.37C351.666 46.75 351.126 47.31 350.706 48.05C350.306 48.77 350.106 49.63 350.106 50.63C350.106 51.63 350.306 52.51 350.706 53.27C351.126 54.01 351.666 54.58 352.326 54.98C353.006 55.38 353.726 55.58 354.486 55.58C355.266 55.58 355.996 55.39 356.676 55.01C357.356 54.61 357.896 54.05 358.296 53.33C358.696 52.59 358.896 51.71 358.896 50.69ZM366.148 50.63C366.148 48.95 366.478 47.46 367.138 46.16C367.818 44.86 368.728 43.86 369.868 43.16C371.028 42.46 372.318 42.11 373.738 42.11C374.978 42.11 376.058 42.36 376.978 42.86C377.918 43.36 378.668 43.99 379.228 44.75V42.38H383.458V59H379.228V56.57C378.688 57.35 377.938 58 376.978 58.52C376.038 59.02 374.948 59.27 373.708 59.27C372.308 59.27 371.028 58.91 369.868 58.19C368.728 57.47 367.818 56.46 367.138 55.16C366.478 53.84 366.148 52.33 366.148 50.63ZM379.228 50.69C379.228 49.67 379.028 48.8 378.628 48.08C378.228 47.34 377.688 46.78 377.008 46.4C376.328 46 375.598 45.8 374.818 45.8C374.038 45.8 373.318 45.99 372.658 46.37C371.998 46.75 371.458 47.31 371.038 48.05C370.638 48.77 370.438 49.63 370.438 50.63C370.438 51.63 370.638 52.51 371.038 53.27C371.458 54.01 371.998 54.58 372.658 54.98C373.338 55.38 374.058 55.58 374.818 55.58C375.598 55.58 376.328 55.39 377.008 55.01C377.688 54.61 378.228 54.05 378.628 53.33C379.028 52.59 379.228 51.71 379.228 50.69ZM408.2 42.14C410.24 42.14 411.88 42.77 413.12 44.03C414.38 45.27 415.01 47.01 415.01 49.25V59H410.81V49.82C410.81 48.52 410.48 47.53 409.82 46.85C409.16 46.15 408.26 45.8 407.12 45.8C405.98 45.8 405.07 46.15 404.39 46.85C403.73 47.53 403.4 48.52 403.4 49.82V59H399.2V49.82C399.2 48.52 398.87 47.53 398.21 46.85C397.55 46.15 396.65 45.8 395.51 45.8C394.35 45.8 393.43 46.15 392.75 46.85C392.09 47.53 391.76 48.52 391.76 49.82V59H387.56V42.38H391.76V44.39C392.3 43.69 392.99 43.14 393.83 42.74C394.69 42.34 395.63 42.14 396.65 42.14C397.95 42.14 399.11 42.42 400.13 42.98C401.15 43.52 401.94 44.3 402.5 45.32C403.04 44.36 403.82 43.59 404.84 43.01C405.88 42.43 407 42.14 408.2 42.14ZM434.446 50.33C434.446 50.93 434.406 51.47 434.326 51.95H422.176C422.276 53.15 422.696 54.09 423.436 54.77C424.176 55.45 425.086 55.79 426.166 55.79C427.726 55.79 428.836 55.12 429.496 53.78H434.026C433.546 55.38 432.626 56.7 431.266 57.74C429.906 58.76 428.236 59.27 426.256 59.27C424.656 59.27 423.216 58.92 421.936 58.22C420.676 57.5 419.686 56.49 418.966 55.19C418.266 53.89 417.916 52.39 417.916 50.69C417.916 48.97 418.266 47.46 418.966 46.16C419.666 44.86 420.646 43.86 421.906 43.16C423.166 42.46 424.616 42.11 426.256 42.11C427.836 42.11 429.246 42.45 430.486 43.13C431.746 43.81 432.716 44.78 433.396 46.04C434.096 47.28 434.446 48.71 434.446 50.33ZM430.096 49.13C430.076 48.05 429.686 47.19 428.926 46.55C428.166 45.89 427.236 45.56 426.136 45.56C425.096 45.56 424.216 45.88 423.496 46.52C422.796 47.14 422.366 48.01 422.206 49.13H430.096ZM446.721 42.14C448.701 42.14 450.301 42.77 451.521 44.03C452.741 45.27 453.351 47.01 453.351 49.25V59H449.151V49.82C449.151 48.5 448.821 47.49 448.161 46.79C447.501 46.07 446.601 45.71 445.461 45.71C444.301 45.71 443.381 46.07 442.701 46.79C442.041 47.49 441.711 48.5 441.711 49.82V59H437.511V42.38H441.711V44.45C442.271 43.73 442.981 43.17 443.841 42.77C444.721 42.35 445.681 42.14 446.721 42.14ZM462.235 45.83V53.87C462.235 54.43 462.365 54.84 462.625 55.1C462.905 55.34 463.365 55.46 464.005 55.46H465.955V59H463.315C459.775 59 458.005 57.28 458.005 53.84V45.83H456.025V42.38H458.005V38.27H462.235V42.38H465.955V45.83H462.235ZM467.896 50.63C467.896 48.95 468.226 47.46 468.886 46.16C469.566 44.86 470.476 43.86 471.616 43.16C472.776 42.46 474.066 42.11 475.486 42.11C476.726 42.11 477.806 42.36 478.726 42.86C479.666 43.36 480.416 43.99 480.976 44.75V42.38H485.206V59H480.976V56.57C480.436 57.35 479.686 58 478.726 58.52C477.786 59.02 476.696 59.27 475.456 59.27C474.056 59.27 472.776 58.91 471.616 58.19C470.476 57.47 469.566 56.46 468.886 55.16C468.226 53.84 467.896 52.33 467.896 50.63ZM480.976 50.69C480.976 49.67 480.776 48.8 480.376 48.08C479.976 47.34 479.436 46.78 478.756 46.4C478.076 46 477.346 45.8 476.566 45.8C475.786 45.8 475.066 45.99 474.406 46.37C473.746 46.75 473.206 47.31 472.786 48.05C472.386 48.77 472.186 49.63 472.186 50.63C472.186 51.63 472.386 52.51 472.786 53.27C473.206 54.01 473.746 54.58 474.406 54.98C475.086 55.38 475.806 55.58 476.566 55.58C477.346 55.58 478.076 55.39 478.756 55.01C479.436 54.61 479.976 54.05 480.376 53.33C480.776 52.59 480.976 51.71 480.976 50.69ZM493.508 36.8V59H489.308V36.8H493.508ZM520.256 50.33C520.256 50.93 520.216 51.47 520.136 51.95H507.986C508.086 53.15 508.506 54.09 509.246 54.77C509.986 55.45 510.896 55.79 511.976 55.79C513.536 55.79 514.646 55.12 515.306 53.78H519.836C519.356 55.38 518.436 56.7 517.076 57.74C515.716 58.76 514.046 59.27 512.066 59.27C510.466 59.27 509.026 58.92 507.746 58.22C506.486 57.5 505.496 56.49 504.776 55.19C504.076 53.89 503.726 52.39 503.726 50.69C503.726 48.97 504.076 47.46 504.776 46.16C505.476 44.86 506.456 43.86 507.716 43.16C508.976 42.46 510.426 42.11 512.066 42.11C513.646 42.11 515.056 42.45 516.296 43.13C517.556 43.81 518.526 44.78 519.206 46.04C519.906 47.28 520.256 48.71 520.256 50.33ZM515.906 49.13C515.886 48.05 515.496 47.19 514.736 46.55C513.976 45.89 513.046 45.56 511.946 45.56C510.906 45.56 510.026 45.88 509.306 46.52C508.606 47.14 508.176 48.01 508.016 49.13H515.906ZM529.682 59.27C528.322 59.27 527.102 59.03 526.022 58.55C524.942 58.05 524.082 57.38 523.442 56.54C522.822 55.7 522.482 54.77 522.422 53.75H526.652C526.732 54.39 527.042 54.92 527.582 55.34C528.142 55.76 528.832 55.97 529.652 55.97C530.452 55.97 531.072 55.81 531.512 55.49C531.972 55.17 532.202 54.76 532.202 54.26C532.202 53.72 531.922 53.32 531.362 53.06C530.822 52.78 529.952 52.48 528.752 52.16C527.512 51.86 526.492 51.55 525.692 51.23C524.912 50.91 524.232 50.42 523.652 49.76C523.092 49.1 522.812 48.21 522.812 47.09C522.812 46.17 523.072 45.33 523.592 44.57C524.132 43.81 524.892 43.21 525.872 42.77C526.872 42.33 528.042 42.11 529.382 42.11C531.362 42.11 532.942 42.61 534.122 43.61C535.302 44.59 535.952 45.92 536.072 47.6H532.052C531.992 46.94 531.712 46.42 531.212 46.04C530.732 45.64 530.082 45.44 529.262 45.44C528.502 45.44 527.912 45.58 527.492 45.86C527.092 46.14 526.892 46.53 526.892 47.03C526.892 47.59 527.172 48.02 527.732 48.32C528.292 48.6 529.162 48.89 530.342 49.19C531.542 49.49 532.532 49.8 533.312 50.12C534.092 50.44 534.762 50.94 535.322 51.62C535.902 52.28 536.202 53.16 536.222 54.26C536.222 55.22 535.952 56.08 535.412 56.84C534.892 57.6 534.132 58.2 533.132 58.64C532.152 59.06 531.002 59.27 529.682 59.27ZM551.018 36.8V59H546.818V36.8H551.018ZM554.088 50.63C554.088 48.95 554.418 47.46 555.078 46.16C555.758 44.86 556.668 43.86 557.808 43.16C558.968 42.46 560.258 42.11 561.678 42.11C562.918 42.11 563.998 42.36 564.918 42.86C565.858 43.36 566.608 43.99 567.168 44.75V42.38H571.398V59H567.168V56.57C566.628 57.35 565.878 58 564.918 58.52C563.978 59.02 562.888 59.27 561.648 59.27C560.248 59.27 558.968 58.91 557.808 58.19C556.668 57.47 555.758 56.46 555.078 55.16C554.418 53.84 554.088 52.33 554.088 50.63ZM567.168 50.69C567.168 49.67 566.968 48.8 566.568 48.08C566.168 47.34 565.628 46.78 564.948 46.4C564.268 46 563.538 45.8 562.758 45.8C561.978 45.8 561.258 45.99 560.598 46.37C559.938 46.75 559.398 47.31 558.978 48.05C558.578 48.77 558.378 49.63 558.378 50.63C558.378 51.63 558.578 52.51 558.978 53.27C559.398 54.01 559.938 54.58 560.598 54.98C561.278 55.38 561.998 55.58 562.758 55.58C563.538 55.58 564.268 55.39 564.948 55.01C565.628 54.61 566.168 54.05 566.568 53.33C566.968 52.59 567.168 51.71 567.168 50.69ZM259.28 87.14C261.26 87.14 262.86 87.77 264.08 89.03C265.3 90.27 265.91 92.01 265.91 94.25V104H261.71V94.82C261.71 93.5 261.38 92.49 260.72 91.79C260.06 91.07 259.16 90.71 258.02 90.71C256.86 90.71 255.94 91.07 255.26 91.79C254.6 92.49 254.27 93.5 254.27 94.82V104H250.07V87.38H254.27V89.45C254.83 88.73 255.54 88.17 256.4 87.77C257.28 87.35 258.24 87.14 259.28 87.14ZM277.284 104.27C275.684 104.27 274.244 103.92 272.964 103.22C271.684 102.5 270.674 101.49 269.934 100.19C269.214 98.89 268.854 97.39 268.854 95.69C268.854 93.99 269.224 92.49 269.964 91.19C270.724 89.89 271.754 88.89 273.054 88.19C274.354 87.47 275.804 87.11 277.404 87.11C279.004 87.11 280.454 87.47 281.754 88.19C283.054 88.89 284.074 89.89 284.814 91.19C285.574 92.49 285.954 93.99 285.954 95.69C285.954 97.39 285.564 98.89 284.784 100.19C284.024 101.49 282.984 102.5 281.664 103.22C280.364 103.92 278.904 104.27 277.284 104.27ZM277.284 100.61C278.044 100.61 278.754 100.43 279.414 100.07C280.094 99.69 280.634 99.13 281.034 98.39C281.434 97.65 281.634 96.75 281.634 95.69C281.634 94.11 281.214 92.9 280.374 92.06C279.554 91.2 278.544 90.77 277.344 90.77C276.144 90.77 275.134 91.2 274.314 92.06C273.514 92.9 273.114 94.11 273.114 95.69C273.114 97.27 273.504 98.49 274.284 99.35C275.084 100.19 276.084 100.61 277.284 100.61ZM293.925 90.83V98.87C293.925 99.43 294.055 99.84 294.315 100.1C294.595 100.34 295.055 100.46 295.695 100.46H297.645V104H295.005C291.465 104 289.695 102.28 289.695 98.84V90.83H287.715V87.38H289.695V83.27H293.925V87.38H297.645V90.83H293.925ZM299.586 95.63C299.586 93.95 299.916 92.46 300.576 91.16C301.256 89.86 302.166 88.86 303.306 88.16C304.466 87.46 305.756 87.11 307.176 87.11C308.416 87.11 309.496 87.36 310.416 87.86C311.356 88.36 312.106 88.99 312.666 89.75V87.38H316.896V104H312.666V101.57C312.126 102.35 311.376 103 310.416 103.52C309.476 104.02 308.386 104.27 307.146 104.27C305.746 104.27 304.466 103.91 303.306 103.19C302.166 102.47 301.256 101.46 300.576 100.16C299.916 98.84 299.586 97.33 299.586 95.63ZM312.666 95.69C312.666 94.67 312.466 93.8 312.066 93.08C311.666 92.34 311.126 91.78 310.446 91.4C309.766 91 309.036 90.8 308.256 90.8C307.476 90.8 306.756 90.99 306.096 91.37C305.436 91.75 304.896 92.31 304.476 93.05C304.076 93.77 303.876 94.63 303.876 95.63C303.876 96.63 304.076 97.51 304.476 98.27C304.896 99.01 305.436 99.58 306.096 99.98C306.776 100.38 307.496 100.58 308.256 100.58C309.036 100.58 309.766 100.39 310.446 100.01C311.126 99.61 311.666 99.05 312.066 98.33C312.466 97.59 312.666 96.71 312.666 95.69ZM327.066 95.66C327.066 94 327.406 92.53 328.086 91.25C328.786 89.95 329.726 88.94 330.906 88.22C332.086 87.5 333.386 87.14 334.806 87.14C335.986 87.14 337.026 87.37 337.926 87.83C338.846 88.27 339.586 88.84 340.146 89.54V87.38H344.376V111.92H340.146V101.72C339.586 102.44 338.836 103.04 337.896 103.52C336.956 104 335.896 104.24 334.716 104.24C333.316 104.24 332.026 103.88 330.846 103.16C329.686 102.42 328.766 101.4 328.086 100.1C327.406 98.8 327.066 97.32 327.066 95.66ZM340.146 95.69C340.146 94.67 339.936 93.79 339.516 93.05C339.096 92.31 338.546 91.75 337.866 91.37C337.206 90.99 336.496 90.8 335.736 90.8C334.996 90.8 334.286 90.99 333.606 91.37C332.946 91.75 332.406 92.31 331.986 93.05C331.566 93.77 331.356 94.64 331.356 95.66C331.356 96.68 331.566 97.57 331.986 98.33C332.406 99.07 332.946 99.63 333.606 100.01C334.286 100.39 334.996 100.58 335.736 100.58C336.496 100.58 337.206 100.39 337.866 100.01C338.546 99.63 339.096 99.07 339.516 98.33C339.936 97.59 340.146 96.71 340.146 95.69ZM364.168 87.38V104H359.938V101.9C359.398 102.62 358.688 103.19 357.808 103.61C356.948 104.01 356.008 104.21 354.988 104.21C353.688 104.21 352.538 103.94 351.538 103.4C350.538 102.84 349.748 102.03 349.168 100.97C348.608 99.89 348.328 98.61 348.328 97.13V87.38H352.528V96.53C352.528 97.85 352.858 98.87 353.518 99.59C354.178 100.29 355.078 100.64 356.218 100.64C357.378 100.64 358.288 100.29 358.948 99.59C359.608 98.87 359.938 97.85 359.938 96.53V87.38H364.168ZM383.762 95.33C383.762 95.93 383.722 96.47 383.642 96.95H371.492C371.592 98.15 372.012 99.09 372.752 99.77C373.492 100.45 374.402 100.79 375.482 100.79C377.042 100.79 378.152 100.12 378.812 98.78H383.342C382.862 100.38 381.942 101.7 380.582 102.74C379.222 103.76 377.552 104.27 375.572 104.27C373.972 104.27 372.532 103.92 371.252 103.22C369.992 102.5 369.002 101.49 368.282 100.19C367.582 98.89 367.232 97.39 367.232 95.69C367.232 93.97 367.582 92.46 368.282 91.16C368.982 89.86 369.962 88.86 371.222 88.16C372.482 87.46 373.932 87.11 375.572 87.11C377.152 87.11 378.562 87.45 379.802 88.13C381.062 88.81 382.032 89.78 382.712 91.04C383.412 92.28 383.762 93.71 383.762 95.33ZM379.412 94.13C379.392 93.05 379.002 92.19 378.242 91.55C377.482 90.89 376.552 90.56 375.452 90.56C374.412 90.56 373.532 90.88 372.812 91.52C372.112 92.14 371.682 93.01 371.522 94.13H379.412ZM398.176 81.8V104H393.976V81.8H398.176ZM417.776 95.33C417.776 95.93 417.736 96.47 417.656 96.95H405.506C405.606 98.15 406.026 99.09 406.766 99.77C407.506 100.45 408.416 100.79 409.496 100.79C411.056 100.79 412.166 100.12 412.826 98.78H417.356C416.876 100.38 415.956 101.7 414.596 102.74C413.236 103.76 411.566 104.27 409.586 104.27C407.986 104.27 406.546 103.92 405.266 103.22C404.006 102.5 403.016 101.49 402.296 100.19C401.596 98.89 401.246 97.39 401.246 95.69C401.246 93.97 401.596 92.46 402.296 91.16C402.996 89.86 403.976 88.86 405.236 88.16C406.496 87.46 407.946 87.11 409.586 87.11C411.166 87.11 412.576 87.45 413.816 88.13C415.076 88.81 416.046 89.78 416.726 91.04C417.426 92.28 417.776 93.71 417.776 95.33ZM413.426 94.13C413.406 93.05 413.016 92.19 412.256 91.55C411.496 90.89 410.566 90.56 409.466 90.56C408.426 90.56 407.546 90.88 406.826 91.52C406.126 92.14 405.696 93.01 405.536 94.13H413.426ZM426.91 95.63C426.91 93.95 427.24 92.46 427.9 91.16C428.58 89.86 429.5 88.86 430.66 88.16C431.82 87.46 433.11 87.11 434.53 87.11C435.61 87.11 436.64 87.35 437.62 87.83C438.6 88.29 439.38 88.91 439.96 89.69V81.8H444.22V104H439.96V101.54C439.44 102.36 438.71 103.02 437.77 103.52C436.83 104.02 435.74 104.27 434.5 104.27C433.1 104.27 431.82 103.91 430.66 103.19C429.5 102.47 428.58 101.46 427.9 100.16C427.24 98.84 426.91 97.33 426.91 95.63ZM439.99 95.69C439.99 94.67 439.79 93.8 439.39 93.08C438.99 92.34 438.45 91.78 437.77 91.4C437.09 91 436.36 90.8 435.58 90.8C434.8 90.8 434.08 90.99 433.42 91.37C432.76 91.75 432.22 92.31 431.8 93.05C431.4 93.77 431.2 94.63 431.2 95.63C431.2 96.63 431.4 97.51 431.8 98.27C432.22 99.01 432.76 99.58 433.42 99.98C434.1 100.38 434.82 100.58 435.58 100.58C436.36 100.58 437.09 100.39 437.77 100.01C438.45 99.61 438.99 99.05 439.39 98.33C439.79 97.59 439.99 96.71 439.99 95.69ZM447.242 95.63C447.242 93.95 447.572 92.46 448.232 91.16C448.912 89.86 449.822 88.86 450.962 88.16C452.122 87.46 453.412 87.11 454.832 87.11C456.072 87.11 457.152 87.36 458.072 87.86C459.012 88.36 459.762 88.99 460.322 89.75V87.38H464.552V104H460.322V101.57C459.782 102.35 459.032 103 458.072 103.52C457.132 104.02 456.042 104.27 454.802 104.27C453.402 104.27 452.122 103.91 450.962 103.19C449.822 102.47 448.912 101.46 448.232 100.16C447.572 98.84 447.242 97.33 447.242 95.63ZM460.322 95.69C460.322 94.67 460.122 93.8 459.722 93.08C459.322 92.34 458.782 91.78 458.102 91.4C457.422 91 456.692 90.8 455.912 90.8C455.132 90.8 454.412 90.99 453.752 91.37C453.092 91.75 452.552 92.31 452.132 93.05C451.732 93.77 451.532 94.63 451.532 95.63C451.532 96.63 451.732 97.51 452.132 98.27C452.552 99.01 453.092 99.58 453.752 99.98C454.432 100.38 455.152 100.58 455.912 100.58C456.692 100.58 457.422 100.39 458.102 100.01C458.782 99.61 459.322 99.05 459.722 98.33C460.122 97.59 460.322 96.71 460.322 95.69ZM259.28 132.14C261.26 132.14 262.86 132.77 264.08 134.03C265.3 135.27 265.91 137.01 265.91 139.25V149H261.71V139.82C261.71 138.5 261.38 137.49 260.72 136.79C260.06 136.07 259.16 135.71 258.02 135.71C256.86 135.71 255.94 136.07 255.26 136.79C254.6 137.49 254.27 138.5 254.27 139.82V149H250.07V132.38H254.27V134.45C254.83 133.73 255.54 133.17 256.4 132.77C257.28 132.35 258.24 132.14 259.28 132.14ZM277.284 149.27C275.684 149.27 274.244 148.92 272.964 148.22C271.684 147.5 270.674 146.49 269.934 145.19C269.214 143.89 268.854 142.39 268.854 140.69C268.854 138.99 269.224 137.49 269.964 136.19C270.724 134.89 271.754 133.89 273.054 133.19C274.354 132.47 275.804 132.11 277.404 132.11C279.004 132.11 280.454 132.47 281.754 133.19C283.054 133.89 284.074 134.89 284.814 136.19C285.574 137.49 285.954 138.99 285.954 140.69C285.954 142.39 285.564 143.89 284.784 145.19C284.024 146.49 282.984 147.5 281.664 148.22C280.364 148.92 278.904 149.27 277.284 149.27ZM277.284 145.61C278.044 145.61 278.754 145.43 279.414 145.07C280.094 144.69 280.634 144.13 281.034 143.39C281.434 142.65 281.634 141.75 281.634 140.69C281.634 139.11 281.214 137.9 280.374 137.06C279.554 136.2 278.544 135.77 277.344 135.77C276.144 135.77 275.134 136.2 274.314 137.06C273.514 137.9 273.114 139.11 273.114 140.69C273.114 142.27 273.504 143.49 274.284 144.35C275.084 145.19 276.084 145.61 277.284 145.61ZM309.675 132.14C311.715 132.14 313.355 132.77 314.595 134.03C315.855 135.27 316.485 137.01 316.485 139.25V149H312.285V139.82C312.285 138.52 311.955 137.53 311.295 136.85C310.635 136.15 309.735 135.8 308.595 135.8C307.455 135.8 306.545 136.15 305.865 136.85C305.205 137.53 304.875 138.52 304.875 139.82V149H300.675V139.82C300.675 138.52 300.345 137.53 299.685 136.85C299.025 136.15 298.125 135.8 296.985 135.8C295.825 135.8 294.905 136.15 294.225 136.85C293.565 137.53 293.235 138.52 293.235 139.82V149H289.035V132.38H293.235V134.39C293.775 133.69 294.465 133.14 295.305 132.74C296.165 132.34 297.105 132.14 298.125 132.14C299.425 132.14 300.585 132.42 301.605 132.98C302.625 133.52 303.415 134.3 303.975 135.32C304.515 134.36 305.295 133.59 306.315 133.01C307.355 132.43 308.475 132.14 309.675 132.14ZM324.67 134.81C325.21 134.01 325.95 133.36 326.89 132.86C327.85 132.36 328.94 132.11 330.16 132.11C331.58 132.11 332.86 132.46 334 133.16C335.16 133.86 336.07 134.86 336.73 136.16C337.41 137.44 337.75 138.93 337.75 140.63C337.75 142.33 337.41 143.84 336.73 145.16C336.07 146.46 335.16 147.47 334 148.19C332.86 148.91 331.58 149.27 330.16 149.27C328.92 149.27 327.83 149.03 326.89 148.55C325.97 148.05 325.23 147.41 324.67 146.63V149H320.47V126.8H324.67V134.81ZM333.46 140.63C333.46 139.63 333.25 138.77 332.83 138.05C332.43 137.31 331.89 136.75 331.21 136.37C330.55 135.99 329.83 135.8 329.05 135.8C328.29 135.8 327.57 136 326.89 136.4C326.23 136.78 325.69 137.34 325.27 138.08C324.87 138.82 324.67 139.69 324.67 140.69C324.67 141.69 324.87 142.56 325.27 143.3C325.69 144.04 326.23 144.61 326.89 145.01C327.57 145.39 328.29 145.58 329.05 145.58C329.83 145.58 330.55 145.38 331.21 144.98C331.89 144.58 332.43 144.01 332.83 143.27C333.25 142.53 333.46 141.65 333.46 140.63ZM345.002 134.96C345.542 134.08 346.242 133.39 347.102 132.89C347.982 132.39 348.982 132.14 350.102 132.14V136.55H348.992C347.672 136.55 346.672 136.86 345.992 137.48C345.332 138.1 345.002 139.18 345.002 140.72V149H340.802V132.38H345.002V134.96ZM368.381 140.33C368.381 140.93 368.341 141.47 368.261 141.95H356.111C356.211 143.15 356.631 144.09 357.371 144.77C358.111 145.45 359.021 145.79 360.101 145.79C361.661 145.79 362.771 145.12 363.431 143.78H367.961C367.481 145.38 366.561 146.7 365.201 147.74C363.841 148.76 362.171 149.27 360.191 149.27C358.591 149.27 357.151 148.92 355.871 148.22C354.611 147.5 353.621 146.49 352.901 145.19C352.201 143.89 351.851 142.39 351.851 140.69C351.851 138.97 352.201 137.46 352.901 136.16C353.601 134.86 354.581 133.86 355.841 133.16C357.101 132.46 358.551 132.11 360.191 132.11C361.771 132.11 363.181 132.45 364.421 133.13C365.681 133.81 366.651 134.78 367.331 136.04C368.031 137.28 368.381 138.71 368.381 140.33ZM364.031 139.13C364.011 138.05 363.621 137.19 362.861 136.55C362.101 135.89 361.171 135.56 360.071 135.56C359.031 135.56 358.151 135.88 357.431 136.52C356.731 137.14 356.301 138.01 356.141 139.13H364.031ZM377.515 140.63C377.515 138.95 377.845 137.46 378.505 136.16C379.185 134.86 380.095 133.86 381.235 133.16C382.395 132.46 383.685 132.11 385.105 132.11C386.345 132.11 387.425 132.36 388.345 132.86C389.285 133.36 390.035 133.99 390.595 134.75V132.38H394.825V149H390.595V146.57C390.055 147.35 389.305 148 388.345 148.52C387.405 149.02 386.315 149.27 385.075 149.27C383.675 149.27 382.395 148.91 381.235 148.19C380.095 147.47 379.185 146.46 378.505 145.16C377.845 143.84 377.515 142.33 377.515 140.63ZM390.595 140.69C390.595 139.67 390.395 138.8 389.995 138.08C389.595 137.34 389.055 136.78 388.375 136.4C387.695 136 386.965 135.8 386.185 135.8C385.405 135.8 384.685 135.99 384.025 136.37C383.365 136.75 382.825 137.31 382.405 138.05C382.005 138.77 381.805 139.63 381.805 140.63C381.805 141.63 382.005 142.51 382.405 143.27C382.825 144.01 383.365 144.58 384.025 144.98C384.705 145.38 385.425 145.58 386.185 145.58C386.965 145.58 387.695 145.39 388.375 145.01C389.055 144.61 389.595 144.05 389.995 143.33C390.395 142.59 390.595 141.71 390.595 140.69ZM403.127 126.8V149H398.927V126.8H403.127ZM413.345 140.63C413.345 138.95 413.675 137.46 414.335 136.16C415.015 134.86 415.925 133.86 417.065 133.16C418.225 132.46 419.515 132.11 420.935 132.11C422.175 132.11 423.255 132.36 424.175 132.86C425.115 133.36 425.865 133.99 426.425 134.75V132.38H430.655V149H426.425V146.57C425.885 147.35 425.135 148 424.175 148.52C423.235 149.02 422.145 149.27 420.905 149.27C419.505 149.27 418.225 148.91 417.065 148.19C415.925 147.47 415.015 146.46 414.335 145.16C413.675 143.84 413.345 142.33 413.345 140.63ZM426.425 140.69C426.425 139.67 426.225 138.8 425.825 138.08C425.425 137.34 424.885 136.78 424.205 136.4C423.525 136 422.795 135.8 422.015 135.8C421.235 135.8 420.515 135.99 419.855 136.37C419.195 136.75 418.655 137.31 418.235 138.05C417.835 138.77 417.635 139.63 417.635 140.63C417.635 141.63 417.835 142.51 418.235 143.27C418.655 144.01 419.195 144.58 419.855 144.98C420.535 145.38 421.255 145.58 422.015 145.58C422.795 145.58 423.525 145.39 424.205 145.01C424.885 144.61 425.425 144.05 425.825 143.33C426.225 142.59 426.425 141.71 426.425 140.69ZM433.677 140.69C433.677 138.97 434.028 137.47 434.728 136.19C435.428 134.89 436.398 133.89 437.638 133.19C438.878 132.47 440.298 132.11 441.898 132.11C443.958 132.11 445.658 132.63 446.998 133.67C448.358 134.69 449.268 136.13 449.728 137.99H445.198C444.958 137.27 444.548 136.71 443.968 136.31C443.408 135.89 442.708 135.68 441.868 135.68C440.668 135.68 439.718 136.12 439.018 137C438.318 137.86 437.968 139.09 437.968 140.69C437.968 142.27 438.318 143.5 439.018 144.38C439.718 145.24 440.668 145.67 441.868 145.67C443.568 145.67 444.678 144.91 445.198 143.39H449.728C449.268 145.19 448.358 146.62 446.998 147.68C445.638 148.74 443.938 149.27 441.898 149.27C440.298 149.27 438.878 148.92 437.638 148.22C436.398 147.5 435.428 146.5 434.728 145.22C434.028 143.92 433.677 142.41 433.677 140.69ZM460.184 149.27C458.584 149.27 457.144 148.92 455.864 148.22C454.584 147.5 453.574 146.49 452.834 145.19C452.114 143.89 451.754 142.39 451.754 140.69C451.754 138.99 452.124 137.49 452.864 136.19C453.624 134.89 454.654 133.89 455.954 133.19C457.254 132.47 458.704 132.11 460.304 132.11C461.904 132.11 463.354 132.47 464.654 133.19C465.954 133.89 466.974 134.89 467.714 136.19C468.474 137.49 468.854 138.99 468.854 140.69C468.854 142.39 468.464 143.89 467.684 145.19C466.924 146.49 465.884 147.5 464.564 148.22C463.264 148.92 461.804 149.27 460.184 149.27ZM460.184 145.61C460.944 145.61 461.654 145.43 462.314 145.07C462.994 144.69 463.534 144.13 463.934 143.39C464.334 142.65 464.534 141.75 464.534 140.69C464.534 139.11 464.114 137.9 463.274 137.06C462.454 136.2 461.444 135.77 460.244 135.77C459.044 135.77 458.034 136.2 457.214 137.06C456.414 137.9 456.014 139.11 456.014 140.69C456.014 142.27 456.404 143.49 457.184 144.35C457.984 145.19 458.984 145.61 460.184 145.61ZM476.135 134.96C476.675 134.08 477.375 133.39 478.235 132.89C479.115 132.39 480.115 132.14 481.235 132.14V136.55H480.125C478.805 136.55 477.805 136.86 477.125 137.48C476.465 138.1 476.135 139.18 476.135 140.72V149H471.935V132.38H476.135V134.96ZM482.984 140.63C482.984 138.95 483.314 137.46 483.974 136.16C484.654 134.86 485.574 133.86 486.734 133.16C487.894 132.46 489.184 132.11 490.604 132.11C491.684 132.11 492.714 132.35 493.694 132.83C494.674 133.29 495.454 133.91 496.034 134.69V126.8H500.294V149H496.034V146.54C495.514 147.36 494.784 148.02 493.844 148.52C492.904 149.02 491.814 149.27 490.574 149.27C489.174 149.27 487.894 148.91 486.734 148.19C485.574 147.47 484.654 146.46 483.974 145.16C483.314 143.84 482.984 142.33 482.984 140.63ZM496.064 140.69C496.064 139.67 495.864 138.8 495.464 138.08C495.064 137.34 494.524 136.78 493.844 136.4C493.164 136 492.434 135.8 491.654 135.8C490.874 135.8 490.154 135.99 489.494 136.37C488.834 136.75 488.294 137.31 487.874 138.05C487.474 138.77 487.274 139.63 487.274 140.63C487.274 141.63 487.474 142.51 487.874 143.27C488.294 144.01 488.834 144.58 489.494 144.98C490.174 145.38 490.894 145.58 491.654 145.58C492.434 145.58 493.164 145.39 493.844 145.01C494.524 144.61 495.064 144.05 495.464 143.33C495.864 142.59 496.064 141.71 496.064 140.69ZM519.846 140.33C519.846 140.93 519.806 141.47 519.726 141.95H507.576C507.676 143.15 508.096 144.09 508.836 144.77C509.576 145.45 510.486 145.79 511.566 145.79C513.126 145.79 514.236 145.12 514.896 143.78H519.426C518.946 145.38 518.026 146.7 516.666 147.74C515.306 148.76 513.636 149.27 511.656 149.27C510.056 149.27 508.616 148.92 507.336 148.22C506.076 147.5 505.086 146.49 504.366 145.19C503.666 143.89 503.316 142.39 503.316 140.69C503.316 138.97 503.666 137.46 504.366 136.16C505.066 134.86 506.046 133.86 507.306 133.16C508.566 132.46 510.016 132.11 511.656 132.11C513.236 132.11 514.646 132.45 515.886 133.13C517.146 133.81 518.116 134.78 518.796 136.04C519.496 137.28 519.846 138.71 519.846 140.33ZM515.496 139.13C515.476 138.05 515.086 137.19 514.326 136.55C513.566 135.89 512.636 135.56 511.536 135.56C510.496 135.56 509.616 135.88 508.896 136.52C508.196 137.14 507.766 138.01 507.606 139.13H515.496ZM524.772 149.21C524.012 149.21 523.382 148.98 522.882 148.52C522.402 148.04 522.162 147.45 522.162 146.75C522.162 146.05 522.402 145.47 522.882 145.01C523.382 144.53 524.012 144.29 524.772 144.29C525.512 144.29 526.122 144.53 526.602 145.01C527.082 145.47 527.322 146.05 527.322 146.75C527.322 147.45 527.082 148.04 526.602 148.52C526.122 148.98 525.512 149.21 524.772 149.21Z" fill="#EFB55E"/>
<path d="M409.288 372C408.824 372 408.464 371.872 408.208 371.616C407.952 371.36 407.824 371.008 407.824 370.56V356.496C407.824 356.032 407.96 355.664 408.232 355.392C408.52 355.104 408.896 354.96 409.36 354.96C409.84 354.96 410.216 355.104 410.488 355.392C410.776 355.664 410.92 356.032 410.92 356.496V369.456H417.664C418.624 369.456 419.104 369.88 419.104 370.728C419.104 371.576 418.624 372 417.664 372H409.288ZM425.961 359.976C427.593 359.976 428.801 360.384 429.585 361.2C430.385 362 430.785 363.224 430.785 364.872V370.728C430.785 371.16 430.657 371.504 430.401 371.76C430.145 372 429.793 372.12 429.345 372.12C428.929 372.12 428.585 371.992 428.313 371.736C428.057 371.48 427.929 371.144 427.929 370.728V370.2C427.657 370.824 427.225 371.312 426.633 371.664C426.057 372.016 425.385 372.192 424.617 372.192C423.833 372.192 423.121 372.032 422.48 371.712C421.841 371.392 421.337 370.952 420.969 370.392C420.601 369.832 420.417 369.208 420.417 368.52C420.417 367.656 420.633 366.976 421.065 366.48C421.513 365.984 422.233 365.624 423.225 365.4C424.217 365.176 425.585 365.064 427.329 365.064H427.929V364.512C427.929 363.728 427.761 363.16 427.425 362.808C427.089 362.44 426.545 362.256 425.793 362.256C425.329 362.256 424.857 362.328 424.377 362.472C423.897 362.6 423.329 362.792 422.673 363.048C422.257 363.256 421.953 363.36 421.761 363.36C421.473 363.36 421.233 363.256 421.041 363.048C420.865 362.84 420.777 362.568 420.777 362.232C420.777 361.96 420.841 361.728 420.969 361.536C421.113 361.328 421.345 361.136 421.665 360.96C422.225 360.656 422.889 360.416 423.657 360.24C424.441 360.064 425.209 359.976 425.961 359.976ZM425.217 370.032C426.017 370.032 426.665 369.768 427.161 369.24C427.673 368.696 427.929 368 427.929 367.152V366.648H427.497C426.425 366.648 425.593 366.696 425.001 366.792C424.409 366.888 423.985 367.056 423.729 367.296C423.473 367.536 423.345 367.864 423.345 368.28C423.345 368.792 423.521 369.216 423.873 369.552C424.241 369.872 424.689 370.032 425.217 370.032ZM446.157 372.12C445.677 372.12 445.293 371.984 445.005 371.712C444.733 371.424 444.597 371.048 444.597 370.584V357.624H440.229C439.269 357.624 438.789 357.2 438.789 356.352C438.789 355.504 439.269 355.08 440.229 355.08H452.061C453.021 355.08 453.501 355.504 453.501 356.352C453.501 357.2 453.021 357.624 452.061 357.624H447.693V370.584C447.693 371.048 447.549 371.424 447.261 371.712C446.989 371.984 446.621 372.12 446.157 372.12ZM462.481 368.784C462.753 368.784 462.969 368.888 463.129 369.096C463.305 369.304 463.393 369.584 463.393 369.936C463.393 370.432 463.097 370.848 462.505 371.184C461.961 371.488 461.345 371.736 460.657 371.928C459.969 372.104 459.313 372.192 458.689 372.192C456.801 372.192 455.305 371.648 454.201 370.56C453.097 369.472 452.545 367.984 452.545 366.096C452.545 364.896 452.785 363.832 453.265 362.904C453.745 361.976 454.417 361.256 455.281 360.744C456.161 360.232 457.153 359.976 458.257 359.976C459.313 359.976 460.233 360.208 461.017 360.672C461.801 361.136 462.409 361.792 462.841 362.64C463.273 363.488 463.489 364.488 463.489 365.64C463.489 366.328 463.185 366.672 462.577 366.672H455.497C455.593 367.776 455.905 368.592 456.433 369.12C456.961 369.632 457.729 369.888 458.737 369.888C459.249 369.888 459.697 369.824 460.081 369.696C460.481 369.568 460.929 369.392 461.425 369.168C461.905 368.912 462.257 368.784 462.481 368.784ZM458.329 362.088C457.513 362.088 456.857 362.344 456.361 362.856C455.881 363.368 455.593 364.104 455.497 365.064H460.921C460.889 364.088 460.649 363.352 460.201 362.856C459.753 362.344 459.129 362.088 458.329 362.088ZM472.495 360.024C472.911 359.992 473.239 360.08 473.479 360.288C473.719 360.496 473.839 360.808 473.839 361.224C473.839 361.656 473.735 361.976 473.527 362.184C473.319 362.392 472.943 362.528 472.399 362.592L471.679 362.664C470.735 362.76 470.039 363.08 469.591 363.624C469.159 364.168 468.943 364.848 468.943 365.664V370.704C468.943 371.168 468.799 371.528 468.511 371.784C468.223 372.024 467.863 372.144 467.431 372.144C466.999 372.144 466.639 372.024 466.351 371.784C466.079 371.528 465.943 371.168 465.943 370.704V361.416C465.943 360.968 466.079 360.624 466.351 360.384C466.639 360.144 466.991 360.024 467.407 360.024C467.823 360.024 468.159 360.144 468.415 360.384C468.671 360.608 468.799 360.936 468.799 361.368V362.328C469.103 361.624 469.551 361.08 470.143 360.696C470.751 360.312 471.423 360.096 472.159 360.048L472.495 360.024ZM480.104 372.192C478.936 372.192 477.904 371.944 477.008 371.448C476.128 370.952 475.448 370.248 474.968 369.336C474.488 368.424 474.248 367.36 474.248 366.144C474.248 364.928 474.496 363.856 474.992 362.928C475.504 361.984 476.216 361.256 477.128 360.744C478.04 360.232 479.088 359.976 480.272 359.976C480.896 359.976 481.52 360.064 482.144 360.24C482.784 360.416 483.344 360.656 483.824 360.96C484.336 361.296 484.592 361.72 484.592 362.232C484.592 362.584 484.504 362.872 484.328 363.096C484.168 363.304 483.952 363.408 483.68 363.408C483.504 363.408 483.32 363.368 483.128 363.288C482.936 363.208 482.744 363.112 482.552 363C482.2 362.792 481.864 362.632 481.544 362.52C481.224 362.392 480.856 362.328 480.44 362.328C479.448 362.328 478.68 362.656 478.136 363.312C477.608 363.952 477.344 364.88 477.344 366.096C477.344 367.296 477.608 368.224 478.136 368.88C478.68 369.52 479.448 369.84 480.44 369.84C480.84 369.84 481.192 369.784 481.496 369.672C481.816 369.544 482.168 369.376 482.552 369.168C482.792 369.024 483 368.92 483.176 368.856C483.352 368.776 483.528 368.736 483.704 368.736C483.96 368.736 484.176 368.848 484.352 369.072C484.528 369.296 484.616 369.576 484.616 369.912C484.616 370.184 484.552 370.424 484.424 370.632C484.312 370.824 484.12 371 483.848 371.16C483.352 371.48 482.776 371.736 482.12 371.928C481.464 372.104 480.792 372.192 480.104 372.192ZM495.903 368.784C496.175 368.784 496.391 368.888 496.551 369.096C496.727 369.304 496.815 369.584 496.815 369.936C496.815 370.432 496.519 370.848 495.927 371.184C495.383 371.488 494.767 371.736 494.079 371.928C493.391 372.104 492.735 372.192 492.111 372.192C490.223 372.192 488.727 371.648 487.623 370.56C486.519 369.472 485.967 367.984 485.967 366.096C485.967 364.896 486.207 363.832 486.687 362.904C487.167 361.976 487.839 361.256 488.703 360.744C489.583 360.232 490.575 359.976 491.679 359.976C492.735 359.976 493.655 360.208 494.439 360.672C495.223 361.136 495.831 361.792 496.263 362.64C496.695 363.488 496.911 364.488 496.911 365.64C496.911 366.328 496.607 366.672 495.999 366.672H488.919C489.015 367.776 489.327 368.592 489.855 369.12C490.383 369.632 491.151 369.888 492.159 369.888C492.671 369.888 493.119 369.824 493.503 369.696C493.903 369.568 494.351 369.392 494.847 369.168C495.327 368.912 495.679 368.784 495.903 368.784ZM491.751 362.088C490.935 362.088 490.279 362.344 489.783 362.856C489.303 363.368 489.015 364.104 488.919 365.064H494.343C494.311 364.088 494.071 363.352 493.623 362.856C493.175 362.344 492.551 362.088 491.751 362.088ZM505.917 360.024C506.333 359.992 506.661 360.08 506.901 360.288C507.141 360.496 507.261 360.808 507.261 361.224C507.261 361.656 507.157 361.976 506.949 362.184C506.741 362.392 506.365 362.528 505.821 362.592L505.101 362.664C504.157 362.76 503.461 363.08 503.013 363.624C502.581 364.168 502.365 364.848 502.365 365.664V370.704C502.365 371.168 502.221 371.528 501.933 371.784C501.645 372.024 501.285 372.144 500.853 372.144C500.421 372.144 500.061 372.024 499.773 371.784C499.501 371.528 499.365 371.168 499.365 370.704V361.416C499.365 360.968 499.501 360.624 499.773 360.384C500.061 360.144 500.413 360.024 500.829 360.024C501.245 360.024 501.581 360.144 501.837 360.384C502.093 360.608 502.221 360.936 502.221 361.368V362.328C502.525 361.624 502.973 361.08 503.565 360.696C504.173 360.312 504.845 360.096 505.581 360.048L505.917 360.024ZM513.593 359.976C515.225 359.976 516.433 360.384 517.217 361.2C518.017 362 518.417 363.224 518.417 364.872V370.728C518.417 371.16 518.289 371.504 518.033 371.76C517.777 372 517.425 372.12 516.977 372.12C516.561 372.12 516.217 371.992 515.945 371.736C515.689 371.48 515.561 371.144 515.561 370.728V370.2C515.289 370.824 514.857 371.312 514.265 371.664C513.689 372.016 513.017 372.192 512.249 372.192C511.465 372.192 510.753 372.032 510.113 371.712C509.473 371.392 508.969 370.952 508.601 370.392C508.233 369.832 508.049 369.208 508.049 368.52C508.049 367.656 508.265 366.976 508.697 366.48C509.145 365.984 509.865 365.624 510.857 365.4C511.849 365.176 513.217 365.064 514.961 365.064H515.561V364.512C515.561 363.728 515.393 363.16 515.057 362.808C514.721 362.44 514.177 362.256 513.425 362.256C512.961 362.256 512.489 362.328 512.009 362.472C511.529 362.6 510.961 362.792 510.305 363.048C509.889 363.256 509.585 363.36 509.393 363.36C509.105 363.36 508.865 363.256 508.673 363.048C508.497 362.84 508.409 362.568 508.409 362.232C508.409 361.96 508.473 361.728 508.601 361.536C508.745 361.328 508.977 361.136 509.297 360.96C509.857 360.656 510.521 360.416 511.289 360.24C512.073 360.064 512.841 359.976 513.593 359.976ZM512.849 370.032C513.649 370.032 514.297 369.768 514.793 369.24C515.305 368.696 515.561 368 515.561 367.152V366.648H515.129C514.057 366.648 513.225 366.696 512.633 366.792C512.041 366.888 511.617 367.056 511.361 367.296C511.105 367.536 510.977 367.864 510.977 368.28C510.977 368.792 511.153 369.216 511.505 369.552C511.873 369.872 512.321 370.032 512.849 370.032Z" fill="#E7E2DA"/>
<path d="M409.288 443C408.824 443 408.464 442.872 408.208 442.616C407.952 442.36 407.824 442.008 407.824 441.56V427.496C407.824 427.032 407.96 426.664 408.232 426.392C408.52 426.104 408.896 425.96 409.36 425.96C409.84 425.96 410.216 426.104 410.488 426.392C410.776 426.664 410.92 427.032 410.92 427.496V440.456H417.664C418.624 440.456 419.104 440.88 419.104 441.728C419.104 442.576 418.624 443 417.664 443H409.288ZM425.961 430.976C427.593 430.976 428.801 431.384 429.585 432.2C430.385 433 430.785 434.224 430.785 435.872V441.728C430.785 442.16 430.657 442.504 430.401 442.76C430.145 443 429.793 443.12 429.345 443.12C428.929 443.12 428.585 442.992 428.313 442.736C428.057 442.48 427.929 442.144 427.929 441.728V441.2C427.657 441.824 427.225 442.312 426.633 442.664C426.057 443.016 425.385 443.192 424.617 443.192C423.833 443.192 423.121 443.032 422.48 442.712C421.841 442.392 421.337 441.952 420.969 441.392C420.601 440.832 420.417 440.208 420.417 439.52C420.417 438.656 420.633 437.976 421.065 437.48C421.513 436.984 422.233 436.624 423.225 436.4C424.217 436.176 425.585 436.064 427.329 436.064H427.929V435.512C427.929 434.728 427.761 434.16 427.425 433.808C427.089 433.44 426.545 433.256 425.793 433.256C425.329 433.256 424.857 433.328 424.377 433.472C423.897 433.6 423.329 433.792 422.673 434.048C422.257 434.256 421.953 434.36 421.761 434.36C421.473 434.36 421.233 434.256 421.041 434.048C420.865 433.84 420.777 433.568 420.777 433.232C420.777 432.96 420.841 432.728 420.969 432.536C421.113 432.328 421.345 432.136 421.665 431.96C422.225 431.656 422.889 431.416 423.657 431.24C424.441 431.064 425.209 430.976 425.961 430.976ZM425.217 441.032C426.017 441.032 426.665 440.768 427.161 440.24C427.673 439.696 427.929 439 427.929 438.152V437.648H427.497C426.425 437.648 425.593 437.696 425.001 437.792C424.409 437.888 423.985 438.056 423.729 438.296C423.473 438.536 423.345 438.864 423.345 439.28C423.345 439.792 423.521 440.216 423.873 440.552C424.241 440.872 424.689 441.032 425.217 441.032ZM442.149 443.144C441.685 443.144 441.309 443 441.021 442.712C440.749 442.424 440.613 442.048 440.613 441.584V427.544C440.613 427.08 440.741 426.72 440.997 426.464C441.269 426.208 441.637 426.08 442.101 426.08H450.525C451.501 426.08 451.989 426.496 451.989 427.328C451.989 428.144 451.501 428.552 450.525 428.552H443.661V433.16H450.045C451.021 433.16 451.509 433.576 451.509 434.408C451.509 435.224 451.021 435.632 450.045 435.632H443.661V441.584C443.661 442.048 443.525 442.424 443.253 442.712C442.981 443 442.613 443.144 442.149 443.144ZM462.972 431.024C463.436 431.024 463.804 431.152 464.076 431.408C464.348 431.664 464.484 432.008 464.484 432.44V441.752C464.484 442.168 464.34 442.504 464.052 442.76C463.78 443.016 463.42 443.144 462.972 443.144C462.54 443.144 462.196 443.024 461.94 442.784C461.684 442.544 461.556 442.216 461.556 441.8V441.2C461.188 441.84 460.692 442.336 460.068 442.688C459.444 443.024 458.74 443.192 457.956 443.192C455.076 443.192 453.636 441.576 453.636 438.344V432.44C453.636 432.008 453.772 431.664 454.044 431.408C454.316 431.152 454.676 431.024 455.124 431.024C455.588 431.024 455.956 431.152 456.228 431.408C456.5 431.664 456.636 432.008 456.636 432.44V438.368C456.636 439.2 456.804 439.816 457.14 440.216C457.476 440.616 458.004 440.816 458.724 440.816C459.556 440.816 460.22 440.544 460.716 440C461.228 439.44 461.484 438.704 461.484 437.792V432.44C461.484 432.008 461.62 431.664 461.892 431.408C462.164 431.152 462.524 431.024 462.972 431.024ZM474.423 430.976C475.831 430.976 476.879 431.376 477.567 432.176C478.255 432.976 478.599 434.184 478.599 435.8V441.704C478.599 442.152 478.463 442.504 478.191 442.76C477.935 443.016 477.575 443.144 477.111 443.144C476.647 443.144 476.279 443.016 476.007 442.76C475.735 442.504 475.599 442.152 475.599 441.704V435.968C475.599 435.056 475.423 434.392 475.071 433.976C474.735 433.56 474.199 433.352 473.463 433.352C472.599 433.352 471.903 433.624 471.375 434.168C470.863 434.712 470.607 435.44 470.607 436.352V441.704C470.607 442.152 470.471 442.504 470.199 442.76C469.927 443.016 469.559 443.144 469.095 443.144C468.631 443.144 468.263 443.016 467.991 442.76C467.735 442.504 467.607 442.152 467.607 441.704V432.416C467.607 432 467.743 431.664 468.015 431.408C468.287 431.152 468.655 431.024 469.119 431.024C469.535 431.024 469.871 431.152 470.127 431.408C470.399 431.648 470.535 431.968 470.535 432.368V433.016C470.935 432.36 471.471 431.856 472.143 431.504C472.815 431.152 473.575 430.976 474.423 430.976ZM491.438 425.96C491.886 425.96 492.254 426.088 492.542 426.344C492.83 426.6 492.974 426.936 492.974 427.352V441.704C492.974 442.136 492.838 442.48 492.566 442.736C492.294 442.992 491.934 443.12 491.486 443.12C491.038 443.12 490.678 442.992 490.406 442.736C490.134 442.48 489.998 442.136 489.998 441.704V441.104C489.646 441.76 489.134 442.272 488.462 442.64C487.806 443.008 487.054 443.192 486.206 443.192C485.198 443.192 484.294 442.936 483.494 442.424C482.71 441.912 482.094 441.192 481.646 440.264C481.214 439.32 480.998 438.24 480.998 437.024C480.998 435.808 481.214 434.744 481.646 433.832C482.094 432.92 482.71 432.216 483.494 431.72C484.278 431.224 485.182 430.976 486.206 430.976C487.054 430.976 487.806 431.152 488.462 431.504C489.118 431.856 489.622 432.352 489.974 432.992V427.304C489.974 426.904 490.102 426.584 490.358 426.344C490.63 426.088 490.99 425.96 491.438 425.96ZM486.998 440.864C487.958 440.864 488.694 440.536 489.206 439.88C489.734 439.224 489.998 438.288 489.998 437.072C489.998 435.856 489.734 434.928 489.206 434.288C488.694 433.632 487.966 433.304 487.022 433.304C486.062 433.304 485.318 433.624 484.79 434.264C484.262 434.904 483.998 435.824 483.998 437.024C483.998 438.24 484.262 439.184 484.79 439.856C485.318 440.528 486.054 440.864 486.998 440.864ZM501.148 430.976C502.78 430.976 503.988 431.384 504.772 432.2C505.572 433 505.972 434.224 505.972 435.872V441.728C505.972 442.16 505.844 442.504 505.588 442.76C505.332 443 504.98 443.12 504.532 443.12C504.116 443.12 503.772 442.992 503.5 442.736C503.244 442.48 503.116 442.144 503.116 441.728V441.2C502.844 441.824 502.412 442.312 501.82 442.664C501.244 443.016 500.572 443.192 499.804 443.192C499.02 443.192 498.308 443.032 497.668 442.712C497.028 442.392 496.524 441.952 496.156 441.392C495.788 440.832 495.604 440.208 495.604 439.52C495.604 438.656 495.82 437.976 496.252 437.48C496.7 436.984 497.42 436.624 498.412 436.4C499.404 436.176 500.772 436.064 502.516 436.064H503.116V435.512C503.116 434.728 502.948 434.16 502.612 433.808C502.276 433.44 501.732 433.256 500.98 433.256C500.516 433.256 500.044 433.328 499.564 433.472C499.084 433.6 498.516 433.792 497.86 434.048C497.444 434.256 497.14 434.36 496.948 434.36C496.66 434.36 496.42 434.256 496.228 434.048C496.052 433.84 495.964 433.568 495.964 433.232C495.964 432.96 496.028 432.728 496.156 432.536C496.3 432.328 496.532 432.136 496.852 431.96C497.412 431.656 498.076 431.416 498.844 431.24C499.628 431.064 500.396 430.976 501.148 430.976ZM500.404 441.032C501.204 441.032 501.852 440.768 502.348 440.24C502.86 439.696 503.116 439 503.116 438.152V437.648H502.684C501.612 437.648 500.78 437.696 500.188 437.792C499.596 437.888 499.172 438.056 498.916 438.296C498.66 438.536 498.532 438.864 498.532 439.28C498.532 439.792 498.708 440.216 499.06 440.552C499.428 440.872 499.876 441.032 500.404 441.032ZM522.965 430.976C524.245 430.976 525.221 431.36 525.893 432.128C526.581 432.88 526.925 434.104 526.925 435.8V441.704C526.925 442.168 526.781 442.528 526.493 442.784C526.221 443.024 525.861 443.144 525.413 443.144C524.981 443.144 524.621 443.024 524.333 442.784C524.061 442.528 523.925 442.168 523.925 441.704V435.8C523.925 434.92 523.765 434.296 523.445 433.928C523.141 433.544 522.669 433.352 522.029 433.352C521.245 433.352 520.621 433.624 520.157 434.168C519.693 434.696 519.461 435.424 519.461 436.352V441.704C519.461 442.168 519.317 442.528 519.029 442.784C518.757 443.024 518.405 443.144 517.973 443.144C517.541 443.144 517.181 443.024 516.893 442.784C516.605 442.528 516.461 442.168 516.461 441.704V435.8C516.461 434.92 516.301 434.296 515.981 433.928C515.677 433.544 515.205 433.352 514.565 433.352C513.781 433.352 513.157 433.624 512.693 434.168C512.245 434.696 512.021 435.424 512.021 436.352V441.704C512.021 442.168 511.877 442.528 511.589 442.784C511.301 443.024 510.941 443.144 510.509 443.144C510.077 443.144 509.717 443.024 509.429 442.784C509.157 442.528 509.021 442.168 509.021 441.704V432.416C509.021 431.968 509.165 431.624 509.453 431.384C509.741 431.144 510.101 431.024 510.533 431.024C510.949 431.024 511.285 431.144 511.541 431.384C511.813 431.608 511.949 431.936 511.949 432.368V432.944C512.317 432.304 512.805 431.816 513.413 431.48C514.037 431.144 514.749 430.976 515.549 430.976C517.309 430.976 518.485 431.712 519.077 433.184C519.429 432.512 519.949 431.976 520.637 431.576C521.325 431.176 522.101 430.976 522.965 430.976ZM539.262 439.784C539.534 439.784 539.75 439.888 539.91 440.096C540.086 440.304 540.174 440.584 540.174 440.936C540.174 441.432 539.878 441.848 539.286 442.184C538.742 442.488 538.126 442.736 537.438 442.928C536.75 443.104 536.094 443.192 535.47 443.192C533.582 443.192 532.086 442.648 530.982 441.56C529.878 440.472 529.326 438.984 529.326 437.096C529.326 435.896 529.566 434.832 530.046 433.904C530.526 432.976 531.198 432.256 532.062 431.744C532.942 431.232 533.934 430.976 535.038 430.976C536.094 430.976 537.014 431.208 537.798 431.672C538.582 432.136 539.19 432.792 539.622 433.64C540.054 434.488 540.27 435.488 540.27 436.64C540.27 437.328 539.966 437.672 539.358 437.672H532.278C532.374 438.776 532.686 439.592 533.214 440.12C533.742 440.632 534.51 440.888 535.518 440.888C536.03 440.888 536.478 440.824 536.862 440.696C537.262 440.568 537.71 440.392 538.206 440.168C538.686 439.912 539.038 439.784 539.262 439.784ZM535.11 433.088C534.294 433.088 533.638 433.344 533.142 433.856C532.662 434.368 532.374 435.104 532.278 436.064H537.702C537.67 435.088 537.43 434.352 536.982 433.856C536.534 433.344 535.91 433.088 535.11 433.088ZM549.54 430.976C550.948 430.976 551.996 431.376 552.684 432.176C553.372 432.976 553.716 434.184 553.716 435.8V441.704C553.716 442.152 553.58 442.504 553.308 442.76C553.052 443.016 552.692 443.144 552.228 443.144C551.764 443.144 551.396 443.016 551.124 442.76C550.852 442.504 550.716 442.152 550.716 441.704V435.968C550.716 435.056 550.54 434.392 550.188 433.976C549.852 433.56 549.316 433.352 548.58 433.352C547.716 433.352 547.02 433.624 546.492 434.168C545.98 434.712 545.724 435.44 545.724 436.352V441.704C545.724 442.152 545.588 442.504 545.316 442.76C545.044 443.016 544.676 443.144 544.212 443.144C543.748 443.144 543.38 443.016 543.108 442.76C542.852 442.504 542.724 442.152 542.724 441.704V432.416C542.724 432 542.86 431.664 543.132 431.408C543.404 431.152 543.772 431.024 544.236 431.024C544.652 431.024 544.988 431.152 545.244 431.408C545.516 431.648 545.652 431.968 545.652 432.368V433.016C546.052 432.36 546.588 431.856 547.26 431.504C547.932 431.152 548.692 430.976 549.54 430.976ZM562.859 440.912C563.659 440.96 564.059 441.32 564.059 441.992C564.059 442.376 563.899 442.672 563.579 442.88C563.275 443.072 562.835 443.152 562.259 443.12L561.611 443.072C558.923 442.88 557.579 441.44 557.579 438.752V433.52H556.379C555.947 433.52 555.611 433.424 555.371 433.232C555.147 433.04 555.035 432.76 555.035 432.392C555.035 432.024 555.147 431.744 555.371 431.552C555.611 431.36 555.947 431.264 556.379 431.264H557.579V429.056C557.579 428.624 557.715 428.28 557.987 428.024C558.259 427.768 558.627 427.64 559.091 427.64C559.539 427.64 559.899 427.768 560.171 428.024C560.443 428.28 560.579 428.624 560.579 429.056V431.264H562.619C563.051 431.264 563.379 431.36 563.603 431.552C563.843 431.744 563.963 432.024 563.963 432.392C563.963 432.76 563.843 433.04 563.603 433.232C563.379 433.424 563.051 433.52 562.619 433.52H560.579V438.968C560.579 440.152 561.123 440.784 562.211 440.864L562.859 440.912ZM570.711 430.976C572.343 430.976 573.551 431.384 574.335 432.2C575.135 433 575.535 434.224 575.535 435.872V441.728C575.535 442.16 575.407 442.504 575.151 442.76C574.895 443 574.543 443.12 574.095 443.12C573.679 443.12 573.335 442.992 573.063 442.736C572.807 442.48 572.679 442.144 572.679 441.728V441.2C572.407 441.824 571.975 442.312 571.383 442.664C570.807 443.016 570.135 443.192 569.367 443.192C568.583 443.192 567.871 443.032 567.23 442.712C566.591 442.392 566.087 441.952 565.719 441.392C565.351 440.832 565.167 440.208 565.167 439.52C565.167 438.656 565.383 437.976 565.815 437.48C566.263 436.984 566.983 436.624 567.975 436.4C568.967 436.176 570.335 436.064 572.079 436.064H572.679V435.512C572.679 434.728 572.511 434.16 572.175 433.808C571.839 433.44 571.295 433.256 570.543 433.256C570.079 433.256 569.607 433.328 569.127 433.472C568.647 433.6 568.079 433.792 567.423 434.048C567.007 434.256 566.703 434.36 566.511 434.36C566.223 434.36 565.983 434.256 565.791 434.048C565.615 433.84 565.527 433.568 565.527 433.232C565.527 432.96 565.591 432.728 565.719 432.536C565.863 432.328 566.095 432.136 566.415 431.96C566.975 431.656 567.639 431.416 568.407 431.24C569.191 431.064 569.959 430.976 570.711 430.976ZM569.967 441.032C570.767 441.032 571.415 440.768 571.911 440.24C572.423 439.696 572.679 439 572.679 438.152V437.648H572.247C571.175 437.648 570.343 437.696 569.751 437.792C569.159 437.888 568.735 438.056 568.479 438.296C568.223 438.536 568.095 438.864 568.095 439.28C568.095 439.792 568.271 440.216 568.623 440.552C568.991 440.872 569.439 441.032 569.967 441.032ZM580.071 443.144C579.639 443.144 579.279 443.024 578.991 442.784C578.719 442.528 578.583 442.168 578.583 441.704V427.376C578.583 426.912 578.719 426.56 578.991 426.32C579.279 426.08 579.639 425.96 580.071 425.96C580.503 425.96 580.863 426.08 581.151 426.32C581.439 426.56 581.583 426.912 581.583 427.376V441.704C581.583 442.168 581.439 442.528 581.151 442.784C580.863 443.024 580.503 443.144 580.071 443.144Z" fill="#E7E2DA"/>
<circle cx="347" cy="435" r="23.5" fill="#F9FBFF" stroke="#68DE3E" stroke-width="3"/>
<path d="M336.469 442C336.082 442 335.776 441.893 335.549 441.68C335.336 441.467 335.229 441.167 335.229 440.78V429.12C335.229 428.733 335.336 428.433 335.549 428.22C335.776 428.007 336.082 427.9 336.469 427.9H340.429C342.736 427.9 344.522 428.52 345.789 429.76C347.069 430.987 347.709 432.713 347.709 434.94C347.709 437.18 347.069 438.92 345.789 440.16C344.522 441.387 342.736 442 340.429 442H336.469ZM340.269 439.9C343.509 439.9 345.129 438.247 345.129 434.94C345.129 431.647 343.509 430 340.269 430H337.809V439.9H340.269ZM354.547 442.16C353.547 442.16 352.667 441.953 351.907 441.54C351.16 441.127 350.58 440.533 350.167 439.76C349.754 438.987 349.547 438.087 349.547 437.06C349.547 436.033 349.754 435.14 350.167 434.38C350.58 433.607 351.16 433.013 351.907 432.6C352.667 432.187 353.547 431.98 354.547 431.98C355.547 431.98 356.42 432.187 357.167 432.6C357.927 433.013 358.507 433.607 358.907 434.38C359.32 435.14 359.527 436.033 359.527 437.06C359.527 438.087 359.32 438.987 358.907 439.76C358.507 440.533 357.927 441.127 357.167 441.54C356.42 441.953 355.547 442.16 354.547 442.16ZM354.527 440.22C355.34 440.22 355.96 439.953 356.387 439.42C356.814 438.887 357.027 438.1 357.027 437.06C357.027 436.033 356.814 435.253 356.387 434.72C355.96 434.173 355.347 433.9 354.547 433.9C353.747 433.9 353.127 434.173 352.687 434.72C352.26 435.253 352.047 436.033 352.047 437.06C352.047 438.1 352.26 438.887 352.687 439.42C353.114 439.953 353.727 440.22 354.527 440.22Z" fill="black"/>
<circle cx="347" cy="365" r="23.5" fill="#F9FBFF" stroke="#68DE3E" stroke-width="3"/>
<path d="M350.093 357.8C350.466 357.8 350.766 357.92 350.993 358.16C351.219 358.387 351.333 358.693 351.333 359.08V370.92C351.333 371.293 351.226 371.587 351.013 371.8C350.799 372.013 350.519 372.12 350.173 372.12C349.826 372.12 349.553 372.013 349.353 371.8C349.153 371.587 349.053 371.293 349.053 370.92V362.68L345.653 369.12C345.493 369.413 345.319 369.633 345.133 369.78C344.946 369.913 344.726 369.98 344.473 369.98C344.219 369.98 343.999 369.913 343.813 369.78C343.626 369.647 343.453 369.427 343.293 369.12L339.873 362.78V370.92C339.873 371.28 339.766 371.573 339.553 371.8C339.353 372.013 339.079 372.12 338.733 372.12C338.386 372.12 338.113 372.013 337.913 371.8C337.713 371.587 337.613 371.293 337.613 370.92V359.08C337.613 358.693 337.719 358.387 337.933 358.16C338.159 357.92 338.459 357.8 338.833 357.8C339.353 357.8 339.759 358.087 340.053 358.66L344.493 367.12L348.913 358.66C349.206 358.087 349.599 357.8 350.093 357.8ZM355.409 372.12C355.049 372.12 354.749 372.02 354.509 371.82C354.282 371.607 354.169 371.307 354.169 370.92V363.2C354.169 362.813 354.282 362.52 354.509 362.32C354.749 362.12 355.049 362.02 355.409 362.02C355.769 362.02 356.069 362.12 356.309 362.32C356.549 362.52 356.669 362.813 356.669 363.2V370.92C356.669 371.307 356.549 371.607 356.309 371.82C356.069 372.02 355.769 372.12 355.409 372.12ZM355.409 360.24C354.956 360.24 354.596 360.12 354.329 359.88C354.062 359.627 353.929 359.3 353.929 358.9C353.929 358.5 354.062 358.18 354.329 357.94C354.596 357.7 354.956 357.58 355.409 357.58C355.849 357.58 356.202 357.7 356.469 357.94C356.749 358.18 356.889 358.5 356.889 358.9C356.889 359.3 356.756 359.627 356.489 359.88C356.222 360.12 355.862 360.24 355.409 360.24Z" fill="black"/>
<circle cx="346" cy="295" r="23.5" fill="#F9FBFF" stroke="#68DE3E" stroke-width="3"/>
<path d="M337.732 302.18C336.705 302.18 335.732 302.047 334.812 301.78C333.905 301.5 333.165 301.127 332.592 300.66C332.285 300.433 332.132 300.113 332.132 299.7C332.132 299.42 332.212 299.18 332.372 298.98C332.545 298.767 332.745 298.66 332.972 298.66C333.212 298.66 333.485 298.753 333.792 298.94C334.365 299.353 334.965 299.653 335.592 299.84C336.219 300.027 336.912 300.12 337.672 300.12C338.645 300.12 339.392 299.953 339.912 299.62C340.432 299.273 340.692 298.773 340.692 298.12C340.692 297.613 340.445 297.227 339.952 296.96C339.472 296.68 338.665 296.413 337.532 296.16C336.359 295.907 335.405 295.613 334.672 295.28C333.939 294.947 333.385 294.52 333.012 294C332.639 293.48 332.452 292.82 332.452 292.02C332.452 291.193 332.685 290.453 333.152 289.8C333.619 289.147 334.265 288.64 335.092 288.28C335.932 287.907 336.872 287.72 337.912 287.72C339.819 287.72 341.372 288.227 342.572 289.24C342.745 289.387 342.865 289.533 342.932 289.68C343.012 289.813 343.052 289.987 343.052 290.2C343.052 290.48 342.965 290.727 342.792 290.94C342.632 291.14 342.439 291.24 342.212 291.24C342.079 291.24 341.952 291.22 341.832 291.18C341.725 291.14 341.579 291.067 341.392 290.96C340.845 290.56 340.312 290.267 339.792 290.08C339.285 289.88 338.659 289.78 337.912 289.78C337.005 289.78 336.285 289.967 335.752 290.34C335.232 290.7 334.972 291.207 334.972 291.86C334.972 292.407 335.205 292.827 335.672 293.12C336.139 293.413 336.932 293.687 338.052 293.94C339.239 294.207 340.199 294.507 340.932 294.84C341.679 295.16 342.245 295.573 342.632 296.08C343.032 296.587 343.232 297.22 343.232 297.98C343.232 298.807 342.999 299.54 342.532 300.18C342.079 300.807 341.432 301.3 340.592 301.66C339.765 302.007 338.812 302.18 337.732 302.18ZM349.846 302.16C348.846 302.16 347.966 301.953 347.206 301.54C346.459 301.127 345.879 300.533 345.466 299.76C345.053 298.987 344.846 298.087 344.846 297.06C344.846 296.033 345.053 295.14 345.466 294.38C345.879 293.607 346.459 293.013 347.206 292.6C347.966 292.187 348.846 291.98 349.846 291.98C350.846 291.98 351.719 292.187 352.466 292.6C353.226 293.013 353.806 293.607 354.206 294.38C354.619 295.14 354.826 296.033 354.826 297.06C354.826 298.087 354.619 298.987 354.206 299.76C353.806 300.533 353.226 301.127 352.466 301.54C351.719 301.953 350.846 302.16 349.846 302.16ZM349.826 300.22C350.639 300.22 351.259 299.953 351.686 299.42C352.113 298.887 352.326 298.1 352.326 297.06C352.326 296.033 352.113 295.253 351.686 294.72C351.259 294.173 350.646 293.9 349.846 293.9C349.046 293.9 348.426 294.173 347.986 294.72C347.559 295.253 347.346 296.033 347.346 297.06C347.346 298.1 347.559 298.887 347.986 299.42C348.413 299.953 349.026 300.22 349.826 300.22ZM358.13 302.12C357.77 302.12 357.47 302.02 357.23 301.82C357.003 301.607 356.89 301.307 356.89 300.92V288.98C356.89 288.593 357.003 288.3 357.23 288.1C357.47 287.9 357.77 287.8 358.13 287.8C358.49 287.8 358.79 287.9 359.03 288.1C359.27 288.3 359.39 288.593 359.39 288.98V300.92C359.39 301.307 359.27 301.607 359.03 301.82C358.79 302.02 358.49 302.12 358.13 302.12Z" fill="black"/>
<g filter="url(#filter12_i)">
<path d="M0 436H108C110.761 436 113 438.239 113 441V464C113 466.761 110.761 469 108 469H0V436Z" fill="#8F8F8F"/>
</g>
<path d="M0.5 436.5H108C110.485 436.5 112.5 438.515 112.5 441V464C112.5 466.485 110.485 468.5 108 468.5H0.5V436.5Z" stroke="black"/>
<g filter="url(#filter13_i)">
<path d="M0 389H108C110.761 389 113 391.239 113 394V417C113 419.761 110.761 422 108 422H0V389Z" fill="#8F8F8F"/>
</g>
<path d="M0.5 389.5H108C110.485 389.5 112.5 391.515 112.5 394V417C112.5 419.485 110.485 421.5 108 421.5H0.5V389.5Z" stroke="black"/>
<g filter="url(#filter14_i)">
<path d="M0 295H108C110.761 295 113 297.239 113 300V323C113 325.761 110.761 328 108 328H0V295Z" fill="#8F8F8F"/>
</g>
<path d="M0.5 295.5H108C110.485 295.5 112.5 297.515 112.5 300V323C112.5 325.485 110.485 327.5 108 327.5H0.5V295.5Z" stroke="black"/>
<g filter="url(#filter15_i)">
<path d="M0 248H108C110.761 248 113 250.239 113 253V276C113 278.761 110.761 281 108 281H0V248Z" fill="#8F8F8F"/>
</g>
<path d="M0.5 248.5H108C110.485 248.5 112.5 250.515 112.5 253V276C112.5 278.485 110.485 280.5 108 280.5H0.5V248.5Z" stroke="black"/>
<g filter="url(#filter16_i)">
<path d="M0 201H108C110.761 201 113 203.239 113 206V229C113 231.761 110.761 234 108 234H0V201Z" fill="#8F8F8F"/>
</g>
<path d="M0.5 201.5H108C110.485 201.5 112.5 203.515 112.5 206V229C112.5 231.485 110.485 233.5 108 233.5H0.5V201.5Z" stroke="black"/>
<g filter="url(#filter17_i)">
<path d="M0 107H108C110.761 107 113 109.239 113 112V135C113 137.761 110.761 140 108 140H0V107Z" fill="#8F8F8F"/>
</g>
<path d="M0.5 107.5H108C110.485 107.5 112.5 109.515 112.5 112V135C112.5 137.485 110.485 139.5 108 139.5H0.5V107.5Z" stroke="black"/>
<g filter="url(#filter18_i)">
<path d="M0 60H108C110.761 60 113 62.2386 113 65V88C113 90.7614 110.761 93 108 93H0V60Z" fill="#8F8F8F"/>
</g>
<path d="M0.5 60.5H108C110.485 60.5 112.5 62.5147 112.5 65V88C112.5 90.4853 110.485 92.5 108 92.5H0.5V60.5Z" stroke="black"/>
<g filter="url(#filter19_i)">
<path d="M0 -17H108C110.761 -17 113 -14.7614 113 -12V11C113 13.7614 110.761 16 108 16H0V-17Z" fill="#8F8F8F"/>
</g>
<path d="M0.5 -16.5H108C110.485 -16.5 112.5 -14.4853 112.5 -12V11C112.5 13.4853 110.485 15.5 108 15.5H0.5V-16.5Z" stroke="black"/>
<path fill-rule="evenodd" clip-rule="evenodd" d="M199.989 474.482L320.67 440.908L319.33 436.091L198.693 469.652C196.645 465.709 192.402 463 187.5 463C180.596 463 175 468.373 175 475C175 481.628 180.596 487 187.5 487C194.404 487 200 481.628 200 475C200 474.826 199.996 474.654 199.989 474.482Z" fill="#D69C2E"/>
<path d="M320.67 440.908L320.804 441.39L321.286 441.256L321.152 440.774L320.67 440.908ZM199.989 474.482L199.855 474L199.471 474.107L199.489 474.504L199.989 474.482ZM319.33 436.091L319.812 435.957L319.678 435.476L319.196 435.61L319.33 436.091ZM198.693 469.652L198.249 469.883L198.436 470.243L198.827 470.134L198.693 469.652ZM320.536 440.427L199.855 474L200.123 474.963L320.804 441.39L320.536 440.427ZM318.848 436.225L320.188 441.042L321.152 440.774L319.812 435.957L318.848 436.225ZM198.827 470.134L319.464 436.573L319.196 435.61L198.559 469.17L198.827 470.134ZM187.5 463.5C192.216 463.5 196.287 466.105 198.249 469.883L199.137 469.422C197.002 465.312 192.588 462.5 187.5 462.5V463.5ZM175.5 475C175.5 468.668 180.853 463.5 187.5 463.5V462.5C180.34 462.5 174.5 468.077 174.5 475H175.5ZM187.5 486.5C180.853 486.5 175.5 481.332 175.5 475H174.5C174.5 481.923 180.34 487.5 187.5 487.5V486.5ZM199.5 475C199.5 481.332 194.147 486.5 187.5 486.5V487.5C194.66 487.5 200.5 481.923 200.5 475H199.5ZM199.489 474.504C199.496 474.668 199.5 474.834 199.5 475H200.5C200.5 474.819 200.496 474.639 200.488 474.46L199.489 474.504Z" fill="#686868"/>
<path fill-rule="evenodd" clip-rule="evenodd" d="M199.894 383.055L320.779 369.484L320.221 364.516L199.486 378.07C197.953 373.107 193.167 369.487 187.5 369.487C180.596 369.487 175 374.86 175 381.487C175 388.115 180.596 393.487 187.5 393.487C193.85 393.487 199.094 388.942 199.894 383.055Z" fill="#D69C2E"/>
<path d="M320.779 369.484L320.835 369.981L321.332 369.926L321.276 369.429L320.779 369.484ZM199.894 383.055L199.838 382.559L199.451 382.602L199.399 382.988L199.894 383.055ZM320.221 364.516L320.718 364.46L320.662 363.963L320.165 364.019L320.221 364.516ZM199.486 378.07L199.008 378.217L199.13 378.613L199.542 378.567L199.486 378.07ZM320.723 368.988L199.838 382.559L199.95 383.552L320.835 369.981L320.723 368.988ZM319.724 364.571L320.282 369.54L321.276 369.429L320.718 364.46L319.724 364.571ZM199.542 378.567L320.277 365.013L320.165 364.019L199.43 377.573L199.542 378.567ZM187.5 369.987C192.953 369.987 197.541 373.47 199.008 378.217L199.964 377.922C198.364 372.745 193.381 368.987 187.5 368.987V369.987ZM175.5 381.487C175.5 375.155 180.853 369.987 187.5 369.987V368.987C180.34 368.987 174.5 374.565 174.5 381.487H175.5ZM187.5 392.987C180.853 392.987 175.5 387.82 175.5 381.487H174.5C174.5 388.41 180.34 393.987 187.5 393.987V392.987ZM199.399 382.988C198.634 388.615 193.612 392.987 187.5 392.987V393.987C194.088 393.987 199.554 389.269 200.39 383.123L199.399 382.988Z" fill="#686868"/>
<path fill-rule="evenodd" clip-rule="evenodd" d="M199.407 290.661C197.795 295.498 193.073 299 187.5 299C180.596 299 175 293.627 175 287C175 280.373 180.596 275 187.5 275C193.94 275 199.242 279.675 199.925 285.682L319.132 292.004L318.868 296.996L199.407 290.661Z" fill="#D69C2E"/>
<path d="M199.407 290.661L199.434 290.162L199.054 290.142L198.933 290.503L199.407 290.661ZM199.925 285.682L199.429 285.738L199.477 286.159L199.899 286.181L199.925 285.682ZM319.132 292.004L319.632 292.03L319.658 291.531L319.159 291.504L319.132 292.004ZM318.868 296.996L318.841 297.496L319.34 297.522L319.367 297.023L318.868 296.996ZM198.933 290.503C197.39 295.131 192.863 298.5 187.5 298.5V299.5C193.284 299.5 198.2 295.865 199.882 290.82L198.933 290.503ZM187.5 298.5C180.853 298.5 175.5 293.332 175.5 287H174.5C174.5 293.923 180.34 299.5 187.5 299.5V298.5ZM175.5 287C175.5 280.668 180.853 275.5 187.5 275.5V274.5C180.34 274.5 174.5 280.077 174.5 287H175.5ZM187.5 275.5C193.699 275.5 198.775 279.997 199.429 285.738L200.422 285.625C199.708 279.352 194.18 274.5 187.5 274.5V275.5ZM199.899 286.181L319.106 292.503L319.159 291.504L199.952 285.183L199.899 286.181ZM318.633 291.977L318.368 296.97L319.367 297.023L319.632 292.03L318.633 291.977ZM318.894 296.497L199.434 290.162L199.381 291.161L318.841 297.496L318.894 296.497Z" fill="#686868"/>
<rect x="407" y="453" width="176" height="7" fill="#56C84C"/>
</g>
<defs>
<filter id="filter0_ii" x="0" y="451" width="215" height="51" filterUnits="userSpaceOnUse" color-interpolation-filters="sRGB">
<feFlood flood-opacity="0" result="BackgroundImageFix"/>
<feBlend mode="normal" in="SourceGraphic" in2="BackgroundImageFix" result="shape"/>
<feColorMatrix in="SourceAlpha" type="matrix" values="0 0 0 0 0 0 0 0 0 0 0 0 0 0 0 0 0 0 127 0" result="hardAlpha"/>
<feOffset dy="2"/>
<feGaussianBlur stdDeviation="5"/>
<feComposite in2="hardAlpha" operator="arithmetic" k2="-1" k3="1"/>
<feColorMatrix type="matrix" values="0 0 0 0 0 0 0 0 0 0 0 0 0 0 0 0 0 0 0.25 0"/>
<feBlend mode="normal" in2="shape" result="effect1_innerShadow"/>
<feColorMatrix in="SourceAlpha" type="matrix" values="0 0 0 0 0 0 0 0 0 0 0 0 0 0 0 0 0 0 127 0" result="hardAlpha"/>
<feOffset dy="-2"/>
<feGaussianBlur stdDeviation="5"/>
<feComposite in2="hardAlpha" operator="arithmetic" k2="-1" k3="1"/>
<feColorMatrix type="matrix" values="0 0 0 0 0 0 0 0 0 0 0 0 0 0 0 0 0 0 0.25 0"/>
<feBlend mode="normal" in2="effect1_innerShadow" result="effect2_innerShadow"/>
</filter>
<filter id="filter1_ii" x="0" y="404" width="215" height="51" filterUnits="userSpaceOnUse" color-interpolation-filters="sRGB">
<feFlood flood-opacity="0" result="BackgroundImageFix"/>
<feBlend mode="normal" in="SourceGraphic" in2="BackgroundImageFix" result="shape"/>
<feColorMatrix in="SourceAlpha" type="matrix" values="0 0 0 0 0 0 0 0 0 0 0 0 0 0 0 0 0 0 127 0" result="hardAlpha"/>
<feOffset dy="2"/>
<feGaussianBlur stdDeviation="5"/>
<feComposite in2="hardAlpha" operator="arithmetic" k2="-1" k3="1"/>
<feColorMatrix type="matrix" values="0 0 0 0 0 0 0 0 0 0 0 0 0 0 0 0 0 0 0.25 0"/>
<feBlend mode="normal" in2="shape" result="effect1_innerShadow"/>
<feColorMatrix in="SourceAlpha" type="matrix" values="0 0 0 0 0 0 0 0 0 0 0 0 0 0 0 0 0 0 127 0" result="hardAlpha"/>
<feOffset dy="-2"/>
<feGaussianBlur stdDeviation="5"/>
<feComposite in2="hardAlpha" operator="arithmetic" k2="-1" k3="1"/>
<feColorMatrix type="matrix" values="0 0 0 0 0 0 0 0 0 0 0 0 0 0 0 0 0 0 0.25 0"/>
<feBlend mode="normal" in2="effect1_innerShadow" result="effect2_innerShadow"/>
</filter>
<filter id="filter2_ii" x="0" y="357" width="215" height="51" filterUnits="userSpaceOnUse" color-interpolation-filters="sRGB">
<feFlood flood-opacity="0" result="BackgroundImageFix"/>
<feBlend mode="normal" in="SourceGraphic" in2="BackgroundImageFix" result="shape"/>
<feColorMatrix in="SourceAlpha" type="matrix" values="0 0 0 0 0 0 0 0 0 0 0 0 0 0 0 0 0 0 127 0" result="hardAlpha"/>
<feOffset dy="2"/>
<feGaussianBlur stdDeviation="5"/>
<feComposite in2="hardAlpha" operator="arithmetic" k2="-1" k3="1"/>
<feColorMatrix type="matrix" values="0 0 0 0 0 0 0 0 0 0 0 0 0 0 0 0 0 0 0.25 0"/>
<feBlend mode="normal" in2="shape" result="effect1_innerShadow"/>
<feColorMatrix in="SourceAlpha" type="matrix" values="0 0 0 0 0 0 0 0 0 0 0 0 0 0 0 0 0 0 127 0" result="hardAlpha"/>
<feOffset dy="-2"/>
<feGaussianBlur stdDeviation="5"/>
<feComposite in2="hardAlpha" operator="arithmetic" k2="-1" k3="1"/>
<feColorMatrix type="matrix" values="0 0 0 0 0 0 0 0 0 0 0 0 0 0 0 0 0 0 0.25 0"/>
<feBlend mode="normal" in2="effect1_innerShadow" result="effect2_innerShadow"/>
</filter>
<filter id="filter3_ii" x="0" y="310" width="215" height="51" filterUnits="userSpaceOnUse" color-interpolation-filters="sRGB">
<feFlood flood-opacity="0" result="BackgroundImageFix"/>
<feBlend mode="normal" in="SourceGraphic" in2="BackgroundImageFix" result="shape"/>
<feColorMatrix in="SourceAlpha" type="matrix" values="0 0 0 0 0 0 0 0 0 0 0 0 0 0 0 0 0 0 127 0" result="hardAlpha"/>
<feOffset dy="2"/>
<feGaussianBlur stdDeviation="5"/>
<feComposite in2="hardAlpha" operator="arithmetic" k2="-1" k3="1"/>
<feColorMatrix type="matrix" values="0 0 0 0 0 0 0 0 0 0 0 0 0 0 0 0 0 0 0.25 0"/>
<feBlend mode="normal" in2="shape" result="effect1_innerShadow"/>
<feColorMatrix in="SourceAlpha" type="matrix" values="0 0 0 0 0 0 0 0 0 0 0 0 0 0 0 0 0 0 127 0" result="hardAlpha"/>
<feOffset dy="-2"/>
<feGaussianBlur stdDeviation="5"/>
<feComposite in2="hardAlpha" operator="arithmetic" k2="-1" k3="1"/>
<feColorMatrix type="matrix" values="0 0 0 0 0 0 0 0 0 0 0 0 0 0 0 0 0 0 0.25 0"/>
<feBlend mode="normal" in2="effect1_innerShadow" result="effect2_innerShadow"/>
</filter>
<filter id="filter4_ii" x="0" y="263" width="215" height="51" filterUnits="userSpaceOnUse" color-interpolation-filters="sRGB">
<feFlood flood-opacity="0" result="BackgroundImageFix"/>
<feBlend mode="normal" in="SourceGraphic" in2="BackgroundImageFix" result="shape"/>
<feColorMatrix in="SourceAlpha" type="matrix" values="0 0 0 0 0 0 0 0 0 0 0 0 0 0 0 0 0 0 127 0" result="hardAlpha"/>
<feOffset dy="2"/>
<feGaussianBlur stdDeviation="5"/>
<feComposite in2="hardAlpha" operator="arithmetic" k2="-1" k3="1"/>
<feColorMatrix type="matrix" values="0 0 0 0 0 0 0 0 0 0 0 0 0 0 0 0 0 0 0.25 0"/>
<feBlend mode="normal" in2="shape" result="effect1_innerShadow"/>
<feColorMatrix in="SourceAlpha" type="matrix" values="0 0 0 0 0 0 0 0 0 0 0 0 0 0 0 0 0 0 127 0" result="hardAlpha"/>
<feOffset dy="-2"/>
<feGaussianBlur stdDeviation="5"/>
<feComposite in2="hardAlpha" operator="arithmetic" k2="-1" k3="1"/>
<feColorMatrix type="matrix" values="0 0 0 0 0 0 0 0 0 0 0 0 0 0 0 0 0 0 0.25 0"/>
<feBlend mode="normal" in2="effect1_innerShadow" result="effect2_innerShadow"/>
</filter>
<filter id="filter5_ii" x="0" y="216" width="215" height="51" filterUnits="userSpaceOnUse" color-interpolation-filters="sRGB">
<feFlood flood-opacity="0" result="BackgroundImageFix"/>
<feBlend mode="normal" in="SourceGraphic" in2="BackgroundImageFix" result="shape"/>
<feColorMatrix in="SourceAlpha" type="matrix" values="0 0 0 0 0 0 0 0 0 0 0 0 0 0 0 0 0 0 127 0" result="hardAlpha"/>
<feOffset dy="2"/>
<feGaussianBlur stdDeviation="5"/>
<feComposite in2="hardAlpha" operator="arithmetic" k2="-1" k3="1"/>
<feColorMatrix type="matrix" values="0 0 0 0 0 0 0 0 0 0 0 0 0 0 0 0 0 0 0.25 0"/>
<feBlend mode="normal" in2="shape" result="effect1_innerShadow"/>
<feColorMatrix in="SourceAlpha" type="matrix" values="0 0 0 0 0 0 0 0 0 0 0 0 0 0 0 0 0 0 127 0" result="hardAlpha"/>
<feOffset dy="-2"/>
<feGaussianBlur stdDeviation="5"/>
<feComposite in2="hardAlpha" operator="arithmetic" k2="-1" k3="1"/>
<feColorMatrix type="matrix" values="0 0 0 0 0 0 0 0 0 0 0 0 0 0 0 0 0 0 0.25 0"/>
<feBlend mode="normal" in2="effect1_innerShadow" result="effect2_innerShadow"/>
</filter>
<filter id="filter6_ii" x="0" y="169" width="215" height="51" filterUnits="userSpaceOnUse" color-interpolation-filters="sRGB">
<feFlood flood-opacity="0" result="BackgroundImageFix"/>
<feBlend mode="normal" in="SourceGraphic" in2="BackgroundImageFix" result="shape"/>
<feColorMatrix in="SourceAlpha" type="matrix" values="0 0 0 0 0 0 0 0 0 0 0 0 0 0 0 0 0 0 127 0" result="hardAlpha"/>
<feOffset dy="2"/>
<feGaussianBlur stdDeviation="5"/>
<feComposite in2="hardAlpha" operator="arithmetic" k2="-1" k3="1"/>
<feColorMatrix type="matrix" values="0 0 0 0 0 0 0 0 0 0 0 0 0 0 0 0 0 0 0.25 0"/>
<feBlend mode="normal" in2="shape" result="effect1_innerShadow"/>
<feColorMatrix in="SourceAlpha" type="matrix" values="0 0 0 0 0 0 0 0 0 0 0 0 0 0 0 0 0 0 127 0" result="hardAlpha"/>
<feOffset dy="-2"/>
<feGaussianBlur stdDeviation="5"/>
<feComposite in2="hardAlpha" operator="arithmetic" k2="-1" k3="1"/>
<feColorMatrix type="matrix" values="0 0 0 0 0 0 0 0 0 0 0 0 0 0 0 0 0 0 0.25 0"/>
<feBlend mode="normal" in2="effect1_innerShadow" result="effect2_innerShadow"/>
</filter>
<filter id="filter7_ii" x="0" y="122" width="215" height="51" filterUnits="userSpaceOnUse" color-interpolation-filters="sRGB">
<feFlood flood-opacity="0" result="BackgroundImageFix"/>
<feBlend mode="normal" in="SourceGraphic" in2="BackgroundImageFix" result="shape"/>
<feColorMatrix in="SourceAlpha" type="matrix" values="0 0 0 0 0 0 0 0 0 0 0 0 0 0 0 0 0 0 127 0" result="hardAlpha"/>
<feOffset dy="2"/>
<feGaussianBlur stdDeviation="5"/>
<feComposite in2="hardAlpha" operator="arithmetic" k2="-1" k3="1"/>
<feColorMatrix type="matrix" values="0 0 0 0 0 0 0 0 0 0 0 0 0 0 0 0 0 0 0.25 0"/>
<feBlend mode="normal" in2="shape" result="effect1_innerShadow"/>
<feColorMatrix in="SourceAlpha" type="matrix" values="0 0 0 0 0 0 0 0 0 0 0 0 0 0 0 0 0 0 127 0" result="hardAlpha"/>
<feOffset dy="-2"/>
<feGaussianBlur stdDeviation="5"/>
<feComposite in2="hardAlpha" operator="arithmetic" k2="-1" k3="1"/>
<feColorMatrix type="matrix" values="0 0 0 0 0 0 0 0 0 0 0 0 0 0 0 0 0 0 0.25 0"/>
<feBlend mode="normal" in2="effect1_innerShadow" result="effect2_innerShadow"/>
</filter>
<filter id="filter8_ii" x="0" y="75" width="215" height="51" filterUnits="userSpaceOnUse" color-interpolation-filters="sRGB">
<feFlood flood-opacity="0" result="BackgroundImageFix"/>
<feBlend mode="normal" in="SourceGraphic" in2="BackgroundImageFix" result="shape"/>
<feColorMatrix in="SourceAlpha" type="matrix" values="0 0 0 0 0 0 0 0 0 0 0 0 0 0 0 0 0 0 127 0" result="hardAlpha"/>
<feOffset dy="2"/>
<feGaussianBlur stdDeviation="5"/>
<feComposite in2="hardAlpha" operator="arithmetic" k2="-1" k3="1"/>
<feColorMatrix type="matrix" values="0 0 0 0 0 0 0 0 0 0 0 0 0 0 0 0 0 0 0.25 0"/>
<feBlend mode="normal" in2="shape" result="effect1_innerShadow"/>
<feColorMatrix in="SourceAlpha" type="matrix" values="0 0 0 0 0 0 0 0 0 0 0 0 0 0 0 0 0 0 127 0" result="hardAlpha"/>
<feOffset dy="-2"/>
<feGaussianBlur stdDeviation="5"/>
<feComposite in2="hardAlpha" operator="arithmetic" k2="-1" k3="1"/>
<feColorMatrix type="matrix" values="0 0 0 0 0 0 0 0 0 0 0 0 0 0 0 0 0 0 0.25 0"/>
<feBlend mode="normal" in2="effect1_innerShadow" result="effect2_innerShadow"/>
</filter>
<filter id="filter9_ii" x="0" y="28" width="215" height="51" filterUnits="userSpaceOnUse" color-interpolation-filters="sRGB">
<feFlood flood-opacity="0" result="BackgroundImageFix"/>
<feBlend mode="normal" in="SourceGraphic" in2="BackgroundImageFix" result="shape"/>
<feColorMatrix in="SourceAlpha" type="matrix" values="0 0 0 0 0 0 0 0 0 0 0 0 0 0 0 0 0 0 127 0" result="hardAlpha"/>
<feOffset dy="2"/>
<feGaussianBlur stdDeviation="5"/>
<feComposite in2="hardAlpha" operator="arithmetic" k2="-1" k3="1"/>
<feColorMatrix type="matrix" values="0 0 0 0 0 0 0 0 0 0 0 0 0 0 0 0 0 0 0.25 0"/>
<feBlend mode="normal" in2="shape" result="effect1_innerShadow"/>
<feColorMatrix in="SourceAlpha" type="matrix" values="0 0 0 0 0 0 0 0 0 0 0 0 0 0 0 0 0 0 127 0" result="hardAlpha"/>
<feOffset dy="-2"/>
<feGaussianBlur stdDeviation="5"/>
<feComposite in2="hardAlpha" operator="arithmetic" k2="-1" k3="1"/>
<feColorMatrix type="matrix" values="0 0 0 0 0 0 0 0 0 0 0 0 0 0 0 0 0 0 0.25 0"/>
<feBlend mode="normal" in2="effect1_innerShadow" result="effect2_innerShadow"/>
</filter>
<filter id="filter10_ii" x="0" y="-19" width="215" height="51" filterUnits="userSpaceOnUse" color-interpolation-filters="sRGB">
<feFlood flood-opacity="0" result="BackgroundImageFix"/>
<feBlend mode="normal" in="SourceGraphic" in2="BackgroundImageFix" result="shape"/>
<feColorMatrix in="SourceAlpha" type="matrix" values="0 0 0 0 0 0 0 0 0 0 0 0 0 0 0 0 0 0 127 0" result="hardAlpha"/>
<feOffset dy="2"/>
<feGaussianBlur stdDeviation="5"/>
<feComposite in2="hardAlpha" operator="arithmetic" k2="-1" k3="1"/>
<feColorMatrix type="matrix" values="0 0 0 0 0 0 0 0 0 0 0 0 0 0 0 0 0 0 0.25 0"/>
<feBlend mode="normal" in2="shape" result="effect1_innerShadow"/>
<feColorMatrix in="SourceAlpha" type="matrix" values="0 0 0 0 0 0 0 0 0 0 0 0 0 0 0 0 0 0 127 0" result="hardAlpha"/>
<feOffset dy="-2"/>
<feGaussianBlur stdDeviation="5"/>
<feComposite in2="hardAlpha" operator="arithmetic" k2="-1" k3="1"/>
<feColorMatrix type="matrix" values="0 0 0 0 0 0 0 0 0 0 0 0 0 0 0 0 0 0 0.25 0"/>
<feBlend mode="normal" in2="effect1_innerShadow" result="effect2_innerShadow"/>
</filter>
<filter id="filter11_di" x="279" y="230" width="128" height="277" filterUnits="userSpaceOnUse" color-interpolation-filters="sRGB">
<feFlood flood-opacity="0" result="BackgroundImageFix"/>
<feColorMatrix in="SourceAlpha" type="matrix" values="0 0 0 0 0 0 0 0 0 0 0 0 0 0 0 0 0 0 127 0"/>
<feOffset dx="-9" dy="10"/>
<feGaussianBlur stdDeviation="6"/>
<feColorMatrix type="matrix" values="0 0 0 0 0 0 0 0 0 0 0 0 0 0 0 0 0 0 0.25 0"/>
<feBlend mode="normal" in2="BackgroundImageFix" result="effect1_dropShadow"/>
<feBlend mode="normal" in="SourceGraphic" in2="effect1_dropShadow" result="shape"/>
<feColorMatrix in="SourceAlpha" type="matrix" values="0 0 0 0 0 0 0 0 0 0 0 0 0 0 0 0 0 0 127 0" result="hardAlpha"/>
<feOffset dx="15" dy="-23"/>
<feGaussianBlur stdDeviation="10.5"/>
<feComposite in2="hardAlpha" operator="arithmetic" k2="-1" k3="1"/>
<feColorMatrix type="matrix" values="0 0 0 0 0 0 0 0 0 0 0 0 0 0 0 0 0 0 0.25 0"/>
<feBlend mode="normal" in2="shape" result="effect2_innerShadow"/>
</filter>
<filter id="filter12_i" x="-13" y="422" width="126" height="47" filterUnits="userSpaceOnUse" color-interpolation-filters="sRGB">
<feFlood flood-opacity="0" result="BackgroundImageFix"/>
<feBlend mode="normal" in="SourceGraphic" in2="BackgroundImageFix" result="shape"/>
<feColorMatrix in="SourceAlpha" type="matrix" values="0 0 0 0 0 0 0 0 0 0 0 0 0 0 0 0 0 0 127 0" result="hardAlpha"/>
<feOffset dx="-13" dy="-14"/>
<feGaussianBlur stdDeviation="7.5"/>
<feComposite in2="hardAlpha" operator="arithmetic" k2="-1" k3="1"/>
<feColorMatrix type="matrix" values="0 0 0 0 0 0 0 0 0 0 0 0 0 0 0 0 0 0 0.25 0"/>
<feBlend mode="normal" in2="shape" result="effect1_innerShadow"/>
</filter>
<filter id="filter13_i" x="-13" y="375" width="126" height="47" filterUnits="userSpaceOnUse" color-interpolation-filters="sRGB">
<feFlood flood-opacity="0" result="BackgroundImageFix"/>
<feBlend mode="normal" in="SourceGraphic" in2="BackgroundImageFix" result="shape"/>
<feColorMatrix in="SourceAlpha" type="matrix" values="0 0 0 0 0 0 0 0 0 0 0 0 0 0 0 0 0 0 127 0" result="hardAlpha"/>
<feOffset dx="-13" dy="-14"/>
<feGaussianBlur stdDeviation="7.5"/>
<feComposite in2="hardAlpha" operator="arithmetic" k2="-1" k3="1"/>
<feColorMatrix type="matrix" values="0 0 0 0 0 0 0 0 0 0 0 0 0 0 0 0 0 0 0.25 0"/>
<feBlend mode="normal" in2="shape" result="effect1_innerShadow"/>
</filter>
<filter id="filter14_i" x="-13" y="281" width="126" height="47" filterUnits="userSpaceOnUse" color-interpolation-filters="sRGB">
<feFlood flood-opacity="0" result="BackgroundImageFix"/>
<feBlend mode="normal" in="SourceGraphic" in2="BackgroundImageFix" result="shape"/>
<feColorMatrix in="SourceAlpha" type="matrix" values="0 0 0 0 0 0 0 0 0 0 0 0 0 0 0 0 0 0 127 0" result="hardAlpha"/>
<feOffset dx="-13" dy="-14"/>
<feGaussianBlur stdDeviation="7.5"/>
<feComposite in2="hardAlpha" operator="arithmetic" k2="-1" k3="1"/>
<feColorMatrix type="matrix" values="0 0 0 0 0 0 0 0 0 0 0 0 0 0 0 0 0 0 0.25 0"/>
<feBlend mode="normal" in2="shape" result="effect1_innerShadow"/>
</filter>
<filter id="filter15_i" x="-13" y="234" width="126" height="47" filterUnits="userSpaceOnUse" color-interpolation-filters="sRGB">
<feFlood flood-opacity="0" result="BackgroundImageFix"/>
<feBlend mode="normal" in="SourceGraphic" in2="BackgroundImageFix" result="shape"/>
<feColorMatrix in="SourceAlpha" type="matrix" values="0 0 0 0 0 0 0 0 0 0 0 0 0 0 0 0 0 0 127 0" result="hardAlpha"/>
<feOffset dx="-13" dy="-14"/>
<feGaussianBlur stdDeviation="7.5"/>
<feComposite in2="hardAlpha" operator="arithmetic" k2="-1" k3="1"/>
<feColorMatrix type="matrix" values="0 0 0 0 0 0 0 0 0 0 0 0 0 0 0 0 0 0 0.25 0"/>
<feBlend mode="normal" in2="shape" result="effect1_innerShadow"/>
</filter>
<filter id="filter16_i" x="-13" y="187" width="126" height="47" filterUnits="userSpaceOnUse" color-interpolation-filters="sRGB">
<feFlood flood-opacity="0" result="BackgroundImageFix"/>
<feBlend mode="normal" in="SourceGraphic" in2="BackgroundImageFix" result="shape"/>
<feColorMatrix in="SourceAlpha" type="matrix" values="0 0 0 0 0 0 0 0 0 0 0 0 0 0 0 0 0 0 127 0" result="hardAlpha"/>
<feOffset dx="-13" dy="-14"/>
<feGaussianBlur stdDeviation="7.5"/>
<feComposite in2="hardAlpha" operator="arithmetic" k2="-1" k3="1"/>
<feColorMatrix type="matrix" values="0 0 0 0 0 0 0 0 0 0 0 0 0 0 0 0 0 0 0.25 0"/>
<feBlend mode="normal" in2="shape" result="effect1_innerShadow"/>
</filter>
<filter id="filter17_i" x="-13" y="93" width="126" height="47" filterUnits="userSpaceOnUse" color-interpolation-filters="sRGB">
<feFlood flood-opacity="0" result="BackgroundImageFix"/>
<feBlend mode="normal" in="SourceGraphic" in2="BackgroundImageFix" result="shape"/>
<feColorMatrix in="SourceAlpha" type="matrix" values="0 0 0 0 0 0 0 0 0 0 0 0 0 0 0 0 0 0 127 0" result="hardAlpha"/>
<feOffset dx="-13" dy="-14"/>
<feGaussianBlur stdDeviation="7.5"/>
<feComposite in2="hardAlpha" operator="arithmetic" k2="-1" k3="1"/>
<feColorMatrix type="matrix" values="0 0 0 0 0 0 0 0 0 0 0 0 0 0 0 0 0 0 0.25 0"/>
<feBlend mode="normal" in2="shape" result="effect1_innerShadow"/>
</filter>
<filter id="filter18_i" x="-13" y="46" width="126" height="47" filterUnits="userSpaceOnUse" color-interpolation-filters="sRGB">
<feFlood flood-opacity="0" result="BackgroundImageFix"/>
<feBlend mode="normal" in="SourceGraphic" in2="BackgroundImageFix" result="shape"/>
<feColorMatrix in="SourceAlpha" type="matrix" values="0 0 0 0 0 0 0 0 0 0 0 0 0 0 0 0 0 0 127 0" result="hardAlpha"/>
<feOffset dx="-13" dy="-14"/>
<feGaussianBlur stdDeviation="7.5"/>
<feComposite in2="hardAlpha" operator="arithmetic" k2="-1" k3="1"/>
<feColorMatrix type="matrix" values="0 0 0 0 0 0 0 0 0 0 0 0 0 0 0 0 0 0 0.25 0"/>
<feBlend mode="normal" in2="shape" result="effect1_innerShadow"/>
</filter>
<filter id="filter19_i" x="-13" y="-31" width="126" height="47" filterUnits="userSpaceOnUse" color-interpolation-filters="sRGB">
<feFlood flood-opacity="0" result="BackgroundImageFix"/>
<feBlend mode="normal" in="SourceGraphic" in2="BackgroundImageFix" result="shape"/>
<feColorMatrix in="SourceAlpha" type="matrix" values="0 0 0 0 0 0 0 0 0 0 0 0 0 0 0 0 0 0 127 0" result="hardAlpha"/>
<feOffset dx="-13" dy="-14"/>
<feGaussianBlur stdDeviation="7.5"/>
<feComposite in2="hardAlpha" operator="arithmetic" k2="-1" k3="1"/>
<feColorMatrix type="matrix" values="0 0 0 0 0 0 0 0 0 0 0 0 0 0 0 0 0 0 0.25 0"/>
<feBlend mode="normal" in2="shape" result="effect1_innerShadow"/>
</filter>
<clipPath id="clip0">
<rect width="600" height="500" fill="white"/>
</clipPath>
</defs>
</svg>
